<?xml version="1.0" encoding="UTF-8" standalone="no"?>
<!-- Created with Inkscape (http://www.inkscape.org/) -->

<svg
   version="1.1"
   id="svg1"
   width="982.67999"
   height="423.90668"
   viewBox="0 0 982.67999 423.90668"
   sodipodi:docname="4224.eps"
   xmlns:inkscape="http://www.inkscape.org/namespaces/inkscape"
   xmlns:sodipodi="http://sodipodi.sourceforge.net/DTD/sodipodi-0.dtd"
   xmlns="http://www.w3.org/2000/svg"
   xmlns:svg="http://www.w3.org/2000/svg">
  <defs
     id="defs1" />
  <sodipodi:namedview
     id="namedview1"
     pagecolor="#ffffff"
     bordercolor="#000000"
     borderopacity="0.25"
     inkscape:showpageshadow="2"
     inkscape:pageopacity="0.0"
     inkscape:pagecheckerboard="0"
     inkscape:deskcolor="#d1d1d1">
    <inkscape:page
       x="0"
       y="0"
       inkscape:label="1"
       id="page1"
       width="982.67999"
       height="423.90668"
       margin="0"
       bleed="0" />
  </sodipodi:namedview>
  <g
     id="g1"
     inkscape:groupmode="layer"
     inkscape:label="1">
    <g
       id="group-R5">
      <path
         id="path2"
         d="M 111.113,8.92188 V 496.34 H 0 v 80.289 H 321.977 V 496.34 H 210.055 V 8.92188 h -98.942"
         style="fill:#f68223;fill-opacity:1;fill-rule:nonzero;stroke:none"
         transform="matrix(0.13333333,0,0,-0.13333333,0,423.90667)" />
      <path
         id="path3"
         d="M 488.25,171.941 H 591.238 L 545.82,320.352 c -2.41,6.476 -4.847,16.218 -5.668,21.898 -0.816,-4.871 -2.433,-15.422 -4.867,-21.898 z M 614.77,96.5 H 463.926 L 436.344,8.92188 H 332.535 L 540.152,584.738 746.953,8.92188 H 642.348 L 614.77,96.5"
         style="fill:#f68223;fill-opacity:1;fill-rule:nonzero;stroke:none"
         transform="matrix(0.13333333,0,0,-0.13333333,0,423.90667)" />
      <path
         id="path4"
         d="M 841.867,8.92188 V 576.629 h 98.942 V 309.801 l 171.141,266.828 h 107.04 L 1040.57,300.07 1228.73,8.92188 H 1116.8 L 940.809,289.52 V 8.92188 h -98.942"
         style="fill:#f68223;fill-opacity:1;fill-rule:nonzero;stroke:none"
         transform="matrix(0.13333333,0,0,-0.13333333,0,423.90667)" />
      <path
         id="path5"
         d="m 1725.91,453.352 c 0,30.019 -16.22,51.097 -47.06,51.097 -30.81,0 -46.21,-21.898 -46.21,-49.469 0,-29.199 16.22,-52.73 44.6,-83.539 33.24,31.629 48.67,53.52 48.67,81.911 z m -67.33,-192.211 c -55.96,-36.493 -78.67,-71.36 -78.67,-107.063 0,-42.16 30.02,-68.1092 76.23,-68.1092 38.94,0 64.08,17.8402 98.15,51.9022 z M 1875.94,135.441 1983,8.92188 H 1870.27 L 1813.5,77.8516 C 1759.16,27.5703 1712.12,0.808594 1643.99,0.808594 c -111.11,0 -159.76,67.320306 -159.76,143.550406 0,68.93 41.34,124.082 115.96,177.61 -36.5,49.472 -55.96,91.64 -55.96,137.871 0,77.051 51.91,124.898 134.62,124.898 76.26,0 136.26,-40.547 136.26,-121.648 0,-64.891 -40.55,-109.488 -84.35,-152.469 l 84.35,-112.73 c 16.23,20.269 35.68,45.41 49.47,64.871 l 67.31,-55.141 c -17.84,-24.34 -36.5,-48.672 -55.95,-72.18"
         style="fill:#f68223;fill-opacity:1;fill-rule:nonzero;stroke:none"
         transform="matrix(0.13333333,0,0,-0.13333333,0,423.90667)" />
      <path
         id="path6"
         d="m 2276.61,576.629 h 266.83 v -79.488 h -167.89 v -158.95 h 141.13 v -80.3 H 2375.55 V 8.92188 h -98.94 V 576.629"
         style="fill:#f68223;fill-opacity:1;fill-rule:nonzero;stroke:none"
         transform="matrix(0.13333333,0,0,-0.13333333,0,423.90667)" />
      <path
         id="path7"
         d="m 2717.84,171.941 h 102.99 l -45.42,148.411 c -2.41,6.476 -4.85,16.218 -5.67,21.898 -0.81,-4.871 -2.43,-15.422 -4.87,-21.898 z M 2844.36,96.5 H 2693.52 L 2665.94,8.92188 H 2562.13 L 2769.74,584.738 2976.54,8.92188 h -104.6 L 2844.36,96.5"
         style="fill:#f68223;fill-opacity:1;fill-rule:nonzero;stroke:none"
         transform="matrix(0.13333333,0,0,-0.13333333,0,423.90667)" />
      <path
         id="path8"
         d="m 3185.03,0.808594 c -59.21,0 -111.11,10.543006 -151.66,35.691406 l 37.32,74.602 c 33.24,-17.8403 72.97,-29.2036 109.47,-29.2036 43.81,0 77.05,20.2816 77.05,72.1796 0,111.121 -214.1,98.961 -214.1,280.621 0,101.379 68.92,150.039 163.81,150.039 60.03,0 99.76,-16.218 134.64,-38.129 L 3302.63,478.5 c -26.76,16.211 -53.52,26.762 -84.35,26.762 -47.04,0 -81.9,-21.09 -81.9,-65.703 0,-111.911 214.9,-97.309 214.9,-282.231 0,-110.2967 -81.1,-156.519406 -166.25,-156.519406"
         style="fill:#f68223;fill-opacity:1;fill-rule:nonzero;stroke:none"
         transform="matrix(0.13333333,0,0,-0.13333333,0,423.90667)" />
      <path
         id="path9"
         d="m 3566.23,171.941 h 102.99 l -45.42,148.411 c -2.41,6.476 -4.85,16.218 -5.67,21.898 -0.82,-4.871 -2.43,-15.422 -4.87,-21.898 z M 3692.75,96.5 H 3541.9 L 3514.32,8.92188 H 3410.51 L 3618.13,584.738 3824.93,8.92188 h -104.6 L 3692.75,96.5"
         style="fill:#f68223;fill-opacity:1;fill-rule:nonzero;stroke:none"
         transform="matrix(0.13333333,0,0,-0.13333333,0,423.90667)" />
      <path
         id="path10"
         d="m 4018.79,85.1484 c 16.22,-1.6171 25.14,-2.4296 38.14,-2.4296 103.8,0 153.27,81.9102 153.27,210.0512 0,128.14 -50.29,210.05 -152.48,210.05 -11.35,0 -30.01,-0.808 -38.93,-3.238 z M 3919.85,9.73047 V 575.82 c 42.19,5.68 86.79,8.918 120.03,8.918 205.18,0 270.06,-137.066 270.06,-291.968 0,-154.899 -64.88,-291.961406 -270.88,-291.961406 -45.39,0 -77.84,3.242186 -119.21,8.921876"
         style="fill:#f68223;fill-opacity:1;fill-rule:nonzero;stroke:none"
         transform="matrix(0.13333333,0,0,-0.13333333,0,423.90667)" />
      <path
         id="path11"
         d="M 4488.39,8.92188 V 496.34 h -111.12 v 80.289 h 321.97 V 496.34 H 4587.33 V 8.92188 h -98.94"
         style="fill:#f68223;fill-opacity:1;fill-rule:nonzero;stroke:none"
         transform="matrix(0.13333333,0,0,-0.13333333,0,423.90667)" />
      <path
         id="path12"
         d="m 4751.99,576.629 h 101.37 l 90.02,-263.59 c 18.66,-48.648 18.66,-60.82 19.48,-69.738 0.8,8.918 0.8,21.09 17.84,68.929 l 90.02,264.399 h 100.55 L 4963.66,0 4751.99,576.629"
         style="fill:#f68223;fill-opacity:1;fill-rule:nonzero;stroke:none"
         transform="matrix(0.13333333,0,0,-0.13333333,0,423.90667)" />
      <path
         id="path13"
         d="m 5492.47,657.73 c 0,-29.199 -24.33,-53.531 -54.32,-53.531 -30.01,0 -53.54,24.332 -53.54,53.531 0,30 23.53,54.34 53.54,54.34 29.99,0 54.32,-24.34 54.32,-54.34 z M 5319.73,171.941 h 102.99 l -45.42,148.411 c -2.41,6.476 -4.84,16.218 -5.66,21.898 -0.82,-4.871 -2.44,-15.422 -4.87,-21.898 z m 41.37,485.789 c 0,-29.199 -24.35,-53.531 -54.34,-53.531 -29.19,0 -53.54,24.332 -53.54,53.531 0,30 24.35,54.34 53.54,54.34 29.99,0 54.34,-24.34 54.34,-54.34 z M 5446.25,96.5 H 5295.41 L 5267.83,8.92188 H 5164.02 L 5371.64,584.738 5578.44,8.92188 H 5473.83 L 5446.25,96.5"
         style="fill:#f68223;fill-opacity:1;fill-rule:nonzero;stroke:none"
         transform="matrix(0.13333333,0,0,-0.13333333,0,423.90667)" />
      <path
         id="path14"
         d="M 5701.75,8.92188 V 496.34 h -111.12 v 80.289 H 5912.6 V 496.34 H 5800.69 V 8.92188 h -98.94"
         style="fill:#f68223;fill-opacity:1;fill-rule:nonzero;stroke:none"
         transform="matrix(0.13333333,0,0,-0.13333333,0,423.90667)" />
      <path
         id="path15"
         d="M 6094.3,8.92188 V 496.34 h -111.11 v 80.289 h 321.99 V 496.34 H 6193.24 V 8.92188 h -98.94"
         style="fill:#f68223;fill-opacity:1;fill-rule:nonzero;stroke:none"
         transform="matrix(0.13333333,0,0,-0.13333333,0,423.90667)" />
      <path
         id="path16"
         d="m 6670.15,171.941 h 102.99 l -45.42,148.411 c -2.41,6.476 -4.85,16.218 -5.67,21.898 -0.82,-4.871 -2.43,-15.422 -4.87,-21.898 z M 6796.67,96.5 H 6645.82 L 6618.24,8.92188 H 6514.43 L 6722.05,584.738 6928.85,8.92188 h -104.6 L 6796.67,96.5"
         style="fill:#f68223;fill-opacity:1;fill-rule:nonzero;stroke:none"
         transform="matrix(0.13333333,0,0,-0.13333333,0,423.90667)" />
      <path
         id="path17"
         d="m 7121.91,84.3398 c 17.02,-3.2382 38.12,-4.0507 49.47,-4.0507 64.06,0 98.12,37.3129 98.12,99.7499 0,60.012 -30.81,99.762 -102.99,99.762 h -44.6 z m 0,274.9412 h 38.12 c 46.21,0 70.56,28.379 70.56,76.231 0,50.277 -28.4,69.75 -68.13,69.75 -11.36,0 -31.63,-0.813 -40.55,-3.25 z m -98.94,210.039 c 51.9,9.739 99.74,15.418 140.29,15.418 103.8,0 166.27,-43.797 166.27,-141.117 0,-55.141 -30.02,-103 -75.44,-112.73 73.82,-10.539 115.99,-69.75 115.99,-153.289 0,-143.5434 -97.33,-176.793406 -195.47,-176.793406 -42.16,0 -93.25,4.871096 -151.64,15.410206 V 569.32"
         style="fill:#f68223;fill-opacity:1;fill-rule:nonzero;stroke:none"
         transform="matrix(0.13333333,0,0,-0.13333333,0,423.90667)" />
      <path
         id="path18"
         d="m 3503.6,1970.54 c 11.6,59.2 43.72,76.53 85.45,76.53 46.51,0 69.24,-35.14 69.24,-78.54 0,-52.73 -45.33,-118.75 -104.25,-186.03 9.46,-64.61 11.22,-129.43 5.65,-192.63 l 22.13,22.13 c 109.54,109.54 233.55,213.92 233.55,348.26 0,172.59 -114.71,214.96 -232.52,214.96 -61.75,0 -117.8,-11.92 -159.83,-45.69 11.6,-21.15 23.11,-41.94 34.43,-62.14 17.67,-31.5 33,-63.89 46.15,-96.85"
         style="fill:#f68223;fill-opacity:1;fill-rule:nonzero;stroke:none"
         transform="matrix(0.13333333,0,0,-0.13333333,0,423.90667)" />
      <path
         id="path19"
         d="m 3820.54,1566.53 h -263.25 c -5.03,-42.75 -13.38,-84.64 -25.09,-125.05 h 288.34 v 125.05"
         style="fill:#f68223;fill-opacity:1;fill-rule:nonzero;stroke:none"
         transform="matrix(0.13333333,0,0,-0.13333333,0,423.90667)" />
      <path
         id="path20"
         d="m 3457.45,2067.39 c 4.38,-7.81 8.62,-15.69 12.72,-23.61 -4.1,7.92 -8.34,15.8 -12.72,23.61 -0.09,0.16 -0.17,0.32 -0.26,0.47 0.09,-0.15 0.17,-0.31 0.26,-0.47"
         style="fill:#f68223;fill-opacity:1;fill-rule:nonzero;stroke:none"
         transform="matrix(0.13333333,0,0,-0.13333333,0,423.90667)" />
      <path
         id="path21"
         d="m 3482.5,2018.9 c 7.57,-15.95 14.6,-32.08 21.09,-48.34 -6.49,16.26 -13.51,32.39 -21.09,48.34"
         style="fill:#f68223;fill-opacity:1;fill-rule:nonzero;stroke:none"
         transform="matrix(0.13333333,0,0,-0.13333333,0,423.90667)" />
      <path
         id="path22"
         d="m 3471.54,2041.03 c 3.65,-7.12 7.22,-14.26 10.65,-21.45 -3.43,7.19 -7,14.34 -10.65,21.45"
         style="fill:#f68223;fill-opacity:1;fill-rule:nonzero;stroke:none"
         transform="matrix(0.13333333,0,0,-0.13333333,0,423.90667)" />
      <path
         id="path23"
         d="m 3559.69,1589.9 c 2.09,23.67 3.15,47.56 3.15,71.58 -0.01,-24.02 -1.06,-47.91 -3.15,-71.58"
         style="fill:#f68223;fill-opacity:1;fill-rule:nonzero;stroke:none"
         transform="matrix(0.13333333,0,0,-0.13333333,0,423.90667)" />
      <path
         id="path24"
         d="m 3559.69,1589.87 -23.34,-23.34 h 20.94 c -2.49,-21.16 -5.8,-42.1 -9.92,-62.76 5.65,28.23 9.76,56.99 12.32,86.1"
         style="fill:#f68223;fill-opacity:1;fill-rule:nonzero;stroke:none"
         transform="matrix(0.13333333,0,0,-0.13333333,0,423.90667)" />
      <path
         id="path25"
         d="m 3541.03,1475.09 c 2.12,8.82 4.1,17.69 5.91,26.63 -1.81,-8.94 -3.8,-17.81 -5.91,-26.63"
         style="fill:#f68223;fill-opacity:1;fill-rule:nonzero;stroke:none"
         transform="matrix(0.13333333,0,0,-0.13333333,0,423.90667)" />
      <path
         id="path26"
         d="m 3539.75,1469.76 c -2.35,-9.47 -4.83,-18.89 -7.53,-28.21 2.7,9.32 5.18,18.74 7.53,28.21"
         style="fill:#f68223;fill-opacity:1;fill-rule:nonzero;stroke:none"
         transform="matrix(0.13333333,0,0,-0.13333333,0,423.90667)" />
      <path
         id="path27"
         d="m 3562.5,1685.5 c 0.23,-7.93 0.34,-15.86 0.34,-23.76 0,7.91 -0.11,15.82 -0.34,23.76"
         style="fill:#f68223;fill-opacity:1;fill-rule:nonzero;stroke:none"
         transform="matrix(0.13333333,0,0,-0.13333333,0,423.90667)" />
      <path
         id="path28"
         d="m 3561.46,1709.62 c 0.45,-7.84 0.79,-15.68 1.02,-23.51 -0.23,7.83 -0.57,15.67 -1.02,23.51"
         style="fill:#f68223;fill-opacity:1;fill-rule:nonzero;stroke:none"
         transform="matrix(0.13333333,0,0,-0.13333333,0,423.90667)" />
      <path
         id="path29"
         d="m 3557.24,1758.11 c 0.91,-7.77 1.69,-15.54 2.38,-23.31 -0.69,7.77 -1.47,15.54 -2.38,23.31"
         style="fill:#f68223;fill-opacity:1;fill-rule:nonzero;stroke:none"
         transform="matrix(0.13333333,0,0,-0.13333333,0,423.90667)" />
      <path
         id="path30"
         d="m 3559.71,1733.82 c 0.68,-7.79 1.24,-15.57 1.69,-23.34 -0.45,7.77 -1.01,15.55 -1.69,23.34"
         style="fill:#f68223;fill-opacity:1;fill-rule:nonzero;stroke:none"
         transform="matrix(0.13333333,0,0,-0.13333333,0,423.90667)" />
      <path
         id="path31"
         d="m 3438.88,2100.75 c 0.8,-1.44 1.59,-2.88 2.39,-4.31 -0.8,1.43 -1.59,2.88 -2.39,4.31"
         style="fill:#f68223;fill-opacity:1;fill-rule:nonzero;stroke:none"
         transform="matrix(0.13333333,0,0,-0.13333333,0,423.90667)" />
      <path
         id="path32"
         d="m 3256.27,1587.19 h -72.34 v -145.71 h -161.21 v 145.71 h -317.27 l 124.01,501.21 h 143.65 l -76.47,-376.16 h 126.08 v 452.64 h 161.21 v -452.64 h 72.34 z m -396.58,-455.31 c -20.32,-14.78 -145.91,-3.7 -302.91,191.16 -157,194.86 -77.58,549.49 -77.58,549.49 3.7,-131.14 20.32,-195.78 50.8,-313.07 30.47,-117.28 122.82,-201.32 172.69,-246.57 49.87,-45.26 138.53,-85.89 157,-103.44 18.47,-17.54 20.32,-62.8 0,-77.57 z m 485.47,309.6 v 125.05 l 89.91,90.93 c 39.81,40.21 82.05,82.87 118.97,125.04 1.15,-7.86 2.18,-15.73 3.1,-23.59 -8.39,71.41 -26.08,142.79 -53.54,211.63 -0.47,-2.36 -0.96,-4.67 -1.36,-7.18 v -10.33 h -153.98 v 10.33 c 7.08,81.41 34.49,133.82 74.76,166.17 -128.57,234.34 -270.9,518.98 -338.67,654.51 -73.88,147.76 -118.21,395.26 -118.21,395.26 0,0 -0.36,-3.88 -1.04,-11.15 -0.68,7.27 -1.05,11.15 -1.05,11.15 0,0 -44.33,-247.5 -118.21,-395.26 -73.88,-147.76 -236.42,-472.84 -373.1,-716.65 -136.68,-243.8 -136.68,-539.33 -22.17,-757.28 111.82,-212.8 325.68,-316.11 514.53,-310.571 188.84,-5.539 402.71,97.771 514.52,310.571 21.69,41.3 39.26,85.39 52.58,131.37 h -187.04"
         style="fill:#f68223;fill-opacity:1;fill-rule:nonzero;stroke:none"
         transform="matrix(0.13333333,0,0,-0.13333333,0,423.90667)" />
      <path
         id="path33"
         d="m 4160.55,2047.07 c -43.4,0 -76.47,-18.6 -86.81,-83.71 v -10.33 h -153.98 v 10.33 c 14.47,166.38 113.68,211.86 234.59,211.86 117.81,0 232.52,-42.37 232.52,-214.96 0,-134.34 -124.01,-238.72 -233.55,-348.26 l -45.47,-45.47 h 284.19 v -125.05 h -475.38 v 125.05 l 89.91,90.93 c 103.34,104.38 223.22,225.29 223.22,311.07 0,43.4 -22.73,78.54 -69.24,78.54"
         style="fill:#f68223;fill-opacity:1;fill-rule:nonzero;stroke:none"
         transform="matrix(0.13333333,0,0,-0.13333333,0,423.90667)" />
      <path
         id="path34"
         d="m 4769.25,1712.24 v 452.64 h 161.21 v -452.64 h 72.34 v -125.05 h -72.34 v -145.71 h -161.21 v 145.71 H 4451.99 L 4576,2088.4 h 143.64 l -76.47,-376.16 h 126.08"
         style="fill:#f68223;fill-opacity:1;fill-rule:nonzero;stroke:none"
         transform="matrix(0.13333333,0,0,-0.13333333,0,423.90667)" />
    </g>
  </g>
</svg>
