<?xml version="1.0" encoding="UTF-8" standalone="no"?>
<!-- Created with Inkscape (http://www.inkscape.org/) -->

<svg
   version="1.1"
   id="svg1"
   width="377.94666"
   height="191.97333"
   viewBox="0 0 377.94666 191.97333"
   sodipodi:docname="tradgardsstjans.eps"
   xmlns:inkscape="http://www.inkscape.org/namespaces/inkscape"
   xmlns:sodipodi="http://sodipodi.sourceforge.net/DTD/sodipodi-0.dtd"
   xmlns="http://www.w3.org/2000/svg"
   xmlns:svg="http://www.w3.org/2000/svg">
  <defs
     id="defs1" />
  <sodipodi:namedview
     id="namedview1"
     pagecolor="#ffffff"
     bordercolor="#000000"
     borderopacity="0.25"
     inkscape:showpageshadow="2"
     inkscape:pageopacity="0.0"
     inkscape:pagecheckerboard="0"
     inkscape:deskcolor="#d1d1d1">
    <inkscape:page
       x="0"
       y="0"
       inkscape:label="1"
       id="page1"
       width="377.94666"
       height="191.97333"
       margin="0"
       bleed="0" />
  </sodipodi:namedview>
  <g
     id="g1"
     inkscape:groupmode="layer"
     inkscape:label="1">
    <g
       id="group-R5">
      <path
         id="path2"
         d="M 67.5313,281.09 V 470.055 H 3.07813 v 28.547 H 161.43 V 470.055 H 96.9648 V 281.09 H 67.5313"
         style="fill:#77ca2f;fill-opacity:1;fill-rule:nonzero;stroke:none"
         transform="matrix(0.13333333,0,0,-0.13333333,0,191.97333)" />
      <path
         id="path3"
         d="m 267.094,470.641 h -44.739 v -73.582 h 38.848 c 14.133,0 24.973,3.429 32.531,10.3 7.547,6.871 11.329,15.789 11.329,26.782 0,10.789 -3.34,19.574 -10.012,26.347 -6.668,6.766 -15.996,10.153 -27.957,10.153 z m 78,-189.551 h -36.203 l -56.512,88.301 H 222.355 V 281.09 h -29.429 v 217.512 h 73.875 c 21.777,0 38.554,-6.473 50.332,-19.426 11.961,-12.559 17.949,-27.668 17.949,-45.324 0,-14.711 -4.465,-27.864 -13.391,-39.442 -8.933,-11.582 -21.336,-19.129 -37.234,-22.66 l 60.637,-90.66"
         style="fill:#77ca2f;fill-opacity:1;fill-rule:nonzero;stroke:none"
         transform="matrix(0.13333333,0,0,-0.13333333,0,191.97333)" />
      <path
         id="path4"
         d="m 479.887,518.32 c -5.293,0 -9.707,1.766 -13.242,5.297 -3.536,3.535 -5.293,7.949 -5.293,13.246 0,4.903 1.804,9.075 5.441,12.512 3.633,3.426 7.996,5.152 13.094,5.152 5.105,0 9.375,-1.726 12.801,-5.152 3.441,-3.437 5.156,-7.609 5.156,-12.512 0,-5.297 -1.715,-9.711 -5.156,-13.246 -3.426,-3.531 -7.696,-5.297 -12.801,-5.297 z m 4.715,-153.05 -31.2,82.117 -31.496,-82.117 z m -57.391,153.05 c -5.305,0 -9.766,1.766 -13.398,5.297 -3.633,3.535 -5.442,7.949 -5.442,13.246 0,4.903 1.809,9.075 5.442,12.512 3.632,3.426 8.093,5.152 13.398,5.152 4.902,0 9.07,-1.726 12.5,-5.152 3.437,-3.437 5.156,-7.609 5.156,-12.512 0,-5.297 -1.719,-9.711 -5.156,-13.246 -3.43,-3.531 -7.598,-5.297 -12.5,-5.297 z M 548.762,281.09 h -32.078 l -22.082,56.512 h -82.704 l -22.07,-56.512 h -32.082 l 88,217.512 h 15.899 L 548.762,281.09"
         style="fill:#77ca2f;fill-opacity:1;fill-rule:nonzero;stroke:none"
         transform="matrix(0.13333333,0,0,-0.13333333,0,191.97333)" />
      <path
         id="path5"
         d="m 609.387,470.641 v -161.59 h 49.738 c 22.176,0 39.637,7.558 52.391,22.668 12.558,15.109 18.839,34.633 18.839,58.57 0,23.551 -6.281,42.77 -18.839,57.688 -12.754,15.109 -30.215,22.664 -52.391,22.664 z M 657.953,281.09 h -78 v 217.512 h 80.938 c 30.8,0 55.136,-9.813 73,-29.434 18.047,-19.824 27.078,-46.406 27.078,-79.77 0,-33.546 -9.227,-59.937 -27.672,-79.168 -18.246,-19.421 -43.363,-29.14 -75.344,-29.14"
         style="fill:#77ca2f;fill-opacity:1;fill-rule:nonzero;stroke:none"
         transform="matrix(0.13333333,0,0,-0.13333333,0,191.97333)" />
      <path
         id="path6"
         d="m 900.473,277.859 c -31.985,0 -58.575,10.59 -79.766,31.782 -20.996,21.39 -31.492,48.07 -31.492,80.058 0,32.571 10.984,59.457 32.965,80.649 21.972,21.386 48.664,32.078 80.058,32.078 18.047,0 35.168,-3.633 51.36,-10.887 16.191,-7.262 29.289,-16.973 39.297,-29.141 l -20.899,-19.132 c -18.254,20.406 -41.406,30.609 -69.465,30.609 -23.347,0 -43.172,-7.941 -59.453,-23.836 -15.898,-15.898 -23.836,-36.109 -23.836,-60.641 0,-23.937 7.938,-43.847 23.836,-59.738 16.086,-15.711 35.617,-23.551 58.574,-23.551 12.746,0 25.317,2.75 37.668,8.243 12.364,5.488 23.059,12.949 32.09,22.367 v 43.269 h -72.707 v 27.071 H 999.074 V 323.77 c -26.492,-30.61 -59.363,-45.911 -98.601,-45.911"
         style="fill:#77ca2f;fill-opacity:1;fill-rule:nonzero;stroke:none"
         transform="matrix(0.13333333,0,0,-0.13333333,0,191.97333)" />
      <path
         id="path7"
         d="m 1109.15,560.117 c -4.51,0 -8.34,-1.476 -11.47,-4.414 -3.15,-2.945 -4.71,-6.578 -4.71,-10.894 0,-4.707 1.56,-8.633 4.71,-11.774 3.13,-3.137 6.96,-4.707 11.47,-4.707 4.32,0 8,1.57 11.05,4.707 3.04,3.141 4.56,7.067 4.56,11.774 0,4.121 -1.57,7.699 -4.71,10.746 -3.14,3.039 -6.77,4.562 -10.9,4.562 z m 30.03,-194.847 -31.2,82.117 -31.49,-82.117 z m -30.03,145.691 c -9.81,0 -18.04,3.187 -24.71,9.566 -6.68,6.375 -10.01,14.278 -10.01,23.696 0,9.218 3.33,17.07 10.01,23.547 6.67,6.472 14.9,9.71 24.71,9.71 9.62,0 17.67,-3.238 24.14,-9.71 6.67,-6.477 10.01,-14.329 10.01,-23.547 0,-9.418 -3.29,-17.321 -9.86,-23.696 -6.57,-6.379 -14.67,-9.566 -24.29,-9.566 z m 94.19,-229.871 h -32.08 l -22.08,56.512 h -82.7 l -22.07,-56.512 h -32.08 l 88,217.512 h 15.89 l 87.12,-217.512"
         style="fill:#77ca2f;fill-opacity:1;fill-rule:nonzero;stroke:none"
         transform="matrix(0.13333333,0,0,-0.13333333,0,191.97333)" />
      <path
         id="path8"
         d="m 1308.71,470.641 h -44.73 v -73.582 h 38.85 c 14.13,0 24.97,3.429 32.53,10.3 7.54,6.871 11.32,15.789 11.32,26.782 0,10.789 -3.34,19.574 -10.01,26.347 -6.67,6.766 -15.99,10.153 -27.96,10.153 z m 78,-189.551 h -36.2 L 1294,369.391 h -30.02 V 281.09 h -29.44 v 217.512 h 73.88 c 21.78,0 38.56,-6.473 50.33,-19.426 11.97,-12.559 17.95,-27.668 17.95,-45.324 0,-14.711 -4.46,-27.864 -13.39,-39.442 -8.93,-11.582 -21.33,-19.129 -37.23,-22.66 l 60.63,-90.66"
         style="fill:#77ca2f;fill-opacity:1;fill-rule:nonzero;stroke:none"
         transform="matrix(0.13333333,0,0,-0.13333333,0,191.97333)" />
      <path
         id="path9"
         d="m 1452.64,470.641 v -161.59 h 49.74 c 22.17,0 39.64,7.558 52.39,22.668 12.56,15.109 18.84,34.633 18.84,58.57 0,23.551 -6.28,42.77 -18.84,57.688 -12.75,15.109 -30.22,22.664 -52.39,22.664 z M 1501.2,281.09 h -77.99 v 217.512 h 80.93 c 30.81,0 55.14,-9.813 73,-29.434 18.05,-19.824 27.08,-46.406 27.08,-79.77 0,-33.546 -9.23,-59.937 -27.67,-79.168 -18.25,-19.421 -43.36,-29.14 -75.35,-29.14"
         style="fill:#77ca2f;fill-opacity:1;fill-rule:nonzero;stroke:none"
         transform="matrix(0.13333333,0,0,-0.13333333,0,191.97333)" />
      <path
         id="path10"
         d="m 1699.57,277.559 c -16.09,0 -30.76,3.882 -44,11.632 -13.24,7.75 -23.3,18.778 -30.17,33.11 l 21.78,17.949 c 11.78,-23.148 29.14,-34.73 52.1,-34.73 12.16,0 21.88,3.14 29.13,9.421 7.27,6.278 10.9,14.129 10.9,23.547 0,11.571 -7.56,21.684 -22.67,30.313 -2.75,1.379 -10.2,4.91 -22.37,10.597 -10,4.512 -18.14,8.633 -24.42,12.364 -21.79,13.726 -32.68,31 -32.68,51.801 0,16.675 5.99,30.613 17.96,41.792 11.96,11.379 27.86,17.071 47.68,17.071 27.08,0 48.37,-10.692 63.87,-32.078 l -19.72,-18.84 c -11.77,15.5 -26.39,23.254 -43.86,23.254 -10,0 -18.24,-2.703 -24.72,-8.098 -6.47,-5.394 -9.71,-12.504 -9.71,-21.336 0,-11.387 6.18,-20.707 18.54,-27.957 5.1,-3.141 13.54,-7.461 25.31,-12.949 12.37,-5.891 21.49,-10.5 27.38,-13.832 20.99,-12.762 31.49,-29.641 31.49,-50.629 0,-18.652 -6.87,-33.66 -20.61,-45.031 -13.74,-11.578 -30.81,-17.371 -51.21,-17.371"
         style="fill:#77ca2f;fill-opacity:1;fill-rule:nonzero;stroke:none"
         transform="matrix(0.13333333,0,0,-0.13333333,0,191.97333)" />
      <path
         id="path11"
         d="m 1849.68,281.09 v 188.965 h -64.45 v 28.547 h 158.35 v -28.547 h -64.47 V 281.09 h -29.43"
         style="fill:#77ca2f;fill-opacity:1;fill-rule:nonzero;stroke:none"
         transform="matrix(0.13333333,0,0,-0.13333333,0,191.97333)" />
      <path
         id="path12"
         d="m 1983.9,277.559 c -25.31,0 -46.11,9.32 -62.39,27.961 l 17.95,21.492 c 11.77,-14.321 26.59,-21.492 44.44,-21.492 13.14,0 23.64,4.171 31.49,12.511 7.86,8.34 11.78,20.059 11.78,35.168 v 145.403 h 29.44 V 351.73 c 0,-23.539 -6.78,-41.789 -20.32,-54.742 -13.14,-12.949 -30.6,-19.429 -52.39,-19.429"
         style="fill:#77ca2f;fill-opacity:1;fill-rule:nonzero;stroke:none"
         transform="matrix(0.13333333,0,0,-0.13333333,0,191.97333)" />
      <path
         id="path13"
         d="m 2203.17,518.32 c -5.3,0 -9.71,1.766 -13.24,5.297 -3.54,3.535 -5.3,7.949 -5.3,13.246 0,4.903 1.81,9.075 5.44,12.512 3.63,3.426 8,5.152 13.1,5.152 5.11,0 9.37,-1.726 12.8,-5.152 3.44,-3.437 5.16,-7.609 5.16,-12.512 0,-5.297 -1.72,-9.711 -5.16,-13.246 -3.43,-3.531 -7.69,-5.297 -12.8,-5.297 z m 4.71,-153.05 -31.2,82.117 -31.49,-82.117 z m -57.39,153.05 c -5.3,0 -9.76,1.766 -13.4,5.297 -3.63,3.535 -5.44,7.949 -5.44,13.246 0,4.903 1.81,9.075 5.44,12.512 3.64,3.426 8.1,5.152 13.4,5.152 4.9,0 9.07,-1.726 12.5,-5.152 3.44,-3.437 5.16,-7.609 5.16,-12.512 0,-5.297 -1.72,-9.711 -5.16,-13.246 -3.43,-3.531 -7.6,-5.297 -12.5,-5.297 z m 121.55,-237.23 h -32.08 l -22.08,56.512 h -82.7 l -22.07,-56.512 h -32.08 l 88,217.512 h 15.9 l 87.11,-217.512"
         style="fill:#77ca2f;fill-opacity:1;fill-rule:nonzero;stroke:none"
         transform="matrix(0.13333333,0,0,-0.13333333,0,191.97333)" />
      <path
         id="path14"
         d="m 2448.94,343.488 v 155.114 h 29.14 V 281.09 h -15.31 L 2332.39,435.32 V 281.09 h -29.14 v 217.512 h 13.24 l 132.45,-155.114"
         style="fill:#77ca2f;fill-opacity:1;fill-rule:nonzero;stroke:none"
         transform="matrix(0.13333333,0,0,-0.13333333,0,191.97333)" />
      <path
         id="path15"
         d="m 2587.56,277.559 c -16.09,0 -30.76,3.882 -44,11.632 -13.24,7.75 -23.3,18.778 -30.17,33.11 l 21.78,17.949 c 11.78,-23.148 29.14,-34.73 52.1,-34.73 12.16,0 21.87,3.14 29.13,9.421 7.27,6.278 10.9,14.129 10.9,23.547 0,11.571 -7.56,21.684 -22.67,30.313 -2.75,1.379 -10.2,4.91 -22.37,10.597 -10,4.512 -18.15,8.633 -24.42,12.364 -21.79,13.726 -32.68,31 -32.68,51.801 0,16.675 5.99,30.613 17.96,41.792 11.96,11.379 27.86,17.071 47.67,17.071 27.08,0 48.37,-10.692 63.88,-32.078 l -19.72,-18.84 c -11.77,15.5 -26.39,23.254 -43.86,23.254 -10,0 -18.24,-2.703 -24.72,-8.098 -6.47,-5.394 -9.72,-12.504 -9.72,-21.336 0,-11.387 6.19,-20.707 18.55,-27.957 5.1,-3.141 13.53,-7.461 25.31,-12.949 12.36,-5.891 21.49,-10.5 27.37,-13.832 21,-12.762 31.5,-29.641 31.5,-50.629 0,-18.652 -6.88,-33.66 -20.61,-45.031 -13.74,-11.578 -30.81,-17.371 -51.21,-17.371"
         style="fill:#77ca2f;fill-opacity:1;fill-rule:nonzero;stroke:none"
         transform="matrix(0.13333333,0,0,-0.13333333,0,191.97333)" />
      <path
         id="path16"
         d="m 2737.67,281.09 v 188.965 h -64.45 v 28.547 h 158.35 V 470.055 H 2767.1 V 281.09 h -29.43"
         style="fill:#77ca2f;fill-opacity:1;fill-rule:nonzero;stroke:none"
         transform="matrix(0.13333333,0,0,-0.13333333,0,191.97333)" />
      <path
         id="path17"
         d="M 610.148,2.53906 V 159.109 h 12.93 V 2.53906 h -12.93"
         style="fill:#77ca2f;fill-opacity:1;fill-rule:nonzero;stroke:none"
         transform="matrix(0.13333333,0,0,-0.13333333,0,191.97333)" />
      <path
         id="path18"
         d="m 787.473,0.210938 c -23.164,0 -42.223,7.628902 -57.196,22.890662 -15.117,15.3867 -22.675,34.5898 -22.675,57.6172 0,23.4412 7.91,42.8012 23.73,58.0512 15.82,15.39 34.961,23.089 57.41,23.089 12.852,0 25.219,-2.679 37.082,-8.05 11.864,-5.368 21.262,-12.36 28.176,-20.969 l -9.32,-8.481 c -6.356,7.77 -14.508,13.879 -24.469,18.332 -9.961,4.45 -20.441,6.668 -31.469,6.668 -19.207,0 -35.379,-6.558 -48.515,-19.699 -12.989,-13 -19.493,-29.308 -19.493,-48.9412 0,-19.629 6.36,-35.9493 19.075,-48.9375 C 752.523,18.9297 768.48,12.5 787.688,12.5 c 22.031,0 41.457,8.6094 58.261,25.8516 V 75 h -62.5 v 12.0703 h 75 V 33.4805 C 839.242,11.3008 815.578,0.210938 787.473,0.210938"
         style="fill:#77ca2f;fill-opacity:1;fill-rule:nonzero;stroke:none"
         transform="matrix(0.13333333,0,0,-0.13333333,0,191.97333)" />
      <path
         id="path19"
         d="m 980.688,173.941 c -3.106,0 -5.723,1.059 -7.844,3.18 -2.117,2.109 -3.172,4.801 -3.172,8.051 0,2.957 1.055,5.5 3.172,7.617 2.121,2.121 4.738,3.18 7.844,3.18 3.105,0 5.75,-1.059 7.941,-3.18 2.184,-2.117 3.289,-4.66 3.289,-7.617 0,-3.113 -1.066,-5.762 -3.184,-7.953 -2.121,-2.188 -4.804,-3.278 -8.046,-3.278 z m -48.309,11.231 c 0,2.816 1.09,5.328 3.289,7.519 2.187,2.188 4.766,3.278 7.734,3.278 3.106,0 5.711,-1.059 7.832,-3.18 2.118,-2.117 3.184,-4.66 3.184,-7.617 0,-3.25 -1.066,-5.942 -3.184,-8.051 -2.121,-2.121 -4.726,-3.18 -7.832,-3.18 -3.117,0 -5.722,1.09 -7.843,3.278 -2.118,2.191 -3.18,4.84 -3.18,7.953 z M 961.41,12.5 c 18.926,0 34.813,6.5703 47.67,19.6992 12.98,13.4219 19.49,29.5899 19.49,48.5196 0,19.0703 -6.51,35.3122 -19.49,48.7302 -12.857,13.27 -28.744,19.91 -47.67,19.91 -18.789,0 -34.746,-6.711 -47.883,-20.121 -12.996,-13.429 -19.492,-29.5974 -19.492,-48.5192 0,-18.9297 6.496,-35.0977 19.492,-48.5196 C 926.516,19.0703 942.473,12.5 961.41,12.5 Z M 960.98,0 c -22.312,0 -41.242,7.83984 -56.777,23.5195 -15.535,15.8203 -23.301,34.8086 -23.301,56.9922 0,22.3083 7.832,41.4493 23.516,57.4103 15.676,15.957 34.668,23.937 56.992,23.937 22.168,0 41.09,-7.91 56.78,-23.73 15.81,-15.82 23.73,-34.879 23.73,-57.1993 0,-22.3203 -7.92,-41.3789 -23.73,-57.1992 C 1002.5,7.91016 983.441,0 960.98,0"
         style="fill:#77ca2f;fill-opacity:1;fill-rule:nonzero;stroke:none"
         transform="matrix(0.13333333,0,0,-0.13333333,0,191.97333)" />
      <path
         id="path20"
         d="M 1094.03,2.53906 V 146.609 h -47.46 v 12.5 h 107.84 v -12.5 h -47.46 V 2.53906 h -12.92"
         style="fill:#77ca2f;fill-opacity:1;fill-rule:nonzero;stroke:none"
         transform="matrix(0.13333333,0,0,-0.13333333,0,191.97333)" />
      <path
         id="path21"
         d="m 1273.69,2.53906 h -94.71 V 159.109 h 94.28 V 146.82 h -81.35 V 87.9219 h 75.84 V 75.8516 h -75.84 V 14.8281 h 81.78 V 2.53906"
         style="fill:#77ca2f;fill-opacity:1;fill-rule:nonzero;stroke:none"
         transform="matrix(0.13333333,0,0,-0.13333333,0,191.97333)" />
      <path
         id="path22"
         d="m 1319.24,14.8281 h 44.48 c 11.02,0 19.99,3.1016 26.92,9.3203 6.91,6.3633 10.38,14.2032 10.38,23.5235 0,9.3164 -3.47,17.0195 -10.38,23.0898 -7.07,6.2188 -16.11,9.3164 -27.12,9.3164 h -44.28 z M 1361.4,146.82 h -42.16 V 92.3711 h 44.48 c 8.48,0 15.47,2.6797 20.98,8.0509 5.51,5.367 8.26,11.937 8.26,19.707 0,7.91 -2.79,14.332 -8.37,19.269 -5.57,4.954 -13.31,7.422 -23.19,7.422 z m 22.45,-59.5309 c 9.46,-2.5391 16.92,-7.5196 22.35,-14.9375 5.44,-7.4102 8.16,-15.8633 8.16,-25.3125 0,-12.1485 -4.31,-22.6094 -12.92,-31.3594 -8.76,-8.75782 -20.98,-13.14064 -36.65,-13.14064 h -58.48 V 159.109 h 56.36 c 13.98,0 24.65,-3.89 31.99,-11.648 7.63,-7.633 11.44,-16.742 11.44,-27.332 0,-7.629 -2.01,-14.449 -6.04,-20.4493 -4.02,-6 -9.42,-10.1289 -16.21,-12.3906"
         style="fill:#77ca2f;fill-opacity:1;fill-rule:nonzero;stroke:none"
         transform="matrix(0.13333333,0,0,-0.13333333,0,191.97333)" />
      <path
         id="path23"
         d="m 1516.06,12.5 c 18.92,0 34.81,6.5703 47.66,19.6992 12.99,13.4219 19.5,29.5899 19.5,48.5196 0,19.0703 -6.51,35.3122 -19.5,48.7302 -12.85,13.27 -28.74,19.91 -47.66,19.91 -18.79,0 -34.75,-6.711 -47.88,-20.121 -13,-13.429 -19.49,-29.5974 -19.49,-48.5192 0,-18.9297 6.49,-35.0977 19.49,-48.5196 C 1481.17,19.0703 1497.12,12.5 1516.06,12.5 Z M 1515.63,0 c -22.32,0 -41.24,7.83984 -56.78,23.5195 -15.54,15.8203 -23.3,34.8086 -23.3,56.9922 0,22.3083 7.83,41.4493 23.52,57.4103 15.67,15.957 34.66,23.937 56.99,23.937 22.17,0 41.09,-7.91 56.78,-23.73 15.81,-15.82 23.73,-34.879 23.73,-57.1993 0,-22.3203 -7.92,-41.3789 -23.73,-57.1992 C 1557.15,7.91016 1538.09,0 1515.63,0"
         style="fill:#77ca2f;fill-opacity:1;fill-rule:nonzero;stroke:none"
         transform="matrix(0.13333333,0,0,-0.13333333,0,191.97333)" />
      <path
         id="path24"
         d="m 1676.01,146.82 h -34.53 V 80.9297 h 31.35 c 12.43,0 22.07,3.0391 28.92,9.1094 6.85,6.0703 10.28,14.1209 10.28,24.1519 0,9.75 -3.26,17.618 -9.75,23.629 -6.5,6 -15.25,9 -26.27,9 z M 1728.55,2.53906 h -15.68 l -40.04,66.10154 h -31.35 V 2.53906 h -12.93 V 159.109 h 47.24 c 15.96,0 28.18,-4.531 36.66,-13.558 8.61,-8.762 12.92,-19.352 12.92,-31.781 0,-10.59 -3.39,-19.9887 -10.17,-28.1802 -6.5,-8.0507 -16.03,-13.2812 -28.6,-15.6679 l 41.95,-67.38284"
         style="fill:#77ca2f;fill-opacity:1;fill-rule:nonzero;stroke:none"
         transform="matrix(0.13333333,0,0,-0.13333333,0,191.97333)" />
      <path
         id="path25"
         d="m 1827.69,0.210938 c -23.16,0 -42.23,7.628902 -57.2,22.890662 -15.12,15.3867 -22.67,34.5898 -22.67,57.6172 0,23.4412 7.91,42.8012 23.73,58.0512 15.82,15.39 34.96,23.089 57.41,23.089 12.85,0 25.21,-2.679 37.08,-8.05 11.86,-5.368 21.26,-12.36 28.17,-20.969 l -9.31,-8.481 c -6.36,7.77 -14.52,13.879 -24.48,18.332 -9.96,4.45 -20.44,6.668 -31.46,6.668 -19.21,0 -35.38,-6.558 -48.52,-19.699 -12.99,-13 -19.49,-29.308 -19.49,-48.9412 0,-19.629 6.36,-35.9493 19.07,-48.9375 C 1792.74,18.9297 1808.7,12.5 1827.9,12.5 c 22.04,0 41.46,8.6094 58.27,25.8516 V 75 h -62.5 v 12.0703 h 75 V 33.4805 C 1879.46,11.3008 1855.79,0.210938 1827.69,0.210938"
         style="fill:#77ca2f;fill-opacity:1;fill-rule:nonzero;stroke:none"
         transform="matrix(0.13333333,0,0,-0.13333333,0,191.97333)" />
      <path
         id="path26"
         d="m 2054.59,62.0703 -28.6,73.9497 -28.81,-73.9497 z m 37.08,-59.53124 h -14.2 L 2058.83,50 h -65.89 L 1974.3,2.53906 h -14.2 l 62.5,156.56994 h 6.99 L 2091.67,2.53906"
         style="fill:#77ca2f;fill-opacity:1;fill-rule:nonzero;stroke:none"
         transform="matrix(0.13333333,0,0,-0.13333333,0,191.97333)" />
      <path
         id="path27"
         d="m 2129.38,14.8281 h 44.48 c 11.02,0 19.99,3.1016 26.92,9.3203 6.91,6.3633 10.38,14.2032 10.38,23.5235 0,9.3164 -3.47,17.0195 -10.38,23.0898 -7.08,6.2188 -16.11,9.3164 -27.12,9.3164 h -44.28 z m 42.16,131.9919 h -42.16 V 92.3711 h 44.48 c 8.48,0 15.47,2.6797 20.98,8.0509 5.51,5.367 8.26,11.937 8.26,19.707 0,7.91 -2.79,14.332 -8.37,19.269 -5.58,4.954 -13.31,7.422 -23.19,7.422 z m 22.45,-59.5309 c 9.46,-2.5391 16.91,-7.5196 22.35,-14.9375 5.44,-7.4102 8.16,-15.8633 8.16,-25.3125 0,-12.1485 -4.31,-22.6094 -12.92,-31.3594 -8.76,-8.75782 -20.98,-13.14064 -36.65,-13.14064 h -58.48 V 159.109 h 56.36 c 13.98,0 24.64,-3.89 31.99,-11.648 7.63,-7.633 11.43,-16.742 11.43,-27.332 0,-7.629 -2.01,-14.449 -6.03,-20.4493 -4.02,-6 -9.42,-10.1289 -16.21,-12.3906"
         style="fill:#77ca2f;fill-opacity:1;fill-rule:nonzero;stroke:none"
         transform="matrix(0.13333333,0,0,-0.13333333,0,191.97333)" />
      <path
         id="path28"
         d="m 999.957,1388.55 c 1.943,-9.21 3.193,-16.49 5.023,-23.63 10.71,-41.78 28.53,-80.87 45.83,-120.12 22.55,-51.18 46.53,-101.75 68.05,-153.36 16.05,-38.49 24.85,-79.14 24.22,-121.174 -0.59,-39.094 -11.01,-75.442 -32.37,-108.559 -14.78,-22.926 -33.28,-42.312 -54.13,-59.644 -0.88,-0.739 -1.85,-1.407 -2.88,-1.922 -0.74,-0.371 -1.63,-0.438 -3.98,-1.016 -37.45,71.934 -48.63,149.688 -50.646,229.645 -7.691,-39.805 -8.511,-79.618 -2.633,-119.606 5.829,-39.641 16.889,-77.805 33.259,-114.508 -0.68,-0.465 -1.35,-0.929 -2.02,-1.39 -3.16,2.257 -6.43,4.367 -9.45,6.797 -41.949,33.703 -69.46,77.335 -86.894,127.64 -19.133,55.192 -23.078,112.067 -18.098,169.937 6.141,71.39 24.18,139.83 50.364,206.25 9.992,25.34 20.992,50.29 31.589,75.39 1.086,2.58 2.551,5 4.766,9.27"
         style="fill:#77ca2f;fill-opacity:1;fill-rule:nonzero;stroke:none"
         transform="matrix(0.13333333,0,0,-0.13333333,0,191.97333)" />
      <path
         id="path29"
         d="m 1483.51,1434 c -30.39,-17.61 -61.09,-34.73 -91.05,-53.05 -78.53,-48.01 -150.24,-104.43 -212,-173.11 -18.12,-20.16 -34.88,-41.12 -50.06,-63.01 4.73,-10.88 9.47,-21.76 14.04,-32.72 12.15,-29.14 20.43,-59.43 24.28,-90.54 14.23,17.23 29.7,33.51 46.58,48.72 -15.85,-22.14 -30.89,-44.63 -44.81,-67.62 0.51,-8.107 0.83,-16.252 0.71,-24.463 -0.65,-43.199 -12.16,-83.367 -35.77,-119.965 -12.53,-19.437 -27.52,-36.543 -44.21,-52.121 -0.73,-3.816 -1.51,-7.613 -2.16,-11.473 2.87,-1.234 3.84,-1.859 4.89,-2.05 1.45,-0.262 2.97,-0.328 4.45,-0.258 34.92,1.644 69.01,7.23 102.03,19.336 47.7,17.492 86.65,46.804 117.62,86.578 33.29,42.769 55.81,91.43 69.19,143.496 17.93,69.82 32.53,140.49 49.07,210.67 12.68,53.83 24.7,107.9 46.13,159.19 3.66,8.77 8.03,17.25 13.18,28.23 -5.6,-2.68 -8.98,-4.04 -12.11,-5.84"
         style="fill:#41b93c;fill-opacity:1;fill-rule:nonzero;stroke:none"
         transform="matrix(0.13333333,0,0,-0.13333333,0,191.97333)" />
      <path
         id="path30"
         d="m 2010.89,1261.15 c -82.63,1.44 -165.15,0.52 -247.48,-8.2 -86.87,-9.2 -172.33,-24.9 -255.35,-52.52 -22.54,-7.5 -44.61,-15.76 -66.2,-24.83 -9.14,-49.07 -18.22,-98.16 -28.88,-146.8 -1.79,-8.18 -3.88,-16.24 -6.11,-24.24 20.75,6.68 41.98,12.56 63.83,17.37 -23.05,-9.76 -45.69,-20.11 -67.9,-31.063 -12.95,-40.82 -32,-78.894 -58.1,-112.945 -31.65,-41.293 -72.4,-71 -123.13,-87.633 -29.38,-9.629 -59.78,-14.277 -90.97,-15.672 2.31,-1.375 4.39,-2.566 6.54,-3.535 19.08,-8.578 37.85,-18.035 57.44,-25.227 66.77,-24.511 135.05,-31.156 205,-15.441 72.2,16.219 133.6,53.047 190.09,99.184 54.34,44.382 101.17,96.351 147.59,148.593 63.05,70.949 125.77,142.179 194.36,207.909 27.26,26.12 54.9,51.9 88.51,70.08 1.02,0.55 1.54,2 3.24,4.31 -5.23,0.28 -8.85,0.6 -12.48,0.66"
         style="fill:#1e6636;fill-opacity:1;fill-rule:nonzero;stroke:none"
         transform="matrix(0.13333333,0,0,-0.13333333,0,191.97333)" />
      <path
         id="path31"
         d="M 2834.65,636.137 H 0 v -19.844 h 2834.65 v 19.844"
         style="fill:#41b93c;fill-opacity:1;fill-rule:nonzero;stroke:none"
         transform="matrix(0.13333333,0,0,-0.13333333,0,191.97333)" />
      <path
         id="path32"
         d="M 2338.8,86.3984 V 66.5586 h 495.85 V 86.3984 H 2338.8"
         style="fill:#41b93c;fill-opacity:1;fill-rule:nonzero;stroke:none"
         transform="matrix(0.13333333,0,0,-0.13333333,0,191.97333)" />
      <path
         id="path33"
         d="M 495.84,86.3984 H 0 V 66.5586 h 495.84 v 19.8398"
         style="fill:#41b93c;fill-opacity:1;fill-rule:nonzero;stroke:none"
         transform="matrix(0.13333333,0,0,-0.13333333,0,191.97333)" />
    </g>
  </g>
</svg>
