<?xml version="1.0" encoding="UTF-8" standalone="no"?>
<!-- Created with Inkscape (http://www.inkscape.org/) -->

<svg
   version="1.1"
   id="svg1"
   width="340.16"
   height="340.16"
   viewBox="0 0 340.16 340.16"
   sodipodi:docname="billdals-el.eps"
   xmlns:inkscape="http://www.inkscape.org/namespaces/inkscape"
   xmlns:sodipodi="http://sodipodi.sourceforge.net/DTD/sodipodi-0.dtd"
   xmlns="http://www.w3.org/2000/svg"
   xmlns:svg="http://www.w3.org/2000/svg">
  <defs
     id="defs1" />
  <sodipodi:namedview
     id="namedview1"
     pagecolor="#ffffff"
     bordercolor="#000000"
     borderopacity="0.25"
     inkscape:showpageshadow="2"
     inkscape:pageopacity="0.0"
     inkscape:pagecheckerboard="0"
     inkscape:deskcolor="#d1d1d1">
    <inkscape:page
       x="0"
       y="0"
       inkscape:label="1"
       id="page1"
       width="340.16"
       height="340.16"
       margin="0"
       bleed="0" />
  </sodipodi:namedview>
  <g
     id="g1"
     inkscape:groupmode="layer"
     inkscape:label="1">
    <g
       id="group-R5">
      <path
         id="path2"
         d="m 354.613,1124.91 h -49.832 v 88.04 h 52.246 c 11.621,-7.25 20.321,-23.23 20.321,-40.15 0,-20.81 -12.578,-40.64 -22.735,-47.89 z m -49.832,224.45 h 49.356 c 9.179,-7.25 19.832,-18.37 19.832,-40.15 0,-20.8 -9.688,-34.34 -21.289,-41.6 h -47.899 z m 141.258,-180.92 c 0,41.61 -21.766,64.82 -44.5,77.4 v 1.94 c 21.289,13.05 35.801,36.29 35.801,76.44 0,45.48 -33.867,73.52 -60.469,83.19 H 239 v -338.62 h 145.605 c 24.188,15.48 61.434,46.93 61.434,99.65"
         style="fill:#80868c;fill-opacity:1;fill-rule:nonzero;stroke:none"
         transform="matrix(0.13333333,0,0,-0.13333333,0,340.16)" />
      <path
         id="path3"
         d="m 547.602,1068.79 v 338.62 h -66.27 v -338.62 h 66.27"
         style="fill:#80868c;fill-opacity:1;fill-rule:nonzero;stroke:none"
         transform="matrix(0.13333333,0,0,-0.13333333,0,340.16)" />
      <path
         id="path4"
         d="m 594.039,1407.41 v -338.62 h 166.895 v 56.12 H 660.316 v 282.5 h -66.277"
         style="fill:#80868c;fill-opacity:1;fill-rule:nonzero;stroke:none"
         transform="matrix(0.13333333,0,0,-0.13333333,0,340.16)" />
      <path
         id="path5"
         d="m 793.805,1407.41 v -338.62 h 166.902 v 56.12 H 860.082 v 282.5 h -66.277"
         style="fill:#80868c;fill-opacity:1;fill-rule:nonzero;stroke:none"
         transform="matrix(0.13333333,0,0,-0.13333333,0,340.16)" />
      <path
         id="path6"
         d="m 1102.9,1124.91 h -43.52 v 224.45 h 44.49 c 20.32,-24.66 28.54,-71.11 28.54,-110.77 0,-40.64 -10.64,-90.45 -29.51,-113.68 z m -109.322,282.5 v -338.62 h 144.642 c 43.06,46.45 64.34,103.04 64.34,169.8 0,71.59 -20.8,126.27 -68.69,168.82 H 993.578"
         style="fill:#80868c;fill-opacity:1;fill-rule:nonzero;stroke:none"
         transform="matrix(0.13333333,0,0,-0.13333333,0,340.16)" />
      <path
         id="path7"
         d="m 1311.39,1231.82 18.87,112.72 h 0.97 l 18.86,-112.72 11.12,-57.58 h -60.47 z m -94.33,-163.03 h 65.79 l 10.15,53.7 h 76.44 l 10.16,-53.7 h 64.82 l -61.91,338.63 h -100.14 l -65.31,-338.63"
         style="fill:#80868c;fill-opacity:1;fill-rule:nonzero;stroke:none"
         transform="matrix(0.13333333,0,0,-0.13333333,0,340.16)" />
      <path
         id="path8"
         d="m 1472.46,1407.41 v -338.62 h 166.89 v 56.12 h -100.61 v 282.5 h -66.28"
         style="fill:#80868c;fill-opacity:1;fill-rule:nonzero;stroke:none"
         transform="matrix(0.13333333,0,0,-0.13333333,0,340.16)" />
      <path
         id="path9"
         d="m 1660.62,1124.91 v -56.12 h 128.19 c 17.43,12.08 32.42,35.79 32.42,71.59 0,18.38 -12.1,44.03 -23.7,64.83 l -77.41,141.26 1.45,2.89 h 92.89 v 58.05 h -116.11 c -33.37,-14.02 -42.07,-44.99 -42.07,-68.2 0,-15.96 7.73,-35.31 18.85,-55.14 l 87.07,-156.26 -1.44,-2.9 h -100.14"
         style="fill:#80868c;fill-opacity:1;fill-rule:nonzero;stroke:none"
         transform="matrix(0.13333333,0,0,-0.13333333,0,340.16)" />
      <path
         id="path10"
         d="m 2106.13,1349.36 v 58.05 h -173.67 v -338.62 h 175.6 v 56.12 h -109.32 v 87.55 h 95.78 v 56.13 h -95.78 v 80.77 h 107.39"
         style="fill:#80868c;fill-opacity:1;fill-rule:nonzero;stroke:none"
         transform="matrix(0.13333333,0,0,-0.13333333,0,340.16)" />
      <path
         id="path11"
         d="m 2211.57,1124.91 v 282.5 h -66.28 v -338.62 h 166.89 v 56.12 h -100.61"
         style="fill:#80868c;fill-opacity:1;fill-rule:nonzero;stroke:none"
         transform="matrix(0.13333333,0,0,-0.13333333,0,340.16)" />
      <path
         id="path12"
         d="M 1275.59,43.8789 C 595.336,43.8789 43.8828,595.328 43.8828,1275.61 c 0,680.25 551.4532,1231.69 1231.7072,1231.69 680.25,0 1231.71,-551.44 1231.71,-1231.69 C 2507.3,595.328 1955.84,43.8789 1275.59,43.8789 Z m 0,2507.3011 C 571.098,2551.18 0,1980.1 0,1275.61 0,571.109 571.098,0 1275.59,0 c 704.49,0 1275.59,571.109 1275.59,1275.61 0,704.49 -571.1,1275.57 -1275.59,1275.57"
         style="fill:#80868c;fill-opacity:1;fill-rule:nonzero;stroke:none"
         transform="matrix(0.13333333,0,0,-0.13333333,0,340.16)" />
      <path
         id="path13"
         d="m 1165.79,1943.86 h -74.77 v 37.73 h 67.8 v 24.68 h -67.8 v 44.22 h 74.77 v 25.6 h -102.6 v -157.83 h 102.6 v 25.6"
         style="fill:#80868c;fill-opacity:1;fill-rule:nonzero;stroke:none"
         transform="matrix(0.13333333,0,0,-0.13333333,0,340.16)" />
      <path
         id="path14"
         d="m 1265.93,1941.61 c -14.15,0 -29.85,5.39 -42.88,14.14 l -9.65,-25.14 c 14.37,-8.75 33,-15.04 51.63,-15.04 35.26,0 56.59,17.29 56.59,45.35 0,20.65 -10.11,34.57 -45.37,48.27 -22.21,8.08 -30.74,14.37 -30.74,24.46 0,11.01 7.64,20.22 24.24,20.22 12.12,0 26.05,-5.39 35.24,-10.55 l 8.99,24.69 c -10.11,5.84 -26.73,10.78 -43.57,10.78 -33.67,0 -52.97,-22.01 -52.97,-45.81 0,-18.85 10.54,-33.44 41.3,-44.68 28.51,-10.55 34.37,-16.83 34.37,-27.38 0,-10.11 -8.54,-19.31 -27.18,-19.31"
         style="fill:#80868c;fill-opacity:1;fill-rule:nonzero;stroke:none"
         transform="matrix(0.13333333,0,0,-0.13333333,0,340.16)" />
      <path
         id="path15"
         d="m 1408.07,1918.26 h 28.06 v 132.23 h 51.86 v 25.6 h -132.68 v -25.6 h 52.76 v -132.23"
         style="fill:#80868c;fill-opacity:1;fill-rule:nonzero;stroke:none"
         transform="matrix(0.13333333,0,0,-0.13333333,0,340.16)" />
      <path
         id="path16"
         d="M 2270.73,1692.93 H 280.465 v -41.47 H 2270.73 v 41.47"
         style="fill:#80868c;fill-opacity:1;fill-rule:nonzero;stroke:none"
         transform="matrix(0.13333333,0,0,-0.13333333,0,340.16)" />
      <path
         id="path17"
         d="M 280.465,788.441 H 2270.73 V 829.91 H 280.465 v -41.469"
         style="fill:#80868c;fill-opacity:1;fill-rule:nonzero;stroke:none"
         transform="matrix(0.13333333,0,0,-0.13333333,0,340.16)" />
      <path
         id="path18"
         d="m 1004.57,436.379 c 20.87,22.68 26.04,40.191 26.04,59.711 0,28.289 -19.75,50.07 -58.145,50.07 -30.985,0 -45.801,-13.469 -45.801,-13.469 l 9.883,-22.89 c 0,0 12.121,11.211 35.019,11.211 18.86,0 29.194,-11.891 29.194,-25.813 0,-13.687 -3.588,-27.168 -21.557,-48.269 -17.957,-21.782 -51.414,-46.692 -51.414,-46.692 v -14.597 h 106.641 v 25.589 h -59.492 c 0,0 20.867,15.489 29.632,25.149"
         style="fill:#80868c;fill-opacity:1;fill-rule:nonzero;stroke:none"
         transform="matrix(0.13333333,0,0,-0.13333333,0,340.16)" />
      <path
         id="path19"
         d="m 1165.34,407.422 c -30.53,0 -54.33,25.129 -54.33,56.789 0,32.348 23.14,56.801 54.33,56.801 31.66,0 54.33,-24.453 54.33,-56.801 0,-32.09 -23.81,-56.789 -54.33,-56.789 z m -0.22,138.75 c -47.38,0 -84.2,-35.922 -84.2,-81.512 0,-46.691 35.93,-81.719 84.2,-81.719 48.25,0 84.42,35.258 84.42,81.719 0,47.149 -35.47,81.512 -84.42,81.512"
         style="fill:#80868c;fill-opacity:1;fill-rule:nonzero;stroke:none"
         transform="matrix(0.13333333,0,0,-0.13333333,0,340.16)" />
      <path
         id="path20"
         d="m 1379.77,407.422 c -30.53,0 -54.33,25.129 -54.33,56.789 0,32.348 23.13,56.801 54.33,56.801 31.65,0 54.33,-24.453 54.33,-56.801 0,-32.09 -23.8,-56.789 -54.33,-56.789 z m -0.21,138.75 c -47.39,0 -84.2,-35.922 -84.2,-81.512 0,-46.691 35.92,-81.719 84.2,-81.719 48.25,0 84.41,35.258 84.41,81.719 0,47.149 -35.48,81.512 -84.41,81.512"
         style="fill:#80868c;fill-opacity:1;fill-rule:nonzero;stroke:none"
         transform="matrix(0.13333333,0,0,-0.13333333,0,340.16)" />
      <path
         id="path21"
         d="m 1607.9,500.141 h -27.85 v -55.68 h -41.31 l 28.3,92.961 -24.93,8.738 -35.46,-108.43 v -18.628 h 73.4 v -33.461 h 27.85 v 33.461 h 16.61 v 25.359 h -16.61 v 55.68"
         style="fill:#80868c;fill-opacity:1;fill-rule:nonzero;stroke:none"
         transform="matrix(0.13333333,0,0,-0.13333333,0,340.16)" />
    </g>
  </g>
</svg>
