<?xml version="1.0" encoding="UTF-8" standalone="no"?>
<!-- Created with Inkscape (http://www.inkscape.org/) -->

<svg
   version="1.1"
   id="svg1"
   width="302.35999"
   height="238.29333"
   viewBox="0 0 302.35999 238.29333"
   sodipodi:docname="brixton-bygg.eps"
   xmlns:inkscape="http://www.inkscape.org/namespaces/inkscape"
   xmlns:sodipodi="http://sodipodi.sourceforge.net/DTD/sodipodi-0.dtd"
   xmlns="http://www.w3.org/2000/svg"
   xmlns:svg="http://www.w3.org/2000/svg">
  <defs
     id="defs1" />
  <sodipodi:namedview
     id="namedview1"
     pagecolor="#ffffff"
     bordercolor="#000000"
     borderopacity="0.25"
     inkscape:showpageshadow="2"
     inkscape:pageopacity="0.0"
     inkscape:pagecheckerboard="0"
     inkscape:deskcolor="#d1d1d1">
    <inkscape:page
       x="0"
       y="0"
       inkscape:label="1"
       id="page1"
       width="302.35999"
       height="238.29333"
       margin="0"
       bleed="0" />
  </sodipodi:namedview>
  <g
     id="g1"
     inkscape:groupmode="layer"
     inkscape:label="1">
    <g
       id="group-R5">
      <path
         id="path2"
         d="m 116.98,68.8203 c 0,16.711 -11.136,30.4688 -35.7105,30.4688 H 38.9961 V 37.3594 h 42.2734 c 24.5745,0 35.7105,13.7617 35.7105,31.4609 z M 38.9961,192.031 v -59.64 h 37.0273 c 21.961,0 33.1016,12.781 33.1016,30.468 0,16.391 -11.1406,29.172 -34.082,29.172 z M 156.961,67.1719 C 156.961,31.7891 131.406,3.28125 83.5586,3.28125 H 0 V 226.109 h 78.9727 c 44.8903,0 69.8003,-27.199 69.8003,-59.648 0,-21.289 -9.179,-38.66 -25.89,-48.82 21.629,-9.832 34.078,-28.8402 34.078,-50.4691"
         style="fill:#fbc811;fill-opacity:1;fill-rule:nonzero;stroke:none"
         transform="matrix(0.13333333,0,0,-0.13333333,0,238.29333)" />
      <path
         id="path3"
         d="m 238.895,120.262 h 28.835 c 24.911,0 40.633,12.457 40.633,35.058 0,23.602 -16.379,35.719 -39.976,35.719 H 238.895 Z M 269.043,87.1719 H 238.895 V 3.28125 H 199.578 V 226.109 h 71.106 C 322.125,226.109 349,194.98 349,157.621 349,128.461 332.289,106.5 308.043,95.3594 L 376.527,3.28125 H 329.336 L 269.043,87.1719"
         style="fill:#fbc811;fill-opacity:1;fill-rule:nonzero;stroke:none"
         transform="matrix(0.13333333,0,0,-0.13333333,0,238.29333)" />
      <path
         id="path4"
         d="M 402.754,226.109 H 442.07 V 3.28125 H 402.754 V 226.109"
         style="fill:#fbc811;fill-opacity:1;fill-rule:nonzero;stroke:none"
         transform="matrix(0.13333333,0,0,-0.13333333,0,238.29333)" />
      <path
         id="path5"
         d="M 625.586,3.28125 572.172,85.5313 518.762,3.28125 H 473.867 L 548.902,115.68 474.523,226.109 h 45.219 l 53.738,-80.937 51.778,80.937 h 44.57 L 596.426,115.68 670.805,3.28125 h -45.219"
         style="fill:#fbc811;fill-opacity:1;fill-rule:nonzero;stroke:none"
         transform="matrix(0.13333333,0,0,-0.13333333,0,238.29333)" />
      <path
         id="path6"
         d="M 860.547,191.039 H 790.75 V 3.28125 H 751.426 V 191.039 h -70.125 v 35.07 h 179.246 v -35.07"
         style="fill:#fbc811;fill-opacity:1;fill-rule:nonzero;stroke:none"
         transform="matrix(0.13333333,0,0,-0.13333333,0,238.29333)" />
      <path
         id="path7"
         d="m 1058.48,114.691 c 0,49.809 -34.41,78.969 -72.75,78.969 -38.335,0 -73.402,-29.16 -73.402,-78.969 0,-49.8004 35.067,-78.9722 73.402,-78.9722 38.34,0 72.75,29.1718 72.75,78.9722 z m -186.785,0 c 0,66.2 50.465,114.688 114.035,114.688 63.57,0 113.71,-48.488 113.71,-114.688 C 1099.44,47.8398 1049.3,0 985.73,0 922.16,0 871.695,47.8398 871.695,114.691"
         style="fill:#fbc811;fill-opacity:1;fill-rule:nonzero;stroke:none"
         transform="matrix(0.13333333,0,0,-0.13333333,0,238.29333)" />
      <path
         id="path8"
         d="m 1181.05,151.719 h -0.65 l 0.32,-148.43775 h -38.66 V 227.75 h 17.03 L 1293.78,80.9414 h 0.65 l -0.65,145.1676 h 38.66 V 1.64063 h -15.07 L 1181.05,151.719"
         style="fill:#fbc811;fill-opacity:1;fill-rule:nonzero;stroke:none"
         transform="matrix(0.13333333,0,0,-0.13333333,0,238.29333)" />
      <path
         id="path9"
         d="m 1580.19,68.8203 c 0,16.711 -11.14,30.4688 -35.72,30.4688 H 1502.2 V 37.3594 h 42.27 c 24.58,0 35.72,13.7617 35.72,31.4609 z M 1502.2,192.031 v -59.64 h 37.03 c 21.96,0 33.1,12.781 33.1,30.468 0,16.391 -11.14,29.172 -34.09,29.172 z M 1620.17,67.1719 c 0,-35.3828 -25.56,-63.89065 -73.4,-63.89065 h -83.56 V 226.109 h 78.97 c 44.89,0 69.8,-27.199 69.8,-59.648 0,-21.289 -9.18,-38.66 -25.89,-48.82 21.63,-9.832 34.08,-28.8402 34.08,-50.4691"
         style="fill:#fbc811;fill-opacity:1;fill-rule:nonzero;stroke:none"
         transform="matrix(0.13333333,0,0,-0.13333333,0,238.29333)" />
      <path
         id="path10"
         d="M 1749.94,89.7891 V 3.28125 h -39.32 V 89.4609 l -79.95,136.6481 h 44.56 l 55.71,-98.308 56.36,98.308 h 42.27 L 1749.94,89.7891"
         style="fill:#fbc811;fill-opacity:1;fill-rule:nonzero;stroke:none"
         transform="matrix(0.13333333,0,0,-0.13333333,0,238.29333)" />
      <path
         id="path11"
         d="M 2034.71,120.262 V 21.6289 C 2014.06,8.85156 1986.87,0 1952.14,0 c -68.49,0 -117.65,48.8281 -117.65,115.02 0,66.191 51.12,114.359 120.6,114.359 25.55,0 50.46,-5.891 67.5,-15.731 l 4.26,-43.578 c -21.63,16.391 -45.22,24.25 -71.44,24.25 -46.53,0 -80.28,-31.789 -80.28,-79.3 0,-48.5005 34.08,-79.9614 78.65,-79.9614 16.71,0 32.11,2.9531 47.83,10.1719 v 41.6093 h -52.43 l 6.88,33.4222 h 78.65"
         style="fill:#fbc811;fill-opacity:1;fill-rule:nonzero;stroke:none"
         transform="matrix(0.13333333,0,0,-0.13333333,0,238.29333)" />
      <path
         id="path12"
         d="M 2267.72,120.262 V 21.6289 C 2247.08,8.85156 2219.87,0 2185.14,0 2116.65,0 2067.5,48.8281 2067.5,115.02 c 0,66.191 51.12,114.359 120.59,114.359 25.56,0 50.46,-5.891 67.5,-15.731 l 4.26,-43.578 c -21.63,16.391 -45.22,24.25 -71.44,24.25 -46.52,0 -80.28,-31.789 -80.28,-79.3 0,-48.5005 34.09,-79.9614 78.65,-79.9614 16.71,0 32.11,2.9531 47.84,10.1719 v 41.6093 h -52.43 l 6.88,33.4222 h 78.65"
         style="fill:#fbc811;fill-opacity:1;fill-rule:nonzero;stroke:none"
         transform="matrix(0.13333333,0,0,-0.13333333,0,238.29333)" />
      <path
         id="path13"
         d="m 1234.06,1169.07 c 77.3,27.2 143.15,101.63 143.15,217.56 0,137.41 -97.34,249.05 -307.75,249.05 H 687.293 V 639.469 h 118.102 v 886.001 h 258.345 c 117.37,0 180.34,-61.54 180.34,-150.29 0,-97.33 -55.82,-154.58 -200.38,-154.58 h -13.6 v -108.79 h 6.44 c 168.9,0 237.6,-72.99 237.6,-180.349 0,-124.527 -87.31,-183.211 -211.83,-183.211 H 991.34 V 639.469 h 86.71 c 188.94,0 332.07,104.492 332.07,291.992 0,145.999 -105.92,216.139 -176.06,237.609"
         style="fill:#fbc811;fill-opacity:1;fill-rule:nonzero;stroke:none"
         transform="matrix(0.13333333,0,0,-0.13333333,0,238.29333)" />
      <path
         id="path14"
         d="m 1466.54,1176.98 c 15.21,13.13 85.7,112.45 79.58,274.67 -5.81,153.85 -136,335.59 -322.52,335.59 H 689.211 l -1.918,-83.07 h 469.347 c 198.94,0 286.18,-130.85 293.06,-284.66 4.39,-98.01 -19.21,-209.92 -102.54,-242.53 75.61,-25.73 127.3,-122.46 127.79,-260.214 C 1475.72,703.27 1344.1,571.66 1165.9,560.941 H 941.602 V 1395.36 H 849.777 V 482.559 h 0.43 v -7.661 h 343.623 c 263.52,6.461 376.74,237.543 376.78,421.207 0.04,230.325 -83.49,268.685 -104.07,280.875"
         style="fill:#fbc811;fill-opacity:1;fill-rule:nonzero;stroke:none"
         transform="matrix(0.13333333,0,0,-0.13333333,0,238.29333)" />
    </g>
  </g>
</svg>
