<?xml version="1.0" encoding="UTF-8" standalone="no"?>
<!-- Created with Inkscape (http://www.inkscape.org/) -->

<svg
   version="1.1"
   id="svg1"
   width="864.41333"
   height="589.65332"
   viewBox="0 0 864.41333 589.65332"
   sodipodi:docname="erik-klavefors.eps"
   xmlns:inkscape="http://www.inkscape.org/namespaces/inkscape"
   xmlns:sodipodi="http://sodipodi.sourceforge.net/DTD/sodipodi-0.dtd"
   xmlns="http://www.w3.org/2000/svg"
   xmlns:svg="http://www.w3.org/2000/svg">
  <defs
     id="defs1" />
  <sodipodi:namedview
     id="namedview1"
     pagecolor="#ffffff"
     bordercolor="#000000"
     borderopacity="0.25"
     inkscape:showpageshadow="2"
     inkscape:pageopacity="0.0"
     inkscape:pagecheckerboard="0"
     inkscape:deskcolor="#d1d1d1">
    <inkscape:page
       x="0"
       y="0"
       inkscape:label="1"
       id="page1"
       width="864.41333"
       height="589.65332"
       margin="0"
       bleed="0" />
  </sodipodi:namedview>
  <g
     id="g1"
     inkscape:groupmode="layer"
     inkscape:label="1">
    <g
       id="group-R5">
      <path
         id="path2"
         d="m 0,1295.37 h 317.629 v -93.53 H 106.207 v -174.4 H 292.301 V 934.871 H 106.207 V 755.59 h 224.086 l -6.82,-93.531 H 0 v 633.311"
         style="fill:#36a6e3;fill-opacity:1;fill-rule:nonzero;stroke:none"
         transform="matrix(0.13333333,0,0,-0.13333333,0,589.65333)" />
      <path
         id="path3"
         d="m 568.602,787.75 c 34.093,0 63.324,-31.18 63.324,-68.211 0,-37.019 -29.231,-68.199 -63.324,-68.199 -34.11,0 -63.336,31.18 -63.336,68.199 0,37.031 29.226,68.211 63.336,68.211"
         style="fill:#36a6e3;fill-opacity:1;fill-rule:nonzero;stroke:none"
         transform="matrix(0.13333333,0,0,-0.13333333,0,589.65333)" />
      <path
         id="path4"
         d="m 1041.98,1295.37 h 106.21 V 1020.62 L 1307,1295.37 h 121.79 L 1265.1,1038.15 1439.51,662.059 h -121.79 l -120.82,269.89 -48.71,-77.937 V 662.059 h -106.21 v 633.311"
         style="fill:#36a6e3;fill-opacity:1;fill-rule:nonzero;stroke:none"
         transform="matrix(0.13333333,0,0,-0.13333333,0,589.65333)" />
      <path
         id="path5"
         d="m 1699.6,1295.37 h 106.2 V 755.59 h 212.4 l -6.82,-93.531 H 1699.6 v 633.311"
         style="fill:#36a6e3;fill-opacity:1;fill-rule:nonzero;stroke:none"
         transform="matrix(0.13333333,0,0,-0.13333333,0,589.65333)" />
      <path
         id="path6"
         d="M 2541.36,892.98 2475.1,1158 2409.82,892.98 Z m -121.8,402.39 h 116.92 l 172.46,-633.311 h -110.1 l -38,151.019 h -171.48 l -37.02,-151.019 h -107.18 l 174.4,633.311"
         style="fill:#36a6e3;fill-opacity:1;fill-rule:nonzero;stroke:none"
         transform="matrix(0.13333333,0,0,-0.13333333,0,589.65333)" />
      <path
         id="path7"
         d="m 2875.5,1295.37 h 111.07 l 119.85,-493.011 115.94,493.011 h 106.2 L 3161.95,662.059 H 3046 l -170.5,633.311"
         style="fill:#36a6e3;fill-opacity:1;fill-rule:nonzero;stroke:none"
         transform="matrix(0.13333333,0,0,-0.13333333,0,589.65333)" />
      <path
         id="path8"
         d="m 3592.53,1295.37 h 317.63 v -93.53 h -211.42 v -174.4 h 186.09 V 934.871 H 3698.74 V 755.59 h 224.09 L 3916,662.059 h -323.47 v 633.311"
         style="fill:#36a6e3;fill-opacity:1;fill-rule:nonzero;stroke:none"
         transform="matrix(0.13333333,0,0,-0.13333333,0,589.65333)" />
      <path
         id="path9"
         d="m 4200.46,1295.37 h 306.91 v -93.53 h -200.7 v -175.38 h 178.29 V 934.871 H 4306.67 V 662.059 h -106.21 v 633.311"
         style="fill:#36a6e3;fill-opacity:1;fill-rule:nonzero;stroke:none"
         transform="matrix(0.13333333,0,0,-0.13333333,0,589.65333)" />
      <path
         id="path10"
         d="m 5123.1,978.719 c 0,141.271 -44.82,233.831 -121.79,233.831 -77.95,0 -121.79,-92.56 -121.79,-233.831 0,-141.278 43.84,-233.84 121.79,-233.84 76.97,0 121.79,92.562 121.79,233.84 z m -354.66,0 c 0,186.101 72.1,327.371 232.87,327.371 161.74,0 233.84,-141.27 233.84,-327.371 0,-184.149 -72.1,-327.379 -233.84,-327.379 -160.77,0 -232.87,143.23 -232.87,327.379"
         style="fill:#36a6e3;fill-opacity:1;fill-rule:nonzero;stroke:none"
         transform="matrix(0.13333333,0,0,-0.13333333,0,589.65333)" />
      <path
         id="path11"
         d="m 5685.22,1006.97 c 46.77,0 69.17,37.03 69.17,99.39 0,62.36 -21.44,95.48 -69.17,95.48 h -61.38 v -194.87 z m -167.59,288.4 h 170.51 c 116.91,0 177.33,-77.94 177.33,-188.04 0,-75.03 -34.11,-138.361 -99.39,-166.611 16.57,-12.668 28.26,-31.18 38.97,-56.52 l 95.49,-222.14 h -116.92 l -77.94,198.761 c -15.6,40.93 -28.26,59.43 -55.54,59.43 h -26.3 V 662.059 h -106.21 v 633.311"
         style="fill:#36a6e3;fill-opacity:1;fill-rule:nonzero;stroke:none"
         transform="matrix(0.13333333,0,0,-0.13333333,0,589.65333)" />
      <path
         id="path12"
         d="m 6172.33,795.539 c 35.08,-24.348 79.9,-50.66 124.72,-50.66 47.74,0 75.02,32.152 75.02,85.742 0,121.801 -216.3,83.789 -216.3,295.219 0,113.02 76.97,180.25 175.38,180.25 62.36,0 108.15,-23.38 146.15,-50.67 l -37.02,-77.94 c -33.13,21.43 -63.34,35.07 -101.33,35.07 -45.8,0 -72.1,-29.23 -72.1,-81.84 0,-131.53 216.3,-88.66 216.3,-293.269 0,-110.101 -84.78,-186.101 -179.28,-186.101 -67.23,0 -124.72,30.211 -169.53,63.34 l 37.99,80.859"
         style="fill:#36a6e3;fill-opacity:1;fill-rule:nonzero;stroke:none"
         transform="matrix(0.13333333,0,0,-0.13333333,0,589.65333)" />
      <path
         id="path13"
         d="m 1783.76,309.52 h 40.27 V 5.14844 h -40.27 V 309.52"
         style="fill:#36a6e3;fill-opacity:1;fill-rule:nonzero;stroke:none"
         transform="matrix(0.13333333,0,0,-0.13333333,0,589.65333)" />
      <path
         id="path14"
         d="m 2041.29,309.52 h 37.45 L 2185.5,91.7813 V 309.52 h 38.87 V 5.14844 h -37.46 L 2080.15,222.422 V 5.14844 h -38.86 V 309.52"
         style="fill:#36a6e3;fill-opacity:1;fill-rule:nonzero;stroke:none"
         transform="matrix(0.13333333,0,0,-0.13333333,0,589.65333)" />
      <path
         id="path15"
         d="m 2423.83,309.52 h 42.14 l 63.21,-253.3286 62.27,253.3286 h 39.8 L 2551.18,5.14844 h -44.95 L 2423.83,309.52"
         style="fill:#36a6e3;fill-opacity:1;fill-rule:nonzero;stroke:none"
         transform="matrix(0.13333333,0,0,-0.13333333,0,589.65333)" />
      <path
         id="path16"
         d="m 2831.63,309.52 h 146.1 v -36.071 h -105.82 v -97.39 h 92.71 v -35.118 h -92.71 V 40.7383 h 111.91 L 2981.01,5.14844 H 2831.63 V 309.52"
         style="fill:#36a6e3;fill-opacity:1;fill-rule:nonzero;stroke:none"
         transform="matrix(0.13333333,0,0,-0.13333333,0,589.65333)" />
      <path
         id="path17"
         d="m 3191.23,61.3398 c 15.47,-11.6992 38.41,-25.75 61.34,-25.75 25.29,0 42.15,17.7891 42.15,49.6407 0,66.4885 -108.16,44.0075 -108.16,146.0895 0,51.5 34.64,83.352 80.07,83.352 28.09,0 49.16,-11.25 66.95,-23.422 l -14.51,-29.961 c -16.39,10.762 -30.9,17.313 -50.1,17.313 -26.22,0 -40.27,-16.852 -40.27,-46.352 0,-69.762 108.17,-47.289 108.17,-144.6914 C 3336.87,35.1211 3298.47,0 3254.45,0 c -31.37,0 -58.07,14.5195 -77.72,29.5117 l 14.5,31.8281"
         style="fill:#36a6e3;fill-opacity:1;fill-rule:nonzero;stroke:none"
         transform="matrix(0.13333333,0,0,-0.13333333,0,589.65333)" />
      <path
         id="path18"
         d="m 3590.64,273.93 h -67.44 v 35.59 h 174.66 l -2.81,-35.59 h -64.14 V 5.14844 h -40.27 V 273.93"
         style="fill:#36a6e3;fill-opacity:1;fill-rule:nonzero;stroke:none"
         transform="matrix(0.13333333,0,0,-0.13333333,0,589.65333)" />
      <path
         id="path19"
         d="m 4262.07,112.852 -38.4,147.027 -38.39,-147.027 z m -59.94,196.668 h 45.89 L 4331.83,5.14844 h -41.67 l -20.13,75.86326 h -92.71 L 4157.65,5.14844 h -40.27 L 4202.13,309.52"
         style="fill:#36a6e3;fill-opacity:1;fill-rule:nonzero;stroke:none"
         transform="matrix(0.13333333,0,0,-0.13333333,0,589.65333)" />
      <path
         id="path20"
         d="m 4612.76,40.7383 c 28.1,0 44.03,18.2617 44.03,53.8515 0,33.7112 -16.87,52.4412 -43.56,52.4412 h -40.74 V 40.7383 Z m -1.86,138.6137 c 23.87,0 34.18,20.597 34.18,47.277 0,29.512 -13.11,46.82 -36.52,46.82 h -36.07 v -94.097 z m -78.67,130.168 h 81.94 c 43.08,0 72.11,-29.04 72.11,-79.149 0,-28.562 -11.23,-54.312 -32.78,-64.141 27.16,-8.898 45.89,-34.652 45.89,-72.5816 0,-51.5 -27.63,-88.49996 -88.97,-88.49996 h -78.19 V 309.52"
         style="fill:#36a6e3;fill-opacity:1;fill-rule:nonzero;stroke:none"
         transform="matrix(0.13333333,0,0,-0.13333333,0,589.65333)" />
      <path
         id="path21"
         d="M 4409.7,2039.39 H 2073.45 V 4375.64 H 4409.7 Z M 2026.73,4422.36 v -2429.7 h 2429.69 v 2429.7 H 2026.73"
         style="fill:#36a6e3;fill-opacity:1;fill-rule:nonzero;stroke:none"
         transform="matrix(0.13333333,0,0,-0.13333333,0,589.65333)" />
      <path
         id="path22"
         d="m 3472.21,2887.55 c -23.6,0 -43.03,0 -65.35,0 0,358.37 0,714.76 0,1074.68 18.41,0 37.39,0 62.72,0 0,-311.24 0,-624.22 0,-937.2 3.66,-0.89 7.32,-1.77 10.97,-2.66 177.38,311.72 354.76,623.43 531.66,934.33 24.98,0 46.7,0 77.88,0 -208.7,-361.13 -413.64,-715.75 -617.88,-1069.15"
         style="fill:#36a6e3;fill-opacity:1;fill-rule:nonzero;stroke:none"
         transform="matrix(0.13333333,0,0,-0.13333333,0,589.65333)" />
      <path
         id="path23"
         d="m 2545,2951.95 c 0,-17.37 0,-40.92 0,-56.84 -25,0.54 -49.73,0.98 -72.25,0.54 0,-129.86 0.98,-244.67 0.98,-379.15 52.1,-2.45 103.94,-0.82 155.66,-1.11 53.81,-0.29 107.62,-0.06 161.43,-0.06 52.16,0 94.32,0 149.47,0 0,-18.33 0,-42.91 0,-60.68 -175.63,0 -350.52,0 -528.88,0 0,164.73 0,329.46 0,497.3 40.98,0 92.04,0 133.59,0"
         style="fill:#36a6e3;fill-opacity:1;fill-rule:nonzero;stroke:none"
         transform="matrix(0.13333333,0,0,-0.13333333,0,589.65333)" />
      <path
         id="path24"
         d="m 3652.68,3089.65 c 9.28,15.66 12.94,23.09 19.9,33.57 3.7,5.57 11.36,13.75 20.37,23.61 137.69,-230.23 273.42,-457.18 413.79,-691.88 -28.45,-1.52 -48.41,-2.59 -72.71,-3.88 -126.95,212.58 -253.47,424.45 -381.35,638.58"
         style="fill:#36a6e3;fill-opacity:1;fill-rule:nonzero;stroke:none"
         transform="matrix(0.13333333,0,0,-0.13333333,0,589.65333)" />
      <path
         id="path25"
         d="m 3196.73,2456.36 c 0,62.09 0,124.68 0,189.06 62.78,0 122.88,0 185.86,0 0,-63.11 0,-124.48 0,-185.97 -28.17,-0.76 -133.91,-4.8 -185.86,-3.09"
         style="fill:#36a6e3;fill-opacity:1;fill-rule:nonzero;stroke:none"
         transform="matrix(0.13333333,0,0,-0.13333333,0,589.65333)" />
      <path
         id="path26"
         d="m 2940.29,3903.75 v 60.2 c -63.23,0 -465.68,0 -529.59,0 0,-317.98 0,-632.89 0,-947.62 17.62,0 42.38,0 59.67,0 0,101.82 0,200.74 0,299.67 0,99.11 -0.05,198.23 0.01,297.34 0.07,98.48 -0.3,186.96 0.27,290.49 45.18,0 427.41,-0.06 469.64,-0.08"
         style="fill:#36a6e3;fill-opacity:1;fill-rule:nonzero;stroke:none"
         transform="matrix(0.13333333,0,0,-0.13333333,0,589.65333)" />
    </g>
  </g>
</svg>
