<?xml version="1.0" encoding="UTF-8" standalone="no"?>
<!-- Created with Inkscape (http://www.inkscape.org/) -->

<svg
   version="1.1"
   id="svg1"
   width="651.85333"
   height="201"
   viewBox="0 0 651.85333 201"
   sodipodi:docname="occation.eps"
   xmlns:inkscape="http://www.inkscape.org/namespaces/inkscape"
   xmlns:sodipodi="http://sodipodi.sourceforge.net/DTD/sodipodi-0.dtd"
   xmlns="http://www.w3.org/2000/svg"
   xmlns:svg="http://www.w3.org/2000/svg">
  <defs
     id="defs1" />
  <sodipodi:namedview
     id="namedview1"
     pagecolor="#ffffff"
     bordercolor="#000000"
     borderopacity="0.25"
     inkscape:showpageshadow="2"
     inkscape:pageopacity="0.0"
     inkscape:pagecheckerboard="0"
     inkscape:deskcolor="#d1d1d1">
    <inkscape:page
       x="0"
       y="0"
       inkscape:label="1"
       id="page1"
       width="651.85333"
       height="201"
       margin="0"
       bleed="0" />
  </sodipodi:namedview>
  <g
     id="g1"
     inkscape:groupmode="layer"
     inkscape:label="1">
    <g
       id="group-R5">
      <path
         id="path2"
         d="M 4878.68,453.77 H 156.465 L 0,571.984 h 4674.46 l 204.22,140.817 V 453.77"
         style="fill:#f4741e;fill-opacity:1;fill-rule:nonzero;stroke:none"
         transform="matrix(0.13333333,0,0,-0.13333333,0,201)" />
      <path
         id="path3"
         d="m 282.352,1239.71 c -43.633,-42.42 -64.219,-101.79 -64.219,-158.74 0,-71.49 33.918,-121.185 64.219,-150.255 38.765,-37.574 93.308,-64.219 163.589,-64.219 71.493,0 124.801,25.434 162.375,63.008 37.555,37.555 65.434,93.306 65.434,155.106 0,63.01 -27.879,118.74 -65.434,155.1 -44.843,42.41 -106.64,64.22 -162.375,64.22 -58.179,0 -119.976,-20.6 -163.589,-64.22 z M 764.633,782.883 C 682.234,704.121 565.895,662.91 445.941,662.91 325.965,662.91 209.648,704.121 127.246,782.883 41.2109,865.285 0,977.969 0,1084.61 c 0,107.83 41.2109,221.75 127.246,302.94 82.402,78.76 198.719,119.96 318.695,119.96 119.954,0 236.293,-41.2 318.692,-119.96 86.019,-81.19 127.226,-195.11 127.226,-302.94 0,-106.641 -41.207,-219.325 -127.226,-301.727"
         style="fill:#f4741e;fill-opacity:1;fill-rule:nonzero;stroke:none"
         transform="matrix(0.13333333,0,0,-0.13333333,0,201)" />
      <path
         id="path4"
         d="m 1605.59,702.906 c -83.61,-30.301 -129.65,-39.996 -181.75,-39.996 -140.56,0 -245.99,55.754 -312.63,121.188 -78.77,78.761 -122.405,189.019 -122.405,294.452 0,115.11 49.695,224.17 122.405,298.09 71.49,72.7 179.32,126.02 305.36,126.02 38.76,0 101.79,-6.06 189.02,-41.2 v -250.83 c -67.86,83.6 -147.83,88.46 -182.96,88.46 -60.59,0 -106.65,-18.18 -145.41,-53.32 -49.7,-46.06 -70.28,-109.06 -70.28,-166.01 0,-55.74 23.01,-117.549 65.43,-157.53 35.13,-32.722 90.89,-55.734 150.26,-55.734 31.49,0 109.04,3.637 182.96,84.824 V 702.906"
         style="fill:#f4741e;fill-opacity:1;fill-rule:nonzero;stroke:none"
         transform="matrix(0.13333333,0,0,-0.13333333,0,201)" />
      <path
         id="path5"
         d="m 2319.32,702.906 c -83.62,-30.301 -129.66,-39.996 -181.75,-39.996 -140.56,0 -245.99,55.754 -312.64,121.188 -78.76,78.761 -122.4,189.019 -122.4,294.452 0,115.11 49.7,224.17 122.4,298.09 71.49,72.7 179.33,126.02 305.36,126.02 38.77,0 101.8,-6.06 189.03,-41.2 v -250.83 c -67.86,83.6 -147.84,88.46 -182.97,88.46 -60.58,0 -106.64,-18.18 -145.4,-53.32 -49.7,-46.06 -70.28,-109.06 -70.28,-166.01 0,-55.74 23.01,-117.549 65.43,-157.53 35.13,-32.722 90.88,-55.734 150.25,-55.734 31.5,0 109.05,3.637 182.97,84.824 V 702.906"
         style="fill:#f4741e;fill-opacity:1;fill-rule:nonzero;stroke:none"
         transform="matrix(0.13333333,0,0,-0.13333333,0,201)" />
      <path
         id="path6"
         d="M 3378.52,1311.2 V 681.09 h -209.63 v 630.11 h -90.68 l -81.39,178.13 h 553.77 V 1311.2 h -172.07"
         style="fill:#f4741e;fill-opacity:1;fill-rule:nonzero;stroke:none"
         transform="matrix(0.13333333,0,0,-0.13333333,0,201)" />
      <path
         id="path7"
         d="M 3853.53,1489.33 V 681.09 H 3643.9 v 808.24 h 209.63"
         style="fill:#f4741e;fill-opacity:1;fill-rule:nonzero;stroke:none"
         transform="matrix(0.13333333,0,0,-0.13333333,0,201)" />
      <path
         id="path8"
         d="m 4269.17,1239.71 c -43.63,-42.42 -64.22,-101.79 -64.22,-158.74 0,-71.49 33.92,-121.185 64.22,-150.255 38.77,-37.574 93.31,-64.219 163.59,-64.219 71.49,0 124.8,25.434 162.38,63.008 37.55,37.555 65.43,93.306 65.43,155.106 0,63.01 -27.88,118.74 -65.43,155.1 -44.85,42.41 -106.65,64.22 -162.38,64.22 -58.18,0 -119.97,-20.6 -163.59,-64.22 z m 482.28,-456.827 c -82.4,-78.762 -198.74,-119.973 -318.69,-119.973 -119.97,0 -236.29,41.211 -318.69,119.973 -86.04,82.402 -127.25,195.086 -127.25,301.727 0,107.83 41.21,221.75 127.25,302.94 82.4,78.76 198.72,119.96 318.69,119.96 119.95,0 236.29,-41.2 318.69,-119.96 86.02,-81.19 127.23,-195.11 127.23,-302.94 0,-106.641 -41.21,-219.325 -127.23,-301.727"
         style="fill:#f4741e;fill-opacity:1;fill-rule:nonzero;stroke:none"
         transform="matrix(0.13333333,0,0,-0.13333333,0,201)" />
      <path
         id="path9"
         d="m 2637.63,978.199 88.44,261.751 90.88,-261.751 z m 399.64,-5.261 -194.87,517.832 H 2613.38 L 2415.57,975.367 V 682.535 h 109.35 l 54.53,135.711 h 293.26 l 49.67,-135.711 h 114.89 v 290.403"
         style="fill:#f4741e;fill-opacity:1;fill-rule:nonzero;stroke:none"
         transform="matrix(0.13333333,0,0,-0.13333333,0,201)" />
      <path
         id="path10"
         d="m 1785.61,238.988 h 33.81 V 4.17188 h -33.81 z m 0,46.332 v 48.621 h 34.27 V 285.32 h -34.27"
         style="fill:#f4741e;fill-opacity:1;fill-rule:nonzero;stroke:none"
         transform="matrix(0.13333333,0,0,-0.13333333,0,201)" />
      <path
         id="path11"
         d="m 1875.47,166.27 c 0,48.179 -0.47,62.07 -0.47,72.718 h 32.89 c 0.46,-5.547 1.39,-14.816 1.39,-30.558 7.41,18.058 23.62,34.73 55.57,34.73 33.82,0 60.22,-19.449 60.22,-71.781 V 4.17188 H 1990.8 V 164.879 c 0,28.73 -9.28,48.18 -36.14,48.18 -31.49,0 -44.92,-20.84 -44.92,-69.02 V 4.17188 h -34.27 V 166.27"
         style="fill:#f4741e;fill-opacity:1;fill-rule:nonzero;stroke:none"
         transform="matrix(0.13333333,0,0,-0.13333333,0,201)" />
      <path
         id="path12"
         d="m 2080.64,166.27 c 0,48.179 -0.47,62.07 -0.47,72.718 h 32.9 c 0.45,-5.547 1.39,-14.816 1.39,-30.558 7.41,18.058 23.62,34.73 55.57,34.73 33.81,0 60.22,-19.449 60.22,-71.781 V 4.17188 h -34.28 V 164.879 c 0,28.73 -9.27,48.18 -36.13,48.18 -31.49,0 -44.93,-20.84 -44.93,-69.02 V 4.17188 h -34.27 V 166.27"
         style="fill:#f4741e;fill-opacity:1;fill-rule:nonzero;stroke:none"
         transform="matrix(0.13333333,0,0,-0.13333333,0,201)" />
      <path
         id="path13"
         d="m 2308.98,123.199 c 0,-63.4373 15.75,-94.0076 46.33,-94.0076 30.56,0 45.85,31.0274 45.85,94.4806 0,60.207 -14.82,89.848 -45.85,89.848 -29.64,0 -46.33,-26.399 -46.33,-90.321 z m 126.91,0.93 C 2435.89,41.6797 2408.1,0 2355.31,0 c -54.66,0 -81.06,40.2891 -81.06,123.672 0,81.519 31.97,119.027 82.45,119.027 51.4,0 79.19,-39.367 79.19,-118.57"
         style="fill:#f4741e;fill-opacity:1;fill-rule:nonzero;stroke:none"
         transform="matrix(0.13333333,0,0,-0.13333333,0,201)" />
      <path
         id="path14"
         d="m 2492.41,238.988 c 19.45,-75.949 42.62,-167.656 47.25,-196.8278 h 0.45 c 3.26,25.9296 38.45,149.1288 50.03,196.8278 h 33.81 L 2556.8,4.17188 h -36.59 L 2456.29,238.988 h 36.12"
         style="fill:#f4741e;fill-opacity:1;fill-rule:nonzero;stroke:none"
         transform="matrix(0.13333333,0,0,-0.13333333,0,201)" />
      <path
         id="path15"
         d="m 2752.73,115.328 c -5.56,0.934 -12.04,1.391 -23.16,1.391 -41.69,0 -58.83,-19.9182 -58.83,-46.3088 0,-21.7696 11.58,-41.6797 36.59,-41.6797 34.28,0 45.4,24.539 45.4,74.0975 z m 32.88,-69.4686 c 0,-14.8281 0.93,-34.2813 1.85,-41.68752 h -31.03 c -1.39,5.08984 -2.31,17.60942 -2.31,26.85942 C 2745.32,11.5781 2727.72,0 2698.53,0 c -45.38,0 -61.59,35.2109 -61.59,68.0898 0,42.6092 29.17,75.0392 90.78,75.0392 11.11,0 17.6,0 24.54,-0.938 v 31.489 c 0,18.082 -3.7,41.691 -35.19,41.691 -34.75,0 -37.06,-25 -38.45,-40.75 h -32.42 c 0.93,33.809 16.67,68.078 71.78,68.078 45.4,0 67.63,-21.769 67.63,-65.301 V 45.8594"
         style="fill:#f4741e;fill-opacity:1;fill-rule:nonzero;stroke:none"
         transform="matrix(0.13333333,0,0,-0.13333333,0,201)" />
      <path
         id="path16"
         d="m 2812.47,238.988 h 33.36 v 62.543 h 33.34 v -62.543 h 41.22 V 209.82 h -41.22 V 56.0508 c 0,-16.211 3.71,-26.4102 21.3,-26.4102 5.56,0 12.51,0.4805 16.68,1.3907 V 4.62891 c -7.88,-2.77735 -19.92,-3.699222 -27.79,-3.699222 -27.34,0 -43.53,11.109412 -43.53,48.171912 V 209.82 h -33.36 v 29.168"
         style="fill:#f4741e;fill-opacity:1;fill-rule:nonzero;stroke:none"
         transform="matrix(0.13333333,0,0,-0.13333333,0,201)" />
      <path
         id="path17"
         d="m 2953.75,238.988 h 33.81 V 4.17188 h -33.81 z m 0,46.332 v 48.621 h 34.27 V 285.32 h -34.27"
         style="fill:#f4741e;fill-opacity:1;fill-rule:nonzero;stroke:none"
         transform="matrix(0.13333333,0,0,-0.13333333,0,201)" />
      <path
         id="path18"
         d="m 3056.09,238.988 c 19.45,-75.949 42.61,-167.656 47.24,-196.8278 h 0.46 c 3.26,25.9296 38.45,149.1288 50.03,196.8278 h 33.81 L 3120.48,4.17188 h -36.6 L 3019.97,238.988 h 36.12"
         style="fill:#f4741e;fill-opacity:1;fill-rule:nonzero;stroke:none"
         transform="matrix(0.13333333,0,0,-0.13333333,0,201)" />
      <path
         id="path19"
         d="m 3329.84,141.738 c 0,40.75 -8.8,72.25 -42.62,72.25 -43.07,0 -45.38,-56.039 -45.85,-72.25 z m -88.93,-26.41 c 0,-45.8475 7.87,-86.1366 44.92,-86.1366 37.06,0 41.7,34.7305 42.62,42.1406 h 33.35 C 3361.33,64.8516 3354.85,0 3285.38,0 c -69.02,0 -78.74,63 -78.74,121.809 0,74.113 25.47,120.89 80.58,120.89 62.07,0 76.43,-50.48 76.43,-109.308 0,-4.629 0,-12.5 -0.46,-18.063 h -122.28"
         style="fill:#f4741e;fill-opacity:1;fill-rule:nonzero;stroke:none"
         transform="matrix(0.13333333,0,0,-0.13333333,0,201)" />
      <path
         id="path20"
         d="m 3511.86,71.8008 c 1.39,-25.0117 14.37,-44 41.23,-44 25.93,0 37.97,15.2812 37.97,37.0508 0,24.0781 -12.04,35.1994 -43.08,47.2384 -48.61,18.519 -62.52,36.121 -62.52,69.012 0,31.5 19.45,62.058 67.17,62.058 52.33,0 67.61,-35.66 67.61,-67.148 h -32.88 c -0.93,11.578 -3.24,39.359 -35.66,39.359 -22.23,0 -32.43,-13.891 -32.43,-32.41 0,-18.992 8.35,-27.789 40.76,-40.77 45.39,-17.121 65.32,-33.812 65.32,-74.1012 C 3625.35,25.0117 3598.47,0 3551.7,0 c -48.64,0 -72.72,29.1914 -73.65,71.8008 h 33.81"
         style="fill:#f4741e;fill-opacity:1;fill-rule:nonzero;stroke:none"
         transform="matrix(0.13333333,0,0,-0.13333333,0,201)" />
      <path
         id="path21"
         d="m 3689.72,123.199 c 0,-63.4373 15.75,-94.0076 46.33,-94.0076 30.55,0 45.85,31.0274 45.85,94.4806 0,60.207 -14.82,89.848 -45.85,89.848 -29.65,0 -46.33,-26.399 -46.33,-90.321 z m 126.91,0.93 C 3816.63,41.6797 3788.84,0 3736.05,0 c -54.66,0 -81.06,40.2891 -81.06,123.672 0,81.519 31.95,119.027 82.45,119.027 51.4,0 79.19,-39.367 79.19,-118.57"
         style="fill:#f4741e;fill-opacity:1;fill-rule:nonzero;stroke:none"
         transform="matrix(0.13333333,0,0,-0.13333333,0,201)" />
      <path
         id="path22"
         d="M 3860.65,4.17188 V 333.941 h 33.81 V 4.17188 h -33.81"
         style="fill:#f4741e;fill-opacity:1;fill-rule:nonzero;stroke:none"
         transform="matrix(0.13333333,0,0,-0.13333333,0,201)" />
      <path
         id="path23"
         d="m 4097.77,68.5508 c 0,-29.6524 0,-53.25 0.48,-64.37892 h -32.43 c -0.93,6.95702 -1.39,16.21872 -1.39,31.48832 C 4055.63,12.0391 4036.18,0 4008.39,0 c -27.32,0 -58.83,11.1289 -58.83,69.9414 V 238.988 h 34.29 V 78.2813 c 0,-30.1016 8.33,-48.1602 35.19,-48.1602 25.94,0 44.46,15.7383 44.46,66.2187 V 238.988 h 34.27 V 68.5508"
         style="fill:#f4741e;fill-opacity:1;fill-rule:nonzero;stroke:none"
         transform="matrix(0.13333333,0,0,-0.13333333,0,201)" />
      <path
         id="path24"
         d="m 4128.35,238.988 h 33.35 v 62.543 h 33.34 v -62.543 h 41.23 V 209.82 h -41.23 V 56.0508 c 0,-16.211 3.72,-26.4102 21.3,-26.4102 5.57,0 12.52,0.4805 16.69,1.3907 V 4.62891 c -7.89,-2.77735 -19.93,-3.699222 -27.79,-3.699222 -27.34,0 -43.54,11.109412 -43.54,48.171912 V 209.82 h -33.35 v 29.168"
         style="fill:#f4741e;fill-opacity:1;fill-rule:nonzero;stroke:none"
         transform="matrix(0.13333333,0,0,-0.13333333,0,201)" />
      <path
         id="path25"
         d="m 4269.62,238.988 h 33.82 V 4.17188 h -33.82 z m 0,46.332 v 48.621 h 34.28 V 285.32 h -34.28"
         style="fill:#f4741e;fill-opacity:1;fill-rule:nonzero;stroke:none"
         transform="matrix(0.13333333,0,0,-0.13333333,0,201)" />
      <path
         id="path26"
         d="m 4382.62,123.199 c 0,-63.4373 15.75,-94.0076 46.32,-94.0076 30.56,0 45.86,31.0274 45.86,94.4806 0,60.207 -14.82,89.848 -45.86,89.848 -29.64,0 -46.32,-26.399 -46.32,-90.321 z m 126.91,0.93 C 4509.53,41.6797 4481.73,0 4428.94,0 c -54.65,0 -81.05,40.2891 -81.05,123.672 0,81.519 31.94,119.027 82.44,119.027 51.4,0 79.2,-39.367 79.2,-118.57"
         style="fill:#f4741e;fill-opacity:1;fill-rule:nonzero;stroke:none"
         transform="matrix(0.13333333,0,0,-0.13333333,0,201)" />
      <path
         id="path27"
         d="m 4553.55,166.27 c 0,48.179 -0.48,62.07 -0.48,72.718 h 32.9 c 0.46,-5.547 1.39,-14.816 1.39,-30.558 7.41,18.058 23.62,34.73 55.57,34.73 33.82,0 60.22,-19.449 60.22,-71.781 V 4.17188 h -34.27 V 164.879 c 0,28.73 -9.28,48.18 -36.14,48.18 -31.49,0 -44.92,-20.84 -44.92,-69.02 V 4.17188 h -34.27 V 166.27"
         style="fill:#f4741e;fill-opacity:1;fill-rule:nonzero;stroke:none"
         transform="matrix(0.13333333,0,0,-0.13333333,0,201)" />
      <path
         id="path28"
         d="m 4775.41,71.8008 c 1.39,-25.0117 14.36,-44 41.22,-44 25.93,0 37.97,15.2812 37.97,37.0508 0,24.0781 -12.04,35.1994 -43.07,47.2384 -48.62,18.519 -62.53,36.121 -62.53,69.012 0,31.5 19.46,62.058 67.16,62.058 52.35,0 67.63,-35.66 67.63,-67.148 h -32.89 c -0.93,11.578 -3.24,39.359 -35.66,39.359 -22.23,0 -32.42,-13.891 -32.42,-32.41 0,-18.992 8.34,-27.789 40.76,-40.77 45.38,-17.121 65.31,-33.812 65.31,-74.1012 C 4888.89,25.0117 4862.01,0 4815.24,0 c -48.63,0 -72.71,29.1914 -73.65,71.8008 h 33.82"
         style="fill:#f4741e;fill-opacity:1;fill-rule:nonzero;stroke:none"
         transform="matrix(0.13333333,0,0,-0.13333333,0,201)" />
    </g>
  </g>
</svg>
