<?xml version="1.0" encoding="UTF-8" standalone="no"?>
<!-- Created with Inkscape (http://www.inkscape.org/) -->

<svg
   version="1.1"
   id="svg1"
   width="340.16"
   height="173.64"
   viewBox="0 0 340.16 173.64"
   sodipodi:docname="andres-mur.eps"
   xmlns:inkscape="http://www.inkscape.org/namespaces/inkscape"
   xmlns:sodipodi="http://sodipodi.sourceforge.net/DTD/sodipodi-0.dtd"
   xmlns="http://www.w3.org/2000/svg"
   xmlns:svg="http://www.w3.org/2000/svg">
  <defs
     id="defs1" />
  <sodipodi:namedview
     id="namedview1"
     pagecolor="#ffffff"
     bordercolor="#000000"
     borderopacity="0.25"
     inkscape:showpageshadow="2"
     inkscape:pageopacity="0.0"
     inkscape:pagecheckerboard="0"
     inkscape:deskcolor="#d1d1d1">
    <inkscape:page
       x="0"
       y="0"
       inkscape:label="1"
       id="page1"
       width="340.16"
       height="173.64"
       margin="0"
       bleed="0" />
  </sodipodi:namedview>
  <g
     id="g1"
     inkscape:groupmode="layer"
     inkscape:label="1">
    <g
       id="group-R5">
      <path
         id="path2"
         d="M 94.6914,53.7617 73.7539,104.32 52.8164,53.7617 Z M 104.313,30.5586 H 43.0078 L 31.3125,2.26953 H 0 L 58.8516,134.309 H 89.0352 L 148.074,2.26953 H 116.008 L 104.313,30.5586"
         style="fill:#a48849;fill-opacity:1;fill-rule:nonzero;stroke:none"
         transform="matrix(0.13333333,0,0,-0.13333333,0,173.64)" />
      <path
         id="path3"
         d="M 282.938,134.309 V 2.26953 H 257.852 L 192.02,82.4414 V 2.26953 H 161.84 V 134.309 h 25.277 l 65.641,-80.1684 v 80.1684 h 30.18"
         style="fill:#a48849;fill-opacity:1;fill-rule:nonzero;stroke:none"
         transform="matrix(0.13333333,0,0,-0.13333333,0,173.64)" />
      <path
         id="path4"
         d="m 372.727,27.3594 c 26.218,0 43.382,15.6523 43.382,40.9297 0,25.2812 -17.164,40.9299 -43.382,40.9299 H 344.809 V 27.3594 Z M 314.25,134.309 h 59.984 c 43.196,0 72.813,-26.028 72.813,-66.0199 0,-39.9883 -29.617,-66.01957 -72.813,-66.01957 H 314.25 V 134.309"
         style="fill:#a48849;fill-opacity:1;fill-rule:nonzero;stroke:none"
         transform="matrix(0.13333333,0,0,-0.13333333,0,173.64)" />
      <path
         id="path5"
         d="M 525.512,109.41 H 500.609 V 63.3789 h 24.903 c 18.672,0 28.105,8.6797 28.105,23.0195 0,14.5236 -9.433,23.0116 -28.105,23.0116 z M 554.184,2.26953 528.719,39.0508 h -28.11 V 2.26953 H 470.055 V 134.309 h 57.152 c 35.273,0 57.344,-18.297 57.344,-47.9106 0,-19.8086 -9.996,-34.3281 -27.16,-41.6875 L 587.004,2.26953 h -32.82"
         style="fill:#a48849;fill-opacity:1;fill-rule:nonzero;stroke:none"
         transform="matrix(0.13333333,0,0,-0.13333333,0,173.64)" />
      <path
         id="path6"
         d="M 710.93,26.7891 V 2.26953 H 608.691 V 134.309 h 99.786 v -24.52 H 639.059 V 81.1211 h 61.304 V 57.3516 H 639.059 V 26.7891 h 71.871"
         style="fill:#a48849;fill-opacity:1;fill-rule:nonzero;stroke:none"
         transform="matrix(0.13333333,0,0,-0.13333333,0,173.64)" />
      <path
         id="path7"
         d="m 664.523,145.059 h -23.011 l 25.465,27.16 h 31.691 l -34.145,-27.16"
         style="fill:#a48849;fill-opacity:1;fill-rule:nonzero;stroke:none"
         transform="matrix(0.13333333,0,0,-0.13333333,0,173.64)" />
      <path
         id="path8"
         d="m 724.883,15.2813 10.375,23.0195 c 11.129,-8.1094 27.726,-13.7695 43.57,-13.7695 18.11,0 25.469,6.0273 25.469,14.1406 0,24.707 -76.774,7.7383 -76.774,56.7773 0,22.4488 18.11,41.1208 55.645,41.1208 16.602,0 33.578,-3.961 45.84,-11.691 l -9.434,-23.199 c -12.261,6.98 -24.898,10.371 -36.594,10.371 -18.109,0 -25.089,-6.789 -25.089,-15.0901 0,-24.332 76.773,-7.539 76.773,-56.0195 C 834.664,18.8711 816.367,0 778.641,0 757.703,0 736.578,6.23047 724.883,15.2813"
         style="fill:#a48849;fill-opacity:1;fill-rule:nonzero;stroke:none"
         transform="matrix(0.13333333,0,0,-0.13333333,0,173.64)" />
      <path
         id="path9"
         d="M 1028.3,5.39063 1028.11,82.3086 990.387,18.9492 H 977.02 l -37.543,61.711 V 5.39063 H 911.641 V 133.59 h 24.539 l 47.98,-79.6681 47.25,79.6681 h 24.36 l 0.36,-128.19937 h -27.83"
         style="fill:#a48849;fill-opacity:1;fill-rule:nonzero;stroke:none"
         transform="matrix(0.13333333,0,0,-0.13333333,0,173.64)" />
      <path
         id="path10"
         d="M 1085.43,61.8008 V 133.59 h 29.67 V 62.8984 c 0,-24.3593 10.62,-34.4296 28.57,-34.4296 18.13,0 28.56,10.0703 28.56,34.4296 V 133.59 h 29.31 V 61.8008 c 0,-37.7305 -21.61,-58.60158 -58.06,-58.60158 -36.44,0 -58.05,20.87108 -58.05,58.60158"
         style="fill:#a48849;fill-opacity:1;fill-rule:nonzero;stroke:none"
         transform="matrix(0.13333333,0,0,-0.13333333,0,173.64)" />
      <path
         id="path11"
         d="M 1284.67,109.41 H 1260.5 V 64.7305 h 24.17 c 18.13,0 27.29,8.4179 27.29,22.3398 0,14.1017 -9.16,22.3397 -27.29,22.3397 z M 1312.51,5.39063 1287.79,41.1016 H 1260.5 V 5.39063 h -29.67 V 133.59 h 55.49 c 34.25,0 55.67,-17.77 55.67,-46.5197 0,-19.2305 -9.7,-33.332 -26.37,-40.4687 l 28.76,-41.21097 h -31.87"
         style="fill:#a48849;fill-opacity:1;fill-rule:nonzero;stroke:none"
         transform="matrix(0.13333333,0,0,-0.13333333,0,173.64)" />
      <path
         id="path12"
         d="m 1449.67,104.102 c 0,-4.9418 2.01,-8.6137 9.89,-16.3012 12.63,6.7812 16.66,11.539 16.66,17.3982 0,6.231 -4.39,10.621 -12.63,10.621 -8.79,0 -13.92,-4.941 -13.92,-11.718 z m 33.88,-71.0512 -30.95,28.9297 c -11.72,-6.7696 -15.93,-12.6289 -15.93,-20.5117 0,-9.3399 8.79,-15.9297 22.89,-15.9297 8.79,0 17.03,2.5625 23.99,7.5117 z M 1515.78,3.19922 1500.4,17.4805 c -11.72,-9.16019 -26.38,-14.28128 -42.86,-14.28128 -28.2,0 -48.89,14.65238 -48.89,35.16018 0,16.1094 8.6,27.2812 28.2,38.2695 -9.34,9.7109 -13.19,17.9531 -13.19,27.1091 0,18.684 15.75,31.5 39.93,31.5 22.16,0 36.81,-11.359 36.81,-29.488 0,-13.1797 -7.7,-22.8906 -25.09,-32.4102 l 23.44,-21.8007 c 2.74,5.6797 4.94,12.4609 6.41,19.9609 l 22.89,-7.1406 c -2.38,-10.9883 -6.23,-20.8711 -11.72,-29.1211 L 1531.35,21.332 1515.78,3.19922"
         style="fill:#a48849;fill-opacity:1;fill-rule:nonzero;stroke:none"
         transform="matrix(0.13333333,0,0,-0.13333333,0,173.64)" />
      <path
         id="path13"
         d="M 1649.09,55.7617 1631.88,37.8086 V 5.39063 H 1602.4 V 133.59 h 29.48 V 73.6992 l 56.77,59.8908 h 32.97 l -53.11,-57.1408 56.22,-71.05857 h -34.61 l -41.03,50.37107"
         style="fill:#a48849;fill-opacity:1;fill-rule:nonzero;stroke:none"
         transform="matrix(0.13333333,0,0,-0.13333333,0,173.64)" />
      <path
         id="path14"
         d="m 1807.32,55.3906 -20.33,49.0784 -20.33,-49.0784 z m 9.34,-22.5312 h -59.52 L 1745.79,5.39063 h -30.4 L 1772.52,133.59 h 29.31 L 1859.15,5.39063 h -31.14 l -11.35,27.46877"
         style="fill:#a48849;fill-opacity:1;fill-rule:nonzero;stroke:none"
         transform="matrix(0.13333333,0,0,-0.13333333,0,173.64)" />
      <path
         id="path15"
         d="M 1919.21,55.7617 1901.99,37.8086 V 5.39063 h -29.48 V 133.59 h 29.48 V 73.6992 l 56.78,59.8908 h 32.96 l -53.11,-57.1408 56.22,-71.05857 h -34.61 l -41.02,50.37107"
         style="fill:#a48849;fill-opacity:1;fill-rule:nonzero;stroke:none"
         transform="matrix(0.13333333,0,0,-0.13333333,0,173.64)" />
      <path
         id="path16"
         d="M 2107.28,29.1992 V 5.39063 h -99.26 V 133.59 h 96.88 v -23.809 h -67.39 V 81.9414 h 59.52 V 58.8711 h -59.52 V 29.1992 h 69.77"
         style="fill:#a48849;fill-opacity:1;fill-rule:nonzero;stroke:none"
         transform="matrix(0.13333333,0,0,-0.13333333,0,173.64)" />
      <path
         id="path17"
         d="m 2130.9,133.59 h 29.67 V 29.5703 h 64.28 V 5.39063 H 2130.9 V 133.59"
         style="fill:#a48849;fill-opacity:1;fill-rule:nonzero;stroke:none"
         transform="matrix(0.13333333,0,0,-0.13333333,0,173.64)" />
      <path
         id="path18"
         d="m 2368.42,55.3906 -20.33,49.0784 -20.33,-49.0784 z m 9.34,-22.5312 h -59.52 L 2306.89,5.39063 h -30.4 L 2333.62,133.59 h 29.31 L 2420.25,5.39063 h -31.14 l -11.35,27.46877"
         style="fill:#a48849;fill-opacity:1;fill-rule:nonzero;stroke:none"
         transform="matrix(0.13333333,0,0,-0.13333333,0,173.64)" />
      <path
         id="path19"
         d="m 2521.33,43.4883 c 0,10.8008 -8.24,15.9336 -23.62,15.9336 h -34.62 V 27.7383 h 34.62 c 15.38,0 23.62,4.7617 23.62,15.75 z m -58.24,67.7497 V 81.0313 h 29.49 c 14.47,0 22.34,5.1289 22.34,15.1992 0,10.0705 -7.87,15.0075 -22.34,15.0075 z m 88.09,-70.8669 c 0,-22.1602 -17.58,-34.98047 -51.28,-34.98047 h -66.29 V 133.59 h 62.63 c 32.05,0 48.53,-13.371 48.53,-33.328 0,-12.8206 -6.59,-22.7112 -17.03,-28.2112 14.28,-4.5703 23.44,-15.5625 23.44,-31.6797"
         style="fill:#a48849;fill-opacity:1;fill-rule:nonzero;stroke:none"
         transform="matrix(0.13333333,0,0,-0.13333333,0,173.64)" />
      <path
         id="path20"
         d="m 1906.97,276.719 c 104.07,42.117 174.04,119.949 211.26,208.629 V 276.719 Z m -395.04,104.937 c 21.23,-38.261 56.91,-77.445 116.75,-104.937 H 1511.93 Z M 513.371,276.719 c -2.672,26.797 -4.062,53.926 -4.062,81.347 0,487.055 430.136,884.234 969.241,904.434 V 276.719 Z M 1226.35,1268.21 C 845.637,1176.23 553.852,890.641 491.23,536.859 V 1268.21 Z M 1770.58,631.316 H 2107.1 C 2096.4,529.617 2058.48,315.691 1770.58,279.031 Z m -127.94,-9.976 c 64.98,-7.914 87.29,-63.254 94.35,-90.145 h -94.35 z m 94.56,-17.188 c -6.38,9.778 -14.48,19.094 -24.73,27.164 h 24.73 z m -225.27,27.164 h 23.88 c -9.53,-7.527 -17.4,-16.16 -23.88,-25.3 z m 0,-89.855 c 8.49,32.254 32.82,73.5 97.34,79.957 v -90.223 h -97.34 z m 598,123.23 h -598 v 598.279 c 491.47,-14.48 598.27,-454.743 598,-598.279 z m -598,-195.507 V 497.82 H 1737.2 V 279.488 c -64.2,8.66 -199.53,44.27 -225.27,189.696 z m 606.3,382.078 c -28.35,89.488 -71.68,162.328 -114.03,218.788 -50.93,67.91 -136.32,153 -294.2,198.16 h 408.23 z m 32.59,450.238 -1692.961,0.78 V 243.34 H 2151.6 l -0.78,1058.16"
         style="fill:#a48849;fill-opacity:1;fill-rule:nonzero;stroke:none"
         transform="matrix(0.13333333,0,0,-0.13333333,0,173.64)" />
    </g>
  </g>
</svg>
