<?xml version="1.0" encoding="UTF-8" standalone="no"?>
<!-- Created with Inkscape (http://www.inkscape.org/) -->

<svg
   version="1.1"
   id="svg1"
   width="777.22668"
   height="692.81335"
   viewBox="0 0 777.22668 692.81335"
   sodipodi:docname="boda-skog.eps"
   xmlns:inkscape="http://www.inkscape.org/namespaces/inkscape"
   xmlns:sodipodi="http://sodipodi.sourceforge.net/DTD/sodipodi-0.dtd"
   xmlns="http://www.w3.org/2000/svg"
   xmlns:svg="http://www.w3.org/2000/svg">
  <defs
     id="defs1" />
  <sodipodi:namedview
     id="namedview1"
     pagecolor="#ffffff"
     bordercolor="#000000"
     borderopacity="0.25"
     inkscape:showpageshadow="2"
     inkscape:pageopacity="0.0"
     inkscape:pagecheckerboard="0"
     inkscape:deskcolor="#d1d1d1">
    <inkscape:page
       x="0"
       y="0"
       inkscape:label="1"
       id="page1"
       width="777.22668"
       height="692.81335"
       margin="0"
       bleed="0" />
  </sodipodi:namedview>
  <g
     id="g1"
     inkscape:groupmode="layer"
     inkscape:label="1">
    <g
       id="group-R5">
      <path
         id="path2"
         d="m 4626.74,714.59 126.76,97.32 c -42.75,-22.992 -126.76,-58.64 -126.76,-97.32"
         style="fill:#231f20;fill-opacity:1;fill-rule:nonzero;stroke:none"
         transform="matrix(0.13333333,0,0,-0.13333333,0,692.81333)" />
      <path
         id="path3"
         d="m 1831.57,3940.67 c -2.8,-14.74 7.84,-27.71 23.84,-24.55 10.61,2.09 19.45,13.09 37.5,26.22 -19.12,10.97 -29.67,21.79 -39.53,21.2 -8.06,-0.49 -20.07,-13.69 -21.81,-22.87"
         style="fill:#231f20;fill-opacity:1;fill-rule:nonzero;stroke:none"
         transform="matrix(0.13333333,0,0,-0.13333333,0,692.81333)" />
      <path
         id="path4"
         d="m 1841.9,4068.77 c -20.95,-4 -40.71,-11.09 -53.41,15.19 -2.55,5.28 -17.92,10.73 -20.26,8.53 -5.97,-5.61 -12.94,-17.63 -10.55,-23.28 7.91,-18.66 -2.53,-26.74 -14.35,-36.71 -63.66,-53.68 -127.02,-107.7 -190.27,-161.86 -7.54,-6.45 -13.79,-14.4 -20.64,-21.66 21.58,6.82 39.04,17.67 56.25,28.92 71.79,46.93 142.49,95.61 215.52,140.52 74.12,45.59 166.2,-2.63 169.71,-88.07 0.92,-22.16 -7.23,-44.69 -11.18,-66.82 35.1,41.03 40.18,95.32 13.1,141.78 -27.93,47.92 -80.88,73.57 -133.92,63.46"
         style="fill:#231f20;fill-opacity:1;fill-rule:nonzero;stroke:none"
         transform="matrix(0.13333333,0,0,-0.13333333,0,692.81333)" />
      <path
         id="path5"
         d="m 2309.93,3963.1 c -27.31,31.8 -54.81,64.39 -82.93,96.42 -28.06,31.95 -56.76,63.36 -86.85,96.87 -30.02,-25.8 -37.18,-52.66 -17.91,-76.44 48.43,-59.77 98.92,-117.88 149.54,-175.83 5.01,-5.73 18.29,-10.13 24.85,-7.62 30.2,11.53 59.38,25.73 89.07,39.04 -25.59,45.04 -35.02,48.55 -75.77,27.56"
         style="fill:#231f20;fill-opacity:1;fill-rule:nonzero;stroke:none"
         transform="matrix(0.13333333,0,0,-0.13333333,0,692.81333)" />
      <path
         id="path6"
         d="m 5011.89,3375.04 c 0,0 34.04,8.98 58.2,13.12 v 57.05 c -21.87,-37.67 -58.2,-70.17 -58.2,-70.17"
         style="fill:#231f20;fill-opacity:1;fill-rule:nonzero;stroke:none"
         transform="matrix(0.13333333,0,0,-0.13333333,0,692.81333)" />
      <path
         id="path7"
         d="m 4977.86,3321.64 c 8.8,-8.81 31.69,-19.37 50.47,-17.02 13.69,1.71 26.81,-1.34 41.76,-7.17 v 83.83 c -26.93,-30 -102.8,-42.04 -102.8,-42.04 0,0 1.76,-8.8 10.57,-17.6"
         style="fill:#231f20;fill-opacity:1;fill-rule:nonzero;stroke:none"
         transform="matrix(0.13333333,0,0,-0.13333333,0,692.81333)" />
      <path
         id="path8"
         d="m 5014.54,3098.04 c 9.38,-2.93 6.45,-26.7 22.88,-23.77 10.47,1.87 21.06,-1.62 32.67,-5.61 v 77.93 c -7.73,-1.43 -13.7,-2.19 -16.82,-2.19 -17.61,0 -26.41,-7.04 -34.33,-14.96 -7.93,-7.92 -13.79,-28.46 -4.4,-31.4"
         style="fill:#231f20;fill-opacity:1;fill-rule:nonzero;stroke:none"
         transform="matrix(0.13333333,0,0,-0.13333333,0,692.81333)" />
      <path
         id="path9"
         d="m 4253.15,4212.2 c 0.22,-12.76 7.92,-18.26 11,-27.28 3.08,-9.03 4.4,-22.01 4.63,-44.9 0.22,-22.89 10.56,-31.03 17.6,-44.67 7.04,-13.65 31.25,-42.48 35.65,-63.61 4.4,-21.12 5.94,-38.73 -1.54,-41.81 -7.48,-3.08 -12.76,4.62 -14.52,4.4 -1.76,-0.22 -1.54,-25.75 -1.54,-25.75 0,0 14.08,-1.1 26.85,-16.94 12.76,-15.85 9.9,-24.43 9.9,-24.43 0,0 6.6,-0.66 11.22,-5.28 4.62,-4.62 2.2,-13.65 2.2,-13.65 0,0 47.54,-23.1 46.66,-34.55 -0.88,-11.44 -9.68,-16.5 -9.68,-16.5 0,0 11.66,0.43 24.65,1.54 -16.73,-26.41 -81.65,-42.04 -101.02,-31.04 8.58,-29.71 -22.23,-32.79 -22.23,-32.79 0,0 18.49,-2.64 36.53,-30.37 -31.69,0 -57.65,6.61 -57.65,6.61 0,0 -11.89,-46.66 20.68,-71.75 32.58,-25.09 80.99,-29.49 145.25,-17.6 64.26,11.88 115.76,81.13 115.76,81.13 0,0 1.18,-26.12 -7.92,-42.25 -9.1,-16.14 -4.99,-28.47 -7.63,-41.08 -2.64,-12.62 -66.32,-80.11 -129.4,-86.28 20.83,-2.64 54.28,-23.47 67.19,-30.8 12.91,-7.34 36.09,18.77 51.06,4.69 14.96,-14.08 -8.51,-34.63 -24.94,-54.87 -16.43,-20.25 -92.43,-27.88 -92.43,-27.88 0,0 54.58,-31.1 92.13,-26.99 -33.74,-26.71 -114.73,-9.1 -124.7,-5.58 -9.98,3.52 -38.44,-21.13 -32.28,-28.46 6.16,-7.34 4.69,-26.41 4.69,-26.41 0,0 26.71,-1.17 40.2,-13.79 13.5,-12.62 65.44,-44.6 83.93,-47.83 18.48,-3.23 49.58,12.32 59.56,7.04 9.98,-5.28 0,-24.94 -3.23,-46.65 -3.22,-21.72 -17.31,-31.11 -29.05,-34.34 -11.73,-3.22 -25.82,-23.47 -25.82,-23.47 0,0 16.14,-19.37 50.47,-34.33 34.33,-14.97 67.49,-33.45 67.49,-33.45 l -15.26,-13.8 c 32.28,7.34 33.75,3.53 60.16,-7.04 26.41,-10.56 37.56,27.29 56.63,7.63 19.07,-19.66 -19.37,-79.52 -30.22,-94.19 -10.86,-14.67 -79.53,-32.28 -79.53,-32.28 0,0 4.7,-8.21 17.32,-9.68 12.62,-1.47 30.22,2.64 41.67,-12.03 11.44,-14.67 11.44,-29.93 0.88,-39.62 -10.57,-9.68 -23.18,-23.47 -23.18,-23.47 0,0 0,0 9.68,0.14 37.18,0.57 45.77,-11.88 64.26,-7.48 18.49,4.4 34.33,13.21 39.17,25.97 4.84,12.77 2.64,34.77 21.13,50.18 -30.37,-7.04 -54.58,10.12 -51.5,27.73 -18.04,-2.2 -40.05,-1.32 -40.05,-1.32 0,0 40.93,15.84 75.7,72.18 34.78,56.34 37.42,102.12 37.42,102.12 0,0 -14.97,-31.69 -58.98,-33.45 0.88,11.88 23.77,36.09 23.77,36.09 0,0 -64.71,-24.65 -90.24,-7.49 11.01,-0.43 18.93,8.81 3.09,16.29 -36.1,-2.2 -64.26,11.89 -64.71,21.57 -0.44,9.68 4.84,14.96 30.81,10.56 25.97,-4.4 100.8,32.57 106.96,45.78 -17.17,7.04 -31.25,36.09 -22.45,63.38 8.81,27.29 54.14,50.62 54.14,50.62 0,0 -6.6,-0.88 -16.72,18.92 -10.13,19.81 11,36.98 11,36.98 0,0 -36.53,7.48 -55.02,18.92 -18.48,11.45 -29.93,35.21 -24.65,36.09 5.28,0.88 21.57,-6.16 34.33,-13.2 12.77,-7.04 100.36,6.16 105.64,18.05 5.28,11.88 4.4,44.45 4.4,44.45 0,0 -31.25,-27.73 -60.3,-19.81 18.49,-0.44 47.1,38.3 47.1,38.3 0,0 -14.97,-7.49 -20.69,-6.17 37.41,39.18 59.86,163.74 61.18,199.83 1.32,36.1 7.04,62.94 12.76,62.06 5.73,-0.88 -2.19,-44.45 8.37,-51.93 10.56,-7.49 6.16,-41.38 7.92,-71.31 1.76,-29.93 4.4,-85.39 11.44,-104.46 7.05,-19.07 29.35,-51.64 42.26,-54.29 12.91,-2.64 37.56,0.89 42.25,-33.15 4.7,-34.04 -29.63,-63.97 -29.63,-63.97 0,0 13.2,-4.11 18.78,-14.38 5.57,-10.27 27.14,-20.25 27.14,-20.25 0,0 4.84,7.93 18.93,8.37 14.08,0.44 18.48,-21.13 18.48,-21.13 0,0 24.95,26.53 45.58,42.12 v 344.03 L 4253,4215.02 c 0.05,-0.93 0.14,-2.06 0.15,-2.82"
         style="fill:#231f20;fill-opacity:1;fill-rule:nonzero;stroke:none"
         transform="matrix(0.13333333,0,0,-0.13333333,0,692.81333)" />
      <path
         id="path10"
         d="m 729.957,3124 c 41.184,-2.4 82.344,-5.06 123.438,-8.51 66.894,-5.61 101.085,-38.78 116.359,-104.08 10.047,-42.96 17.512,-86.55 25.141,-130.04 6.185,-35.2 8.135,-41.37 30.095,-61.79 1.79,13.8 4.69,23.51 4.01,32.96 -9.02,125.84 -0.85,250.73 28.27,373.25 34.26,144.15 96.16,275.32 200.79,382.94 21.04,21.65 32.11,44.17 32.82,74.5 1.16,49.78 20.02,95.43 54.93,129.23 114.39,110.77 231.49,218.73 348.06,328.25 11.04,-5.71 19.48,-10.08 28.55,-14.77 16.76,10.41 30.57,20.51 15.21,43.28 -10.7,15.88 -0.27,28.26 12.06,37.57 39.66,29.93 84.53,42.71 131.51,24.55 38.76,-14.98 69.39,-10.34 101.33,15.3 27.62,22.19 58.56,40.38 88.67,59.32 40.3,25.34 78.35,23.56 111.39,-7.5 78.65,-73.94 156.26,-148.98 234.18,-223.7 4.32,-4.15 7.53,-9.44 12.36,-15.61 -8.36,-10.8 -16.3,-21.07 -26.44,-34.18 31.66,-32.27 52.43,-73.18 102.28,-84.77 30.61,-7.13 58.87,-22.69 74.49,-54.38 17.77,-36.07 38.06,-70.88 56.41,-106.67 2.98,-5.81 1.55,-13.87 2.63,-26.25 -172.63,3.48 -320.96,-52.48 -443.35,-178.15 -32.45,27.79 -63,53.78 -93.37,80 -25.06,21.64 -51.13,42.32 -74.43,65.73 -18.38,18.47 -32.97,18.74 -53.21,2.91 -79.17,-61.96 -160.66,-121.02 -238.72,-184.33 -92.35,-74.89 -181.9,-153.23 -272.99,-229.67 -19.18,-16.1 -28.53,-34.51 -27.79,-60.4 0.84,-29.35 -1.8,-58.93 -4.8,-88.22 -2.77,-27.05 1.23,-48.89 33.72,-56.1 -3,-54.15 -6.44,-106.71 -8.68,-159.32 -1.88,-44.46 -2.89,-88.97 -3.85,-133.47 h -94.41 c 3.42,87.7 6.43,175.42 10.3,263.1 0.57,12.81 2.2,28.11 9.43,37.61 20.38,26.78 26.76,73.76 10.48,104.89 -61.19,-71.72 -121.71,-277.88 -125.52,-405.6 h -50.4 c 0.6,20.2 1.08,40.4 1.63,60.6 2.21,80.99 4.77,161.98 6.13,242.99 0.17,9.8 -3.45,25.45 -9.94,28.47 -19.02,8.87 -18.44,23.91 -19.44,39.83 -2.36,37.66 -4.93,75.3 -7.41,112.95 -2.52,-0.24 -5.04,-0.49 -7.56,-0.73 -2.66,-47.75 -5.7,-95.48 -7.64,-143.27 -0.38,-9.27 0.37,-23.18 6.1,-27.27 17.94,-12.83 13.79,-30.12 13.76,-46.57 -0.15,-89 -0.74,-178 -0.91,-267 H 944.98 c -0.503,3.89 -0.882,7.81 -1.457,11.69 -9.695,65.38 -21.91,130.42 -34.468,195.33 -6.246,32.28 -28.321,52.99 -60.274,56.49 -39.523,4.33 -79.156,7.91 -118.824,10.94 z m 2205.063,343.51 c 4.2,-86.98 -22.39,-167.29 -58.55,-244.66 -47.24,-101.07 -112.43,-189.82 -190.31,-269.42 -4.13,-4.22 -9.31,-7.4 -17.35,-13.69 -3.6,15.39 -6.5,27.79 -10.51,44.9 -22.42,-18.5 -43.34,-35.75 -67.95,-56.06 -1.59,17.71 -2.72,30.46 -4.4,49.18 -20.62,-18.8 -38.57,-35.17 -59.71,-54.45 -4.4,18.17 -7.45,30.71 -11.9,49.07 -22.15,-18.27 -41.32,-34.07 -64.06,-52.82 -6,15.57 -10.93,28.36 -17.85,46.31 -21.22,-17.28 -41.1,-33.48 -64.21,-52.31 -1.31,18.37 -2.24,31.55 -3.55,49.98 -18.9,-14.02 -34.86,-25.87 -50.83,-37.73 -1.62,1.32 -3.24,2.65 -4.85,3.97 14.07,22.12 28.21,44.2 42.22,66.35 64.39,101.8 126.61,205.04 164.86,319.91 15.36,46.1 24.01,94.97 30.65,143.27 5.32,38.73 -3.59,76.74 -31.11,108.86 2.52,-18.8 5.84,-37.53 7.4,-56.4 6.74,-81.59 -13.24,-158.2 -44.34,-232.67 -44.74,-107.12 -107.27,-203.98 -172.43,-299.34 -1.93,-2.83 -5.29,-4.69 -15.51,-13.48 41.47,201.48 54.07,393.29 -68.36,572.57 22.56,19.18 42.91,40.22 66.72,56.1 139.89,93.3 293.89,130.28 458.97,96.72 108.87,-22.13 180.82,-96.83 186.96,-224.16 z m -49.73,-686.93 v 4.55 c 13.71,-3.31 37.16,4.18 43.82,0.14 8.21,-4.99 36.09,-12.65 54.43,7.45 -24.65,25.97 -18.71,66.69 -11.89,68.67 6.83,1.98 8.81,-5.72 14.53,-5.72 5.72,0 36.09,26.84 36.09,26.84 0,0 16.29,45.34 29.49,103 13.21,57.66 33.01,132.92 33.01,132.92 0,0 20.25,-143.48 7.05,-187.94 5.28,15.4 47.53,60.74 47.53,60.74 0,0 -3.96,-54.58 -31.25,-81.87 10.12,3.08 35.65,4.4 50.62,5.29 14.96,0.88 21.57,29.04 43.57,35.21 22.01,6.16 32.13,16.28 42.26,32.57 10.12,16.28 1.76,14.96 5.28,32.13 3.52,17.17 16.14,41.81 36.38,53.55 20.25,11.74 42.55,-5.28 53.12,1.76 10.56,7.04 25.23,-9.68 52.52,12.91 27.29,22.6 41.38,-1.17 59.86,12.62 18.49,13.79 22.6,40.2 22.6,40.2 0,0 -25.53,-15.4 -73.95,-25.09 -48.42,-9.68 -74.83,-3.96 -74.83,-3.96 l 41.82,20.69 c 0,0 -27.73,17.6 -45.78,19.8 -18.04,2.2 -38.73,5.73 -50.61,26.85 14.08,7.05 60.74,-0.44 103.87,3.08 43.14,3.53 124.56,62.95 124.56,62.95 0,0 -69.1,-12.77 -118.4,-24.65 -49.29,-11.89 -76.58,-9.69 -94.63,-1.76 -18.04,7.92 -29.49,-2.2 -37.85,10.12 -8.36,12.32 -25.53,13.2 -56.34,14.09 19.37,14.08 78.79,19.8 98.15,17.6 19.37,-2.2 81.43,10.12 135.57,44.89 54.14,34.78 129.84,81.87 129.84,81.87 0,0 -100.79,-0.44 -134.24,-15.84 12.32,29.93 44.89,41.37 54.58,54.14 9.68,12.76 45.33,32.57 54.57,58.98 9.25,26.41 31.69,37.85 51.5,74.82 19.81,36.97 28.61,94.19 28.61,94.19 0,0 -58.98,-67.78 -95.95,-101.67 -36.97,-33.89 -92.87,-55.46 -109.16,-55.46 -16.28,0 -38.73,-12.32 -75.7,-33.01 17.16,28.17 64.26,58.54 84.94,76.58 20.69,18.05 44.9,59.43 57.22,88.92 -33.45,4.84 -53.25,-10.13 -80.54,-19.37 -27.29,-9.24 -58.1,-24.65 -58.1,-24.65 l 35.21,37.41 c -16.73,14.09 -39.61,12.33 -71.74,-3.08 20.68,32.13 52.37,33.01 62.94,33.01 10.56,0 46.21,36.54 65.14,51.06 18.93,14.53 31.25,9.68 50.62,13.21 28.79,5.23 26.26,23.47 59.12,45.18 32.87,21.72 59.86,67.49 59.86,67.49 0,0 -31.1,6.46 -53.99,-4.69 -22.89,-11.15 -60.45,-19.07 -60.45,-19.07 l 35.8,33.74 c 0,0 -37.85,9.68 -38.14,24.06 -0.3,14.38 27.29,36.68 41.37,42.84 14.09,6.17 49.59,19.96 66.9,29.05 17.32,9.1 -0.29,34.04 39.03,43.14 -21.13,1.76 -37.56,39.32 -37.27,50.76 0.3,11.45 44.31,24.65 49.59,37.85 5.29,13.21 2.35,20.84 5.29,36.39 2.93,15.55 20.24,23.47 20.83,43.14 0.59,19.65 13.5,41.96 14.38,71.3 0.88,29.34 -9.39,56.34 9.68,88.32 19.07,31.98 8.51,64.26 25.82,60.45 17.32,-3.82 4.7,-171.07 24.36,-188.97 19.66,-17.9 9.98,-62.21 33.74,-64.26 23.77,-2.06 49.3,-20.54 49.3,-49.89 0,-29.34 -56.05,-32.27 -57.81,-36.09 -1.76,-3.81 1.76,-21.42 9.69,-28.75 7.92,-7.34 26.99,-27.88 23.47,-45.19 9.39,0.29 20.54,-17.32 40.49,-24.94 19.96,-7.64 39.62,-2.94 43.14,-2.94 3.52,0 25.82,-22.89 3.23,-56.34 -22.6,-33.45 -65.44,-37.56 -65.44,-37.56 0,0 26.41,-46.36 46.95,-68.37 20.54,-22.01 28.17,-40.49 41.67,-46.07 13.5,-5.57 34.04,-16.72 36.68,-22.3 2.64,-5.57 13.5,-11.15 32.28,-7.33 -16.44,-18.78 -38.74,-12.62 -52.53,-14.38 -13.79,-1.76 -41.08,1.17 -49,9.68 -7.93,8.51 -37.27,18.19 -37.27,18.19 0,0 46.07,-49.59 82.46,-91.55 36.38,-41.96 88.91,-48.71 88.32,-71.3 -0.59,-22.6 -64.56,-27.58 -64.56,-27.58 l 56.93,-22.01 c 0,0 -53.11,-1.76 -63.97,3.52 -10.86,5.28 -34.33,19.95 -53.7,30.81 -19.36,10.86 -59.56,66.61 -59.56,66.61 0,0 14.96,-47.24 26.7,-76.29 11.74,-29.05 61.03,-41.38 60.45,-54 -0.59,-12.61 -39.91,-40.2 -39.91,-40.2 0,0 47.1,-19.36 93.31,-13.64 46.22,5.72 73.51,47.98 84.95,40.05 11.44,-7.92 -20.69,-59.86 -20.69,-59.86 0,0 55.46,37.86 61.18,57.22 5.73,19.37 29.2,64.85 29.2,64.85 0,0 -49.88,-8.21 -67.2,16.43 -13.2,-6.75 -34.33,-3.52 -34.33,-3.52 0,0 85.69,69.25 117.96,113.27 32.28,44.01 68.67,146.42 68.67,146.42 0,0 -53.11,-78.35 -69.25,-93.02 -16.14,-14.67 -39.03,-36.38 -39.03,-36.38 0,0 -2.94,13.2 -3.82,29.93 -16.43,-16.44 -48.41,-19.37 -48.41,-19.37 0,0 81.57,72.48 90.08,93.61 -34.04,-6.75 -87.73,17.31 -114.73,44.3 38.73,-12.61 93.31,-0.88 93.31,-0.88 0,0 -53.11,3.23 -98.59,61.92 22.3,-21.42 99.18,-24.06 132.04,-13.21 -22.89,4.4 -45.77,17.9 -45.77,17.9 0,0 43.13,-4.99 50.47,7.63 7.33,12.62 -8.51,63.09 9.68,77.18 18.19,14.08 57.59,56.55 57.59,56.55 h -13.21 c 0,0 4.18,13.65 10.13,45.27 -7.05,-13.5 -35,-33.16 -35,-33.16 0,0 43.14,90.67 47.98,101.45 4.84,10.79 5.5,29.49 5.94,48.86 0.44,19.37 -1.98,45.99 3.3,57.44 0.3,0.63 0.48,1.58 0.73,2.36 L 2942.73,4860.19 729.176,3808.13 V 2780.58 H 2885.29"
         style="fill:#231f20;fill-opacity:1;fill-rule:nonzero;stroke:none"
         transform="matrix(0.13333333,0,0,-0.13333333,0,692.81333)" />
      <path
         id="path11"
         d="m 5373.88,2732.33 h -213.35 v -860.7 h 213.35 v 860.7"
         style="fill:#231f20;fill-opacity:1;fill-rule:nonzero;stroke:none"
         transform="matrix(0.13333333,0,0,-0.13333333,0,692.81333)" />
      <path
         id="path12"
         d="M 638.738,2780.58 V 3848.9 L 2944.52,4944.79 5160.53,3853.64 V 2780.58 h 213.35 V 3991.99 L 2945.99,5196.08 444.492,3991.99 V 2780.58 h 194.246"
         style="fill:#231f20;fill-opacity:1;fill-rule:nonzero;stroke:none"
         transform="matrix(0.13333333,0,0,-0.13333333,0,692.81333)" />
      <path
         id="path13"
         d="m 444.492,1871.63 h 194.246 v 860.7 H 444.492 v -860.7"
         style="fill:#231f20;fill-opacity:1;fill-rule:nonzero;stroke:none"
         transform="matrix(0.13333333,0,0,-0.13333333,0,692.81333)" />
      <path
         id="path14"
         d="M 5160.53,1823.38 V 1001.66 L 4142.3,219.879 H 1656.97 L 638.738,1008.64 v 814.74 H 444.492 V 921.391 L 1638.63,0 h 2588.88 l 1146.37,910.918 v 912.462 h -213.35"
         style="fill:#231f20;fill-opacity:1;fill-rule:nonzero;stroke:none"
         transform="matrix(0.13333333,0,0,-0.13333333,0,692.81333)" />
      <path
         id="path15"
         d="m 4777.9,830.641 -24.4,-18.731 c 14.57,7.84 24.39,14.219 24.4,18.731"
         style="fill:#231f20;fill-opacity:1;fill-rule:nonzero;stroke:none"
         transform="matrix(0.13333333,0,0,-0.13333333,0,692.81333)" />
      <path
         id="path16"
         d="m 5800.73,2770.58 28.51,62.82 H 0 l 23.3945,-62.82 H 5800.73"
         style="fill:#231f20;fill-opacity:1;fill-rule:nonzero;stroke:none"
         transform="matrix(0.13333333,0,0,-0.13333333,0,692.81333)" />
      <path
         id="path17"
         d="M 28.3359,1833.38 0,1757.29 h 5829.24 l -32.68,76.09 H 28.3359"
         style="fill:#231f20;fill-opacity:1;fill-rule:nonzero;stroke:none"
         transform="matrix(0.13333333,0,0,-0.13333333,0,692.81333)" />
      <path
         id="path18"
         d="m 2858.29,1436.81 c 33.05,13.13 46.19,24.8 46.19,37.93 0,14.1 -12.63,27.23 -35.49,27.23 -22.38,0 -36.48,-12.65 -36.48,-27.23 0,-13.62 8.76,-22.86 25.78,-37.93"
         style="fill:#231f20;fill-opacity:1;fill-rule:nonzero;stroke:none"
         transform="matrix(0.13333333,0,0,-0.13333333,0,692.81333)" />
      <path
         id="path19"
         d="m 2130.48,1494.18 h -70.5 v -92.38 h 70.5 c 36.48,0 59.82,17.02 59.82,45.71 0,28.68 -23.34,46.67 -59.82,46.67"
         style="fill:#231f20;fill-opacity:1;fill-rule:nonzero;stroke:none"
         transform="matrix(0.13333333,0,0,-0.13333333,0,692.81333)" />
      <path
         id="path20"
         d="m 2812.08,1337.61 c 0,-16.06 18.01,-32.09 53.98,-32.09 17.99,0 38.42,4.37 49.11,11.18 l -66.61,57.87 c -26.75,-11.18 -36.48,-24.31 -36.48,-36.96"
         style="fill:#231f20;fill-opacity:1;fill-rule:nonzero;stroke:none"
         transform="matrix(0.13333333,0,0,-0.13333333,0,692.81333)" />
      <path
         id="path21"
         d="m 3974.06,1499.05 c -51.54,0 -94.81,-36.48 -94.81,-95.31 0,-58.84 43.27,-95.3 94.81,-95.3 51.55,0 94.84,36.46 94.84,95.3 0,58.83 -43.29,95.31 -94.84,95.31"
         style="fill:#231f20;fill-opacity:1;fill-rule:nonzero;stroke:none"
         transform="matrix(0.13333333,0,0,-0.13333333,0,692.81333)" />
      <path
         id="path22"
         d="m 4488.49,1389.15 c 0,-74.89 -53.02,-136.14 -153.67,-136.14 -88,0 -160.94,58.33 -160.94,150.73 0,88.99 70.01,150.75 160.94,150.75 100.65,0 142.97,-61.76 143.94,-105.05 0,-2.9 -1.96,-6.3 -7.78,-6.3 h -50.09 c -2.92,0 -6.33,0.96 -7.29,4.85 -5.36,23.35 -28.2,51.06 -78.78,51.06 -53,0 -94.81,-39.4 -94.81,-95.31 0,-61.76 44.73,-95.3 94.81,-95.3 52.51,0 84.11,26.25 86.07,54.45 h -107.46 c -2.92,0 -6.81,3.91 -6.81,6.81 v 36.96 c 0,2.92 3.89,6.81 6.81,6.81 h 175.06 z m -514.43,-136.14 c -87.51,0 -160.93,59.32 -160.93,150.73 0,89.95 73.42,150.75 160.93,150.75 87.52,0 160.97,-60.8 160.97,-150.75 0,-91.41 -73.45,-150.73 -160.97,-150.73 z m -170.12,4.85 h -70.03 c -4.37,0 -7.78,0.97 -10.7,4.37 l -96.28,110.87 -42.78,-41.33 v -68.06 c 0,-2.93 -2.93,-5.85 -5.85,-5.85 h -54.44 c -2.92,0 -5.84,2.92 -5.84,5.85 v 280.08 c 0,2.92 2.92,5.82 5.84,5.82 h 54.44 c 2.92,0 5.85,-2.9 5.85,-5.82 v -128.87 h 0.96 c 0,0 8.28,9.24 18.49,18.97 l 112.8,110.38 c 4.39,4.37 7.8,5.34 12.65,5.34 h 69.05 c 3.41,0 4.37,-2.42 4.37,-3.4 0,-1.45 -0.48,-2.42 -3.4,-5.34 l -125.93,-122.55 132.74,-152.2 c 1.95,-1.93 2.43,-2.9 2.43,-4.85 0,-1.45 -0.96,-3.41 -4.37,-3.41 z m -473.57,-4.85 c -88.99,0 -138.1,42.3 -138.1,90.44 v 3.89 c 0,4.85 3.89,8.74 9.23,8.74 h 47.17 c 5.84,0 8.74,-2.42 9.73,-7.29 4.85,-24.8 25.76,-40.35 71.97,-40.35 46.67,0 67.58,17.51 67.58,38.41 0,13.62 -9.73,25.77 -38.9,28.2 l -75.85,6.33 c -59.32,4.85 -90.93,32.09 -90.93,75.86 0,50.55 44.23,97.25 130.3,97.25 88.99,0 127.89,-41.34 127.89,-88.03 0,-4.37 -3.4,-8.26 -9.22,-8.26 h -48.15 c -4.87,0 -7.79,1.45 -8.76,7.29 -2.92,17.03 -19.44,33.56 -62.24,33.56 -40.85,0 -63.69,-16.53 -63.69,-37.93 0,-13.13 8.74,-22.86 35.49,-24.79 l 75.38,-6.33 c 68.06,-5.84 94.81,-39.88 94.81,-80.22 0,-45.73 -39.38,-96.77 -133.71,-96.77 z m -278.55,4.85 h -62.72 c -2.92,0 -6.33,0.49 -9.25,2.92 l -21.39,18.48 c -23.35,-16.04 -55.43,-26.25 -92.4,-26.25 -81.19,0 -116.22,45.22 -116.22,83.63 0,32.57 17.53,56.88 55.94,76.34 -22.38,21.39 -34.53,38.9 -34.53,61.76 0,44.25 35.98,79.75 97.74,79.75 63.2,0 96.76,-41.34 96.76,-79.75 0,-35.01 -17.99,-55.43 -64.19,-76.34 l 53.49,-45.72 c 10.22,14.6 14.59,36.47 14.59,53.98 0,4.37 2.44,6.81 7.77,6.81 h 45.71 c 7.31,0 8.76,-2.92 8.76,-7.3 v -1.95 c 0,-30.13 -9.73,-65.16 -32.57,-90.92 l 54.44,-47.66 c 1.47,-1.45 2.44,-2.42 2.44,-4.37 0,-1.45 -0.97,-3.41 -4.37,-3.41 z m -611.14,0 h -124 c -2.92,0 -5.85,2.92 -5.85,5.85 v 280.08 c 0,2.92 2.93,5.82 5.85,5.82 h 123.01 c 92.39,0 161.44,-56.88 161.44,-145.87 0,-88.01 -58.35,-145.88 -160.45,-145.88 z m -186.2,0 h -64.66 c -2.44,0 -5.84,1.96 -7.8,4.86 l -59.32,86.55 h -62.72 v -85.56 c 0,-2.93 -2.92,-5.85 -5.84,-5.85 h -54.45 c -2.92,0 -5.84,2.92 -5.84,5.85 v 280.08 c 0,2.92 2.92,5.82 5.84,5.82 h 135.18 c 70.98,0 121.56,-38.41 121.56,-102.1 0,-44.26 -26.75,-73.93 -65.64,-87.52 V 1359 c 0,0 8.74,-9.22 15.55,-19.44 l 49.13,-71.97 c 2.41,-3.4 2.9,-5.36 2.9,-6.32 0,-1.96 -0.97,-3.41 -3.89,-3.41 z m -475.51,-4.85 c -87.52,0 -160.94,59.32 -160.94,150.73 0,89.95 73.42,150.75 160.94,150.75 87.52,0 160.96,-60.8 160.96,-150.75 0,-91.41 -73.44,-150.73 -160.96,-150.73 z m -211.47,111.83 c 0,-65.64 -38.42,-111.83 -120.09,-111.83 -76.83,0 -112.82,44.23 -112.82,86.55 v 15.07 c 0,3.4 3.88,7.77 8.28,7.77 h 51.04 c 2.92,0 6.8,-3.88 6.8,-6.8 v -8.26 c 0,-23.35 19.46,-38.9 46.7,-38.9 36.94,0 53.96,21.39 53.96,55.92 v 179.43 c 0,2.92 2.92,5.82 5.84,5.82 h 54.47 c 2.92,0 5.82,-2.9 5.82,-5.82 z M 729.176,1823.38 V 1061.69 L 1580.08,402.539 c 81.1,25.5 390.1,123.602 481.51,166.77 105.54,49.832 328.34,152.441 378.18,187.621 49.84,35.179 307.82,111.398 430.95,105.539 123.12,-5.867 231.59,-87.949 471.98,-161.239 240.39,-73.289 554.07,-128.992 671.34,-131.921 80.62,-2.02 218.07,8.441 379.94,-33.43 l 66.99,51.43 c -87.98,30.3 -221.73,43.562 -282.76,43.562 -70.36,0 -551.14,-17.59 -961.57,172.957 0,0 130.27,50.16 235.8,111.723 105.54,61.57 240.81,94.409 286.34,96.969 70.2,3.94 221.7,-39.141 333.11,-74.321 111.4,-35.179 238.53,-6.14 300.09,-51 61.56,-44.859 311.93,-52.519 405.92,-56.551 v -0.007 l 292.19,224.349 v 768.39 H 729.176"
         style="fill:#231f20;fill-opacity:1;fill-rule:nonzero;stroke:none"
         transform="matrix(0.13333333,0,0,-0.13333333,0,692.81333)" />
      <path
         id="path23"
         d="m 2439.69,1494.18 h -62.73 V 1313.3 h 63.72 c 61.73,0 94.32,35 94.32,90.44 0,55.43 -39.88,90.44 -95.31,90.44"
         style="fill:#231f20;fill-opacity:1;fill-rule:nonzero;stroke:none"
         transform="matrix(0.13333333,0,0,-0.13333333,0,692.81333)" />
      <path
         id="path24"
         d="m 1778.97,1499.05 c -51.54,0 -94.81,-36.48 -94.81,-95.31 0,-58.84 43.27,-95.3 94.81,-95.3 51.55,0 94.83,36.46 94.83,95.3 0,58.83 -43.28,95.31 -94.83,95.31"
         style="fill:#231f20;fill-opacity:1;fill-rule:nonzero;stroke:none"
         transform="matrix(0.13333333,0,0,-0.13333333,0,692.81333)" />
      <path
         id="path25"
         d="m 3330.76,2448.05 h -145.07 v -329.37 h 147.32 c 142.82,0 218.17,63.76 218.17,164.69 0,100.94 -92.22,164.68 -220.42,164.68"
         style="fill:#231f20;fill-opacity:1;fill-rule:nonzero;stroke:none"
         transform="matrix(0.13333333,0,0,-0.13333333,0,692.81333)" />
      <path
         id="path26"
         d="m 1587.63,2247.95 h -190.05 v -129.27 h 193.44 c 85.46,0 119.2,21.26 119.2,63.76 0,38.95 -38.24,65.51 -122.59,65.51"
         style="fill:#231f20;fill-opacity:1;fill-rule:nonzero;stroke:none"
         transform="matrix(0.13333333,0,0,-0.13333333,0,692.81333)" />
      <path
         id="path27"
         d="m 4222.57,2396.69 h -6.74 c 0,0 -23.63,-56.66 -47.24,-94.72 l -60.73,-98.29 h 222.67 l -60.72,98.29 c -23.63,38.06 -47.24,94.72 -47.24,94.72"
         style="fill:#231f20;fill-opacity:1;fill-rule:nonzero;stroke:none"
         transform="matrix(0.13333333,0,0,-0.13333333,0,692.81333)" />
      <path
         id="path28"
         d="m 2423.2,2456.9 c -119.2,0 -219.29,-66.4 -219.29,-173.53 0,-107.14 100.09,-173.54 219.29,-173.54 119.22,0 219.3,66.4 219.3,173.54 0,107.13 -100.08,173.53 -219.3,173.53"
         style="fill:#231f20;fill-opacity:1;fill-rule:nonzero;stroke:none"
         transform="matrix(0.13333333,0,0,-0.13333333,0,692.81333)" />
      <path
         id="path29"
         d="m 4590.31,2017.76 h -133.82 c -13.5,0 -16.87,0.88 -23.61,11.5 l -50.61,80.57 h -328.39 l -48.36,-80.57 c -6.75,-10.62 -10.13,-11.5 -23.61,-11.5 h -133.84 c -6.74,0 -8.99,3.54 -8.99,6.19 0,2.66 2.25,7.08 4.5,10.62 l 317.14,514.42 h 116.96 l 317.14,-514.42 c 2.25,-3.54 4.5,-7.96 4.5,-10.62 0,-2.65 -2.25,-6.19 -9.01,-6.19 z m -1257.3,0 h -286.78 c -6.74,0 -13.5,5.31 -13.5,10.62 v 509.98 c 0,5.31 6.76,10.63 13.5,10.63 h 284.53 c 213.68,0 373.37,-103.59 373.37,-265.62 0,-160.26 -134.95,-265.61 -371.12,-265.61 z m -909.81,-8.87 c -202.42,0 -372.23,108.02 -372.23,274.48 0,163.8 169.81,274.47 372.23,274.47 202.43,0 372.25,-110.67 372.25,-274.47 0,-166.46 -169.82,-274.48 -372.25,-274.48 z m -816.45,8.87 h -348.62 c -6.75,0 -13.5,5.31 -13.5,10.62 v 509.98 c 0,5.31 6.75,10.63 13.5,10.63 h 345.25 c 152.95,0 233.92,-63.76 233.92,-146.1 0,-42.49 -21.37,-76.13 -58.48,-100.04 v -1.77 c 52.86,-26.56 84.35,-69.07 84.35,-123.96 0,-101.81 -94.46,-159.36 -256.42,-159.36 z m 4176.61,714.57 H 37.6445 L 200.391,2295.35 42.582,1871.63 H 5780.13 l -188.39,438.56 191.62,422.14"
         style="fill:#231f20;fill-opacity:1;fill-rule:nonzero;stroke:none"
         transform="matrix(0.13333333,0,0,-0.13333333,0,692.81333)" />
      <path
         id="path30"
         d="m 1684.36,2393.16 c 0,30.1 -30.37,54.89 -102.35,54.89 h -184.43 v -108.02 h 195.68 c 67.48,0 91.1,24.79 91.1,53.13"
         style="fill:#231f20;fill-opacity:1;fill-rule:nonzero;stroke:none"
         transform="matrix(0.13333333,0,0,-0.13333333,0,692.81333)" />
    </g>
  </g>
</svg>
