<?xml version="1.0" encoding="UTF-8" standalone="no"?>
<!-- Created with Inkscape (http://www.inkscape.org/) -->

<svg
   version="1.1"
   id="svg1"
   width="302.35999"
   height="167.96001"
   viewBox="0 0 302.35999 167.96001"
   sodipodi:docname="bueras.eps"
   xmlns:inkscape="http://www.inkscape.org/namespaces/inkscape"
   xmlns:sodipodi="http://sodipodi.sourceforge.net/DTD/sodipodi-0.dtd"
   xmlns="http://www.w3.org/2000/svg"
   xmlns:svg="http://www.w3.org/2000/svg">
  <defs
     id="defs1" />
  <sodipodi:namedview
     id="namedview1"
     pagecolor="#ffffff"
     bordercolor="#000000"
     borderopacity="0.25"
     inkscape:showpageshadow="2"
     inkscape:pageopacity="0.0"
     inkscape:pagecheckerboard="0"
     inkscape:deskcolor="#d1d1d1">
    <inkscape:page
       x="0"
       y="0"
       inkscape:label="1"
       id="page1"
       width="302.35999"
       height="167.96001"
       margin="0"
       bleed="0" />
  </sodipodi:namedview>
  <g
     id="g1"
     inkscape:groupmode="layer"
     inkscape:label="1">
    <g
       id="group-R5">
      <path
         id="path2"
         d="m 1035.31,543.488 c 32.42,0 64.29,26.934 64.29,78.586 v 3.289 c 0,53.848 -32.42,72.532 -64.29,72.532 H 997.941 V 543.488 Z m -5.5,187.383 c 32.42,0 64.29,21.422 64.29,69.781 v 3.297 c 0,48.906 -31.87,70.336 -64.29,70.336 H 997.941 V 730.871 Z M 979.262,511.066 c -12.645,0 -18.684,9.895 -18.684,18.137 v 359.371 c 0,8.235 6.039,18.133 18.684,18.133 h 50.548 c 59.89,0 101.66,-41.762 101.66,-96.16 v -4.953 c 0,-35.711 -17.59,-73.633 -51.66,-86.27 45.06,-19.226 57.7,-61.539 57.7,-96.156 v -4.395 c 0,-62.101 -42.86,-107.707 -102.2,-107.707 h -56.048"
         style="fill:#231f20;fill-opacity:1;fill-rule:nonzero;stroke:none"
         transform="matrix(0.13333333,0,0,-0.13333333,0,167.96)" />
      <path
         id="path3"
         d="m 1367.18,602.836 c 0,-55.5 -31.32,-97.258 -87.38,-97.258 -56.04,0 -87.36,41.758 -87.36,97.258 v 291.227 c 0,8.246 6.04,18.132 18.13,18.132 13.19,0 19.23,-9.886 19.23,-18.132 V 603.391 c 0,-45.614 22.53,-65.946 50,-65.946 27.48,0 50.01,20.332 50.01,65.946 v 290.672 c 0,8.246 6.05,18.132 18.68,18.132 12.64,0 18.69,-9.886 18.69,-18.132 V 602.836"
         style="fill:#231f20;fill-opacity:1;fill-rule:nonzero;stroke:none"
         transform="matrix(0.13333333,0,0,-0.13333333,0,167.96)" />
      <path
         id="path4"
         d="m 1435.85,888.574 c 0,8.235 6.03,18.133 18.68,18.133 h 121.43 c 10.44,0 17.04,-7.148 17.04,-16.484 0,-9.344 -6.6,-15.938 -17.04,-15.938 h -102.2 V 727.57 h 75.28 c 10.99,0 17.58,-7.14 17.58,-16.484 0,-9.344 -6.59,-16.484 -17.58,-16.484 h -75.28 V 543.488 h 102.2 c 10.44,0 17.04,-6.59 17.04,-15.937 0,-9.336 -6.6,-16.485 -17.04,-16.485 h -121.43 c -12.65,0 -18.68,9.895 -18.68,18.137 v 359.371"
         style="fill:#231f20;fill-opacity:1;fill-rule:nonzero;stroke:none"
         transform="matrix(0.13333333,0,0,-0.13333333,0,167.96)" />
      <path
         id="path5"
         d="m 1715.52,719.324 c 29.66,0 59.33,23.082 59.33,75.285 v 3.301 c 0,52.195 -29.67,76.375 -59.33,76.375 h -31.88 V 719.324 Z m 6.04,-32.965 h -37.92 V 523.703 c 0,-8.23 -7.14,-18.125 -19.23,-18.125 -12.63,0 -18.68,9.895 -18.68,18.125 v 364.871 c 0,8.235 6.05,18.133 18.68,18.133 h 51.11 c 57.14,0 96.7,-46.715 96.7,-108.254 v -4.39 c 0,-45.067 -20.88,-81.325 -54.4,-97.817 l 68.13,-163.195 c 7.15,-13.731 -2.19,-27.473 -15.38,-27.473 -6.59,0 -13.74,1.641 -18.13,11.543 l -70.88,169.238"
         style="fill:#231f20;fill-opacity:1;fill-rule:nonzero;stroke:none"
         transform="matrix(0.13333333,0,0,-0.13333333,0,167.96)" />
      <path
         id="path6"
         d="m 1929.25,985.281 v -4.941 c 0,-20.883 14.83,-30.231 29.67,-30.231 14.84,0 29.67,9.348 29.67,30.231 v 4.941 c 0,20.879 -14.83,30.229 -29.67,30.229 -14.84,0 -29.67,-9.35 -29.67,-30.229 z M 1918.26,652.84 h 81.32 l -26.37,118.687 c -4.95,23.633 -8.8,48.356 -13.74,77.481 h -1.1 c -4.4,-25.278 -10.99,-65.391 -13.73,-77.481 z m -18.14,332.441 c 0,31.319 23.64,57.699 58.8,57.699 34.62,0 58.79,-26.38 58.79,-57.699 v -5.492 c 0,-31.875 -24.17,-57.148 -58.79,-57.148 -35.16,0 -58.8,25.273 -58.8,57.148 z m -10.43,-464.32 c -2.75,-11.535 -8.79,-15.383 -17.58,-15.383 -13.74,0 -23.09,9.348 -18.69,26.379 l 87.37,362.656 c 2.74,11.543 10.99,17.582 18.68,17.582 6.05,0 14.83,-4.39 18.14,-17.582 l 87.36,-362.656 c 3.85,-15.937 -4.4,-26.379 -18.68,-26.379 -8.79,0 -14.84,3.848 -17.58,15.383 l -21.98,98.914 h -95.62 l -21.42,-98.914"
         style="fill:#231f20;fill-opacity:1;fill-rule:nonzero;stroke:none"
         transform="matrix(0.13333333,0,0,-0.13333333,0,167.96)" />
      <path
         id="path7"
         d="m 2097.93,581.957 -3.3,15.938 c -3.29,15.925 3.84,27.468 17.03,27.468 11.54,0 17.59,-9.336 18.69,-18.679 l 2.74,-17.032 c 6.61,-38.468 25.28,-51.105 47.82,-51.105 26.92,0 50.54,17.031 50.54,60.441 0,32.422 -13.19,54.403 -25.27,67.039 l -61,61.543 c -18.68,18.684 -41.21,42.86 -41.21,90.118 0,55.5 31.88,94.507 82.97,94.507 56.6,0 80.77,-50.55 80.77,-77.468 v -3.301 c 0,-7.696 -6.04,-15.934 -17.57,-15.934 -12.1,0 -16.49,8.789 -19.79,20.332 l -1.09,5.489 c -6.06,23.632 -21.43,37.914 -42.32,37.914 -25.83,0 -46.7,-20.332 -46.7,-59.344 0,-26.926 10.43,-43.957 21.43,-56.043 l 75.28,-76.934 c 9.34,-9.336 30.76,-35.164 30.76,-84.617 0,-59.348 -32.41,-96.711 -85.17,-96.711 -54.94,0 -76.92,40.664 -84.61,76.379"
         style="fill:#231f20;fill-opacity:1;fill-rule:nonzero;stroke:none"
         transform="matrix(0.13333333,0,0,-0.13333333,0,167.96)" />
      <path
         id="path8"
         d="m 300.516,291.215 c 0,6.277 4.593,13.789 14.207,13.789 h 92.34 c 7.933,0 12.949,-5.43 12.949,-12.531 0,-7.11 -5.016,-12.11 -12.949,-12.11 H 329.344 V 168.801 h 57.246 c 8.355,0 13.371,-5.442 13.371,-12.539 0,-7.102 -5.016,-12.543 -13.371,-12.543 H 329.344 V 28.8281 h 77.719 c 7.933,0 12.949,-5.0195 12.949,-12.1289 0,-7.08982 -5.016,-12.52732 -12.949,-12.52732 h -92.34 c -9.614,0 -14.207,7.52732 -14.207,13.78902 V 291.215"
         style="fill:#231f20;fill-opacity:1;fill-rule:nonzero;stroke:none"
         transform="matrix(0.13333333,0,0,-0.13333333,0,167.96)" />
      <path
         id="path9"
         d="m 474.305,4.17188 c -9.614,0 -14.207,7.52732 -14.207,13.78902 V 295.402 c 0,6.262 4.593,13.789 14.207,13.789 9.187,0 14.621,-7.527 14.621,-13.789 V 28.8281 h 70.613 c 7.934,0 12.527,-5.0195 12.527,-12.1289 0,-7.08982 -4.593,-12.52732 -12.527,-12.52732 h -85.234"
         style="fill:#231f20;fill-opacity:1;fill-rule:nonzero;stroke:none"
         transform="matrix(0.13333333,0,0,-0.13333333,0,167.96)" />
      <path
         id="path10"
         d="m 607.563,291.215 c 0,6.277 4.593,13.789 14.207,13.789 h 92.339 c 7.934,0 12.95,-5.43 12.95,-12.531 0,-7.11 -5.016,-12.11 -12.95,-12.11 H 636.391 V 168.801 h 57.246 c 8.359,0 13.367,-5.442 13.367,-12.539 0,-7.102 -5.008,-12.543 -13.367,-12.543 H 636.391 V 28.8281 h 77.718 c 7.934,0 12.95,-5.0195 12.95,-12.1289 0,-7.08982 -5.016,-12.52732 -12.95,-12.52732 H 621.77 c -9.614,0 -14.207,7.52732 -14.207,13.78902 V 291.215"
         style="fill:#231f20;fill-opacity:1;fill-rule:nonzero;stroke:none"
         transform="matrix(0.13333333,0,0,-0.13333333,0,167.96)" />
      <path
         id="path11"
         d="m 767.141,295.402 c 0,6.262 4.593,13.789 14.211,13.789 9.187,0 14.617,-7.527 14.617,-13.789 V 159.609 l 84.824,142.473 c 3.34,5.02 7.934,7.109 12.113,7.109 9.192,0 14.625,-7.109 14.625,-15.046 0,-2.93 -1.676,-5.852 -3.343,-8.352 L 844.438,188.852 916.723,23.8086 C 923.406,11.2813 915.887,0 904.605,0 900.008,0 894.156,0.828125 891.652,6.67969 L 825.633,162.949 795.969,113.23 V 13.7813 C 795.969,7.51172 790.539,0 781.352,0 771.734,0 767.141,7.51172 767.141,13.7813 V 295.402"
         style="fill:#231f20;fill-opacity:1;fill-rule:nonzero;stroke:none"
         transform="matrix(0.13333333,0,0,-0.13333333,0,167.96)" />
      <path
         id="path12"
         d="m 1059.17,305.004 c 7.94,0 13.37,-5.43 13.37,-12.531 0,-7.11 -5.43,-12.11 -13.37,-12.11 H 1015.3 V 13.7813 C 1015.3,7.51172 1010.7,0 1001.09,0 991.898,0 986.883,7.51172 986.883,13.7813 V 280.363 H 943.43 c -7.938,0 -12.953,5 -12.953,12.11 0,7.101 5.015,12.531 12.953,12.531 h 115.74"
         style="fill:#231f20;fill-opacity:1;fill-rule:nonzero;stroke:none"
         transform="matrix(0.13333333,0,0,-0.13333333,0,167.96)" />
      <path
         id="path13"
         d="m 1153.56,162.531 c 22.57,0 45.13,17.547 45.13,57.25 v 2.508 c 0,39.688 -22.56,58.074 -45.13,58.074 h -24.23 V 162.531 Z m 4.6,-25.07 h -28.83 V 13.7813 C 1129.33,7.51172 1123.9,0 1114.71,0 1105.1,0 1100.5,7.51172 1100.5,13.7813 V 291.215 c 0,6.277 4.6,13.789 14.21,13.789 h 38.85 c 43.46,0 73.54,-35.508 73.54,-82.305 v -3.34 c 0,-34.257 -15.87,-61.847 -41.36,-74.379 L 1237.55,20.8906 C 1242.98,10.4414 1235.88,0 1225.85,0 c -5.01,0 -10.45,1.25 -13.79,8.76953 l -53.9,128.69147"
         style="fill:#231f20;fill-opacity:1;fill-rule:nonzero;stroke:none"
         transform="matrix(0.13333333,0,0,-0.13333333,0,167.96)" />
      <path
         id="path14"
         d="M 1305.62,13.7813 C 1305.62,7.51172 1300.61,0 1291,0 c -9.61,0 -14.21,7.51172 -14.21,13.7813 V 295.402 c 0,6.262 4.6,13.789 14.21,13.789 9.19,0 14.62,-7.527 14.62,-13.789 V 13.7813"
         style="fill:#231f20;fill-opacity:1;fill-rule:nonzero;stroke:none"
         transform="matrix(0.13333333,0,0,-0.13333333,0,167.96)" />
      <path
         id="path15"
         d="m 1349.48,58.0781 -2.5,12.1133 c -2.51,12.1172 2.92,20.8867 12.95,20.8867 8.77,0 13.37,-7.0898 14.2,-14.1992 l 2.1,-12.9492 c 5.01,-29.25 19.21,-38.8711 36.35,-38.8711 20.46,0 38.43,12.9609 38.43,45.9727 0,24.6601 -10.03,41.3667 -19.22,50.9807 l -46.37,46.789 c -14.21,14.199 -31.34,32.59 -31.34,68.527 0,42.188 24.23,71.863 63.09,71.863 43.03,0 61.42,-38.445 61.42,-58.91 v -2.511 c 0,-5.848 -4.6,-12.122 -13.37,-12.122 -9.2,0 -12.54,6.692 -15.05,15.473 l -0.83,4.168 c -4.6,17.965 -16.3,28.824 -32.17,28.824 -19.63,0 -35.51,-15.449 -35.51,-45.125 0,-20.468 7.94,-33.418 16.29,-42.609 l 57.24,-58.508 c 7.1,-7.101 23.4,-26.73 23.4,-64.3319 C 1478.59,28.3984 1453.94,0 1413.83,0 c -41.78,0 -58.5,30.9102 -64.35,58.0781"
         style="fill:#231f20;fill-opacity:1;fill-rule:nonzero;stroke:none"
         transform="matrix(0.13333333,0,0,-0.13333333,0,167.96)" />
      <path
         id="path16"
         d="m 1523.27,295.402 c 0,6.262 4.59,13.789 14.21,13.789 9.19,0 14.62,-7.527 14.62,-13.789 V 159.609 l 84.82,142.473 c 3.34,5.02 7.93,7.109 12.11,7.109 9.19,0 14.63,-7.109 14.63,-15.046 0,-2.93 -1.68,-5.852 -3.34,-8.352 l -59.76,-96.941 72.29,-165.0434 C 1679.53,11.2813 1672.02,0 1660.73,0 c -4.6,0 -10.45,0.828125 -12.95,6.67969 L 1581.76,162.949 1552.1,113.23 V 13.7813 C 1552.1,7.51172 1546.67,0 1537.48,0 c -9.62,0 -14.21,7.51172 -14.21,13.7813 V 295.402"
         style="fill:#231f20;fill-opacity:1;fill-rule:nonzero;stroke:none"
         transform="matrix(0.13333333,0,0,-0.13333333,0,167.96)" />
      <path
         id="path17"
         d="m 1742.59,111.98 h 61.84 l -20.06,90.25 c -3.76,17.961 -6.69,36.758 -10.45,58.907 h -0.83 c -3.34,-19.215 -8.36,-49.715 -10.45,-58.907 z M 1720.87,11.6992 C 1718.78,2.92188 1714.18,0 1707.5,0 c -10.45,0 -17.55,7.10156 -14.21,20.0586 l 66.43,275.7544 c 2.09,8.781 8.35,13.378 14.2,13.378 4.6,0 11.29,-3.339 13.8,-13.378 L 1854.15,20.0586 C 1857.08,7.92969 1850.81,0 1839.95,0 c -6.69,0 -11.29,2.92188 -13.38,11.6992 l -16.7,75.211 h -72.71 l -16.29,-75.211"
         style="fill:#231f20;fill-opacity:1;fill-rule:nonzero;stroke:none"
         transform="matrix(0.13333333,0,0,-0.13333333,0,167.96)" />
      <path
         id="path18"
         d="m 1985.72,111.98 h 61.84 l -20.06,90.25 c -3.75,17.961 -6.68,36.758 -10.45,58.907 h -0.83 c -3.34,-19.215 -8.36,-49.715 -10.44,-58.907 z M 1963.99,11.6992 C 1961.9,2.92188 1957.31,0 1950.62,0 c -10.44,0 -17.55,7.10156 -14.2,20.0586 l 66.44,275.7544 c 2.08,8.781 8.34,13.378 14.19,13.378 4.6,0 11.29,-3.339 13.8,-13.378 L 2097.27,20.0586 C 2100.2,7.92969 2093.93,0 2083.07,0 c -6.69,0 -11.29,2.92188 -13.37,11.6992 l -16.7,75.211 h -72.71 l -16.3,-75.211"
         style="fill:#231f20;fill-opacity:1;fill-rule:nonzero;stroke:none"
         transform="matrix(0.13333333,0,0,-0.13333333,0,167.96)" />
      <path
         id="path19"
         d="m 2190,28.8281 c 24.66,0 48.88,20.4727 48.88,59.75 v 2.5 c 0,40.9419 -24.64,55.1519 -48.88,55.1519 h -28.4 V 28.8281 Z m -4.17,142.4729 c 24.66,0 48.88,16.301 48.88,53.07 v 2.508 c 0,37.187 -24.22,53.484 -48.88,53.484 H 2161.6 V 171.301 Z M 2147.39,4.17188 c -9.62,0 -14.21,7.52732 -14.21,13.78902 V 291.215 c 0,6.277 4.59,13.789 14.21,13.789 h 38.44 c 45.54,0 77.29,-31.75 77.29,-73.113 v -3.75 c 0,-27.172 -13.37,-56 -39.27,-65.61 34.26,-14.621 43.86,-46.793 43.86,-73.1091 v -3.3516 c 0,-47.2187 -32.59,-81.89842 -77.71,-81.89842 h -42.61"
         style="fill:#231f20;fill-opacity:1;fill-rule:nonzero;stroke:none"
         transform="matrix(0.13333333,0,0,-0.13333333,0,167.96)" />
      <path
         id="path20"
         d="m 410.418,566.293 c 21.895,0 43.789,0.066 65.684,-0.02 12.187,-0.058 14.691,-3.136 14.687,-17.277 -0.004,-11.59 -3.266,-15.183 -14.434,-15.203 -44.339,-0.07 -88.679,-0.078 -133.023,-0.012 -10.512,0.012 -13.914,4.024 -13.953,15.774 -0.051,13.105 2.625,16.601 13.695,16.679 22.446,0.157 44.899,0.047 67.344,0.059"
         style="fill:#231f20;fill-opacity:1;fill-rule:nonzero;stroke:none"
         transform="matrix(0.13333333,0,0,-0.13333333,0,167.96)" />
      <path
         id="path21"
         d="m 409.992,516.488 c 20.196,0 40.391,0.047 60.586,-0.019 10.797,-0.039 13.82,-3.321 13.902,-14.621 0.098,-13.7 -2.675,-17.578 -13.609,-17.606 -40.668,-0.129 -81.336,-0.129 -122,-0.012 -9.973,0.032 -13.402,4.571 -13.32,16.497 0.078,12.07 3.183,15.703 13.851,15.742 20.196,0.066 40.395,0.019 60.59,0.019"
         style="fill:#231f20;fill-opacity:1;fill-rule:nonzero;stroke:none"
         transform="matrix(0.13333333,0,0,-0.13333333,0,167.96)" />
      <path
         id="path22"
         d="m 410.262,466.926 c 11.078,-0.008 22.16,0.156 33.226,-0.067 8.352,-0.156 11.957,-3.996 12.203,-12.238 0.075,-2.469 0.075,-4.949 -0.003,-7.422 -0.27,-8.398 -3.684,-12.469 -12.024,-12.578 -22.426,-0.273 -44.859,-0.223 -67.285,0.02 -7.461,0.078 -11.781,4.172 -11.789,11.972 0,3.028 -0.125,6.067 0.047,9.082 0.398,7.188 4.195,11.164 11.562,11.211 11.352,0.09 22.711,0.032 34.063,0.02"
         style="fill:#231f20;fill-opacity:1;fill-rule:nonzero;stroke:none"
         transform="matrix(0.13333333,0,0,-0.13333333,0,167.96)" />
      <path
         id="path23"
         d="m 637.449,507.055 c -8.011,-3.282 -16.988,0.566 -20.394,8.75 -3.453,8.289 0.211,17.285 8.398,20.644 8.164,3.348 17.469,-0.422 20.86,-8.449 3.503,-8.309 -0.368,-17.461 -8.864,-20.945 z m 39.067,27.5 c 99.293,82.078 161.25,210.746 146.601,356.656 C 800.453,1116.87 595.219,1284.77 361.996,1256.64 145.484,1230.52 -22.8359,1035.74 2.53516,804.563 26.1406,589.457 204.645,462.258 346.023,446.352 c 0.352,5.964 0.7,11.921 1.098,18.699 C 240.16,485.316 154.027,538.254 91.5703,626.703 29.0352,715.258 7.52734,813.879 26.9844,920.207 61.0898,1106.57 227.953,1243.52 421.324,1239.32 619.738,1235.01 785.398,1081.7 803.406,884.285 815.246,754.531 760.723,634.129 669.699,554.965 l -0.008,0.027 c -4.003,-3.125 -3.914,-2.957 -7.664,0.274 -14.933,12.871 -31.699,16.601 -50.382,9.328 -9.407,-3.664 -18.665,-7.688 -27.985,-11.563 -0.719,-0.293 -1.387,-0.715 -2.359,-1.222 1.879,-4.52 3.672,-8.817 5.512,-13.243 -1.239,-0.507 -2.161,-0.886 -3.079,-1.269 -10.683,-4.383 -21.359,-8.789 -32.05,-13.152 -2.68,-1.094 -4.696,-2.805 -5.489,-5.606 -0.965,-3.391 -0.367,-6.484 2.414,-8.867 2.633,-2.246 5.594,-2.754 8.895,-1.387 10.918,4.52 21.863,8.985 32.805,13.457 0.972,0.399 1.988,0.703 2.964,1.043 4.141,-9.941 8.157,-19.578 12.239,-29.383 -1.125,-0.461 -2.043,-0.839 -2.957,-1.211 -10.512,-4.328 -20.969,-8.789 -31.567,-12.902 -5.019,-1.941 -7.808,-6.68 -5.828,-11.641 1.465,-3.671 6.141,-6.804 12.395,-4.023 10.383,4.621 20.992,8.73 31.504,13.047 0.972,0.402 1.945,0.801 3.125,1.289 2.004,-4.813 3.836,-9.207 5.769,-13.848 10.156,4.172 19.891,8.203 29.652,12.18 21.918,8.914 34.067,32.441 28.364,55.262 -0.356,1.425 -0.176,2.226 0.535,3.027 l 0.012,-0.027"
         style="fill:#231f20;fill-opacity:1;fill-rule:nonzero;stroke:none"
         transform="matrix(0.13333333,0,0,-0.13333333,0,167.96)" />
      <path
         id="path24"
         d="m 570.832,966.102 c -22.676,32.914 -53.184,56.098 -91.496,70.918 l -6.121,1.3 c -4.875,1.53 -7.945,2.7 -11.113,3.45 -17.922,4.21 -35.297,6.39 -52.09,6.52 -16.789,-0.13 -34.164,-2.31 -52.09,-6.52 -3.168,-0.75 -6.231,-1.92 -11.113,-3.45 l -6.118,-1.3 c -38.316,-14.82 -68.824,-38.004 -91.5,-70.918 -36.843,-53.485 -41.371,-111.805 -25.132,-172.946 11.652,-43.847 36.14,-81.191 61.156,-118.281 18.023,-26.723 36.226,-53.379 44.637,-85.176 2.074,-7.851 8.73,-11.269 16.586,-11.297 21.191,-0.07 42.382,-0.109 63.574,-0.097 21.191,-0.012 42.383,0.027 63.574,0.097 7.855,0.028 14.512,3.446 16.59,11.297 8.406,31.797 26.609,58.453 44.637,85.176 25.019,37.09 49.507,74.434 61.152,118.281 16.238,61.141 11.715,119.461 -25.133,172.946"
         style="fill:#231f20;fill-opacity:1;fill-rule:nonzero;stroke:none"
         transform="matrix(0.13333333,0,0,-0.13333333,0,167.96)" />
    </g>
  </g>
</svg>
