<?xml version="1.0" encoding="UTF-8" standalone="no"?><!DOCTYPE svg PUBLIC "-//W3C//DTD SVG 1.1//EN" "http://www.w3.org/Graphics/SVG/1.1/DTD/svg11.dtd"><svg width="100%" height="100%" viewBox="0 0 9375 8072" version="1.1" xmlns="http://www.w3.org/2000/svg" xmlns:xlink="http://www.w3.org/1999/xlink" xml:space="preserve" xmlns:serif="http://www.serif.com/" style="fill-rule:evenodd;clip-rule:evenodd;stroke-linejoin:round;stroke-miterlimit:2;"><g><path d="M2515.658,376.683l0,-13.229c10.283,-30.133 27.787,-57.562 52.508,-82.283c42.329,-42.329 92.6,-63.496 150.804,-63.496l2150.937,0c191.725,0 371.846,11.125 540.358,33.371l0,1081.6c0,13.562 5.388,26.571 14.979,36.163c9.592,9.592 22.6,14.979 36.163,14.979l351.058,0c116.413,0 210.925,94.512 210.925,210.925l0,330.979c0,22.525 18.263,40.788 40.788,40.788l1043.113,0c0.575,22.708 0.867,45.637 0.867,68.783c0,767.246 -314.837,1296.383 -944.508,1587.408l984.192,1889.017c15.875,31.75 23.812,60.85 23.812,87.308c0,47.621 -17.196,88.629 -51.592,123.025c-34.396,34.396 -75.4,51.592 -123.025,51.592l-1079.438,0c-95.246,0 -166.679,-19.842 -214.3,-59.529c-47.621,-39.683 -87.308,-91.275 -119.054,-154.771l-881.013,-1698.529l-730.208,0l-110.629,697.833c-80.458,573.638 -76.479,988.479 -118.812,1030.808c-7.404,7.404 -15.363,17.933 -23.758,30.262c-10.05,17.721 -21.767,35.779 -34.254,53.533c-22.067,34.871 -45.829,70.367 -69.875,89.188c-13.525,15.867 -26.05,29.958 -36.404,41.425c-172.158,190.633 -664.021,598.304 -832.575,767.529l-653.604,-653.188l422.546,-401.125l-480.671,-440.325l480.671,-437.967l-489.483,-446.1l479.183,-407.912l-479.183,-407.912l489.483,-443.525l-480.671,-440.542l480.671,-439.037l-128.983,-178.087c-98.387,-135.842 -93.163,-320.858 12.738,-450.933l116.246,-142.783l0,-268.683l-0.092,0l0,-636.558l0.092,0Zm2354.25,2245.912c513.263,0 769.892,-195.779 769.892,-587.342c0,-391.562 -256.629,-587.342 -769.892,-587.342l-896.887,0l0,1174.683l896.887,0Zm-1892.975,-2136.6c-148.054,0 -268.254,120.2 -268.254,268.254c0,148.054 120.2,268.254 268.254,268.254c148.054,0 268.254,-120.2 268.254,-268.254c0,-148.054 -120.2,-268.254 -268.254,-268.254Z" style="fill:#343952;"/><g><path d="M6802.688,384.625c35.471,27.412 102.033,85.987 114.054,99.083c35.138,39.013 63.654,71.725 92.171,104.438c127.758,165.987 244.167,340.45 299.321,542.987c40.613,149.142 61.454,303.967 82.429,457.304c11.008,80.492 -40.917,130.542 -114.917,131.337c-74.383,0.8 -119.013,-45.825 -123.587,-129.113c-35.742,-650.675 -463.213,-1165.742 -1092.863,-1312.217c-85.517,-19.892 -174.279,-25.429 -261.746,-35.546c-75.388,-8.717 -116.129,-41.917 -124.042,-105.767c-10.846,-87.508 38.25,-140.412 132.263,-136.975c205.012,7.496 403.012,50.679 592.25,133.725c143.742,63.079 276.654,144.275 404.662,250.742l0.004,0Z" style="fill:#343952;fill-rule:nonzero;"/><path d="M6883.129,1237.933c44.233,119.621 62.796,257.825 66.067,365.092c2.438,79.892 -39,126.921 -110.283,128.796c-76.521,2.017 -122.917,-40.887 -127.517,-124.633c-7.992,-145.558 -37.725,-286.029 -109.746,-414.329c-162.862,-290.129 -406.946,-462.754 -738.292,-504.312c-28.562,-3.583 -57.375,-4.775 -85.996,-7.892c-76.425,-8.321 -120.325,-53.854 -118.367,-122.162c2.183,-76.217 49.779,-121.479 131.1,-118.104c172.417,7.154 338.629,44.929 493.946,123.804c286.15,145.321 486.171,368.375 599.083,673.733l0.004,0.008Z" style="fill:#343952;fill-rule:nonzero;"/><path d="M6456.367,1348.125c39.121,92.892 47.562,189.25 51.85,274.217c3.7,73.308 -36.754,116.492 -106.592,121.529c-71.492,5.158 -117.254,-34.6 -129.583,-110.171c-9.867,-60.475 -13.437,-123.654 -34.512,-180.375c-70.112,-188.675 -210.542,-294.308 -407.608,-325.379c-22.742,-3.587 -45.871,-4.429 -68.812,-6.633c-71.371,-6.867 -113.754,-51.875 -113.65,-120.629c0.104,-70.429 44.696,-117.317 118.725,-118.363c121.113,-1.704 236.263,27.096 344.025,84.2c159.75,84.65 274.308,211.004 346.158,381.6l0,0.004Z" style="fill:#343952;fill-rule:nonzero;"/></g></g><g><path d="M32.9,8057.833c-9.137,0 -16.908,-3.2 -23.304,-9.596c-6.396,-6.396 -9.596,-14.167 -9.596,-23.304l0,-892.479c0,-10.054 3.2,-18.279 9.596,-24.675c6.396,-6.396 14.167,-9.596 23.304,-9.596l355.071,0c110.587,0 197.871,25.592 261.85,76.771c63.975,51.183 95.967,125.671 95.967,223.462c0,67.633 -16.679,123.842 -50.038,168.625c-33.358,44.783 -77.917,77.229 -133.667,97.337l200.158,349.587c2.742,5.483 4.113,10.513 4.113,15.079c0,8.225 -2.971,15.079 -8.913,20.562c-5.942,5.483 -12.567,8.225 -19.879,8.225l-124.754,0c-15.537,0 -27.417,-4.112 -35.646,-12.337c-8.225,-8.225 -14.625,-16.45 -19.192,-24.675l-176.85,-324.912l-190.558,0l0,329.025c0,9.138 -2.971,16.908 -8.913,23.304c-5.942,6.396 -13.938,9.596 -23.992,9.596l-124.758,0Zm157.658,-516.842l193.3,0c55.75,0 97.337,-12.567 124.754,-37.7c27.417,-25.133 41.129,-60.55 41.129,-106.246c0,-45.696 -13.479,-81.571 -40.442,-107.617c-26.962,-26.046 -68.775,-39.071 -125.442,-39.071l-193.3,0l0,290.638l-0,-0.004Z" style="fill:#343952;fill-rule:nonzero;"/><path d="M955.542,8057.833c-9.137,0 -16.908,-3.2 -23.304,-9.596c-6.396,-6.396 -9.596,-14.167 -9.596,-23.304l0,-892.479c0,-10.054 3.2,-18.279 9.596,-24.675c6.396,-6.396 14.167,-9.596 23.304,-9.596l603.212,0c10.054,0 18.279,3.2 24.675,9.596c6.396,6.396 9.596,14.625 9.596,24.675l0,90.483c0,9.138 -3.2,16.908 -9.596,23.304c-6.396,6.396 -14.625,9.596 -24.675,9.596l-451.038,0l0,242.654l420.879,0c10.054,0 18.279,2.971 24.675,8.913c6.396,5.942 9.596,13.938 9.596,23.992l0,85c0,10.054 -3.2,18.05 -9.596,23.992c-6.396,5.942 -14.625,8.913 -24.675,8.913l-420.879,0l0,250.883l462.004,0c10.054,0 18.279,3.2 24.675,9.596c6.396,6.396 9.596,14.625 9.596,24.675l0,90.483c0,9.138 -3.2,16.908 -9.596,23.304c-6.396,6.396 -14.625,9.596 -24.675,9.596l-614.179,0l0,-0.004Z" style="fill:#343952;fill-rule:nonzero;"/><path d="M2019.388,8057.833c-9.138,0 -16.908,-3.2 -23.304,-9.596c-6.396,-6.396 -9.596,-14.167 -9.596,-23.304l0,-758.129l-253.625,0c-9.137,0 -16.908,-3.2 -23.304,-9.596c-6.396,-6.396 -9.596,-14.167 -9.596,-23.304l0,-101.45c0,-10.054 3.2,-18.279 9.596,-24.675c6.396,-6.396 14.167,-9.596 23.304,-9.596l699.179,0c10.054,0 18.279,3.2 24.675,9.596c6.396,6.396 9.596,14.625 9.596,24.675l0,101.45c0,9.138 -3.2,16.908 -9.596,23.304c-6.396,6.396 -14.625,9.596 -24.675,9.596l-252.254,0l0,758.129c0,9.138 -3.2,16.908 -9.596,23.304c-6.396,6.396 -14.625,9.596 -24.675,9.596l-126.129,0Z" style="fill:#343952;fill-rule:nonzero;"/><path d="M2987.271,8071.541c-79.512,0 -148.517,-13.479 -207.012,-40.442c-58.492,-26.962 -103.733,-68.546 -135.721,-124.754c-31.988,-56.208 -47.983,-128.183 -47.983,-215.921l0,-557.971c0,-10.054 3.2,-18.279 9.596,-24.675c6.396,-6.396 14.167,-9.596 23.304,-9.596l124.754,0c10.054,0 18.05,3.2 23.992,9.596c5.942,6.396 8.912,14.625 8.912,24.675l0,557.971c0,74.946 17.821,130.467 53.467,166.571c35.646,36.1 84.542,54.15 146.692,54.15c62.15,0 110.817,-18.05 146.004,-54.15c35.188,-36.1 52.779,-91.625 52.779,-166.571l0,-557.971c0,-10.054 3.2,-18.279 9.596,-24.675c6.396,-6.396 14.625,-9.596 24.675,-9.596l123.383,0c10.054,0 18.05,3.2 23.992,9.596c5.942,6.396 8.913,14.625 8.913,24.675l0,557.971c0,87.742 -15.767,159.713 -47.296,215.921c-31.533,56.208 -76.317,97.792 -134.35,124.754c-58.037,26.962 -127.267,40.442 -207.696,40.442Z" style="fill:#343952;fill-rule:nonzero;"/><path d="M3615.158,8057.833c-9.137,0 -16.908,-3.2 -23.304,-9.596c-6.396,-6.396 -9.596,-14.167 -9.596,-23.304l0,-892.479c0,-10.054 3.2,-18.279 9.596,-24.675c6.396,-6.396 14.167,-9.596 23.304,-9.596l355.071,0c110.588,0 197.871,25.592 261.85,76.771c63.975,51.183 95.967,125.671 95.967,223.462c0,67.633 -16.679,123.842 -50.038,168.625c-33.358,44.783 -77.917,77.229 -133.667,97.337l200.158,349.587c2.742,5.483 4.113,10.513 4.113,15.079c0,8.225 -2.971,15.079 -8.913,20.562c-5.942,5.483 -12.567,8.225 -19.879,8.225l-124.754,0c-15.538,0 -27.417,-4.112 -35.646,-12.337c-8.225,-8.225 -14.625,-16.45 -19.192,-24.675l-176.85,-324.912l-190.558,0l0,329.025c0,9.138 -2.971,16.908 -8.913,23.304c-5.942,6.396 -13.938,9.596 -23.992,9.596l-124.758,0Zm157.658,-516.842l193.3,0c55.75,0 97.338,-12.567 124.754,-37.7c27.417,-25.133 41.129,-60.55 41.129,-106.246c0,-45.696 -13.479,-81.571 -40.442,-107.617c-26.962,-26.046 -68.775,-39.071 -125.442,-39.071l-193.3,0l0,290.638l0,-0.004Z" style="fill:#343952;fill-rule:nonzero;"/><path d="M4766.746,8057.833c-9.138,0 -16.45,-2.742 -21.933,-8.225c-5.483,-5.483 -8.225,-12.796 -8.225,-21.933l0,-847.237l-271.446,0c-9.138,0 -16.45,-2.742 -21.933,-8.225c-5.483,-5.483 -8.225,-12.796 -8.225,-21.933l0,-20.562c0,-10.054 2.742,-17.821 8.225,-23.304c5.483,-5.483 12.796,-8.225 21.933,-8.225l627.887,0c10.054,0 17.821,2.742 23.304,8.225c5.483,5.483 8.225,13.254 8.225,23.304l0,20.562c0,9.138 -2.742,16.45 -8.225,21.933c-5.483,5.483 -13.254,8.225 -23.304,8.225l-270.075,0l0,847.237c0,9.138 -2.742,16.45 -8.225,21.933c-5.483,5.483 -13.254,8.225 -23.304,8.225l-24.679,0Z" style="fill:#343952;fill-rule:nonzero;"/><path d="M5119.075,8057.833c-7.313,0 -13.708,-2.742 -19.192,-8.225c-5.483,-5.483 -8.225,-11.883 -8.225,-19.192c0,-4.571 0.912,-9.596 2.742,-15.079l346.846,-889.737c3.654,-9.138 8.454,-15.996 14.396,-20.562c5.942,-4.571 14.396,-6.854 25.362,-6.854l46.612,0c10.967,0 19.421,2.283 25.363,6.854c5.942,4.571 10.737,11.425 14.396,20.562l346.846,889.737c1.829,5.483 2.742,10.513 2.742,15.079c0,7.312 -2.742,13.708 -8.225,19.192c-5.483,5.483 -11.883,8.225 -19.192,8.225l-27.417,0c-9.138,0 -15.996,-2.512 -20.562,-7.542c-4.571,-5.025 -7.767,-9.367 -9.596,-13.025l-85,-219.35l-485.312,0l-85,219.35c-0.913,3.654 -3.883,7.996 -8.912,13.025c-5.025,5.025 -12.108,7.542 -21.25,7.542l-27.421,0Zm175.479,-322.171l419.508,0l-209.754,-540.15l-209.754,540.15Z" style="fill:#343952;fill-rule:nonzero;"/><path d="M6391.304,8071.541c-78.6,0 -144.633,-15.308 -198.1,-45.925c-53.467,-30.617 -94.138,-73.346 -122.012,-128.183c-27.875,-54.837 -43.183,-117.9 -45.925,-189.188c-0.913,-41.129 -1.371,-84.542 -1.371,-130.237c0,-45.696 0.458,-89.113 1.371,-130.238c2.742,-72.204 18.05,-135.496 45.925,-189.875c27.875,-54.379 68.775,-96.879 122.7,-127.496c53.925,-30.617 119.729,-45.925 197.417,-45.925c63.062,0 116.988,9.367 161.771,28.104c44.783,18.737 81.342,42.042 109.675,69.917c28.333,27.875 49.354,55.979 63.062,84.312c13.708,28.333 21.021,52.096 21.933,71.288c0.913,8.225 -1.371,14.85 -6.854,19.879c-5.483,5.025 -12.796,7.542 -21.933,7.542l-30.163,0c-8.225,0 -14.167,-2.058 -17.821,-6.171c-3.654,-4.112 -7.313,-11.196 -10.967,-21.25c-9.138,-28.333 -24.45,-55.525 -45.925,-81.571c-21.479,-26.046 -50.267,-47.525 -86.371,-64.433c-36.1,-16.908 -81.571,-25.363 -136.408,-25.363c-81.342,0 -147.375,22.163 -198.1,66.492c-50.725,44.325 -77.917,118.129 -81.571,221.404c-2.742,82.254 -2.742,164.513 0,246.767c3.654,102.363 30.846,175.938 81.571,220.721c50.725,44.783 116.758,67.175 198.1,67.175c53.925,0 102.362,-10.283 145.321,-30.846c42.954,-20.562 76.771,-52.096 101.45,-94.596c24.675,-42.5 37.017,-96.65 37.017,-162.454l0,-69.917l-238.542,0c-9.138,0 -16.45,-2.971 -21.933,-8.913c-5.483,-5.942 -8.225,-13.479 -8.225,-22.621l0,-19.192c0,-10.054 2.742,-17.821 8.225,-23.304c5.483,-5.483 12.796,-8.225 21.933,-8.225l293.379,0c10.054,0 17.821,2.742 23.304,8.225c5.483,5.483 8.225,13.254 8.225,23.304l0,120.642c0,73.117 -14.396,137.55 -43.183,193.3c-28.792,55.75 -70.833,99.163 -126.125,130.238c-55.296,31.075 -122.242,46.612 -200.842,46.612l-0.008,0Z" style="fill:#343952;fill-rule:nonzero;"/><path d="M7301.608,8071.541c-78.6,0 -144.633,-15.308 -198.1,-45.925c-53.467,-30.617 -94.138,-73.346 -122.012,-128.183c-27.875,-54.837 -43.183,-117.9 -45.925,-189.188c-0.913,-41.129 -1.371,-84.542 -1.371,-130.237c0,-45.696 0.458,-89.113 1.371,-130.238c2.742,-72.204 18.05,-135.496 45.925,-189.875c27.875,-54.379 68.775,-96.879 122.7,-127.496c53.925,-30.617 119.729,-45.925 197.417,-45.925c63.062,0 116.987,9.367 161.771,28.104c44.783,18.737 81.342,42.042 109.675,69.917c28.333,27.875 49.354,55.979 63.062,84.312c13.708,28.333 21.021,52.096 21.933,71.288c0.913,8.225 -1.371,14.85 -6.854,19.879c-5.483,5.025 -12.796,7.542 -21.933,7.542l-30.163,0c-8.225,0 -14.167,-2.058 -17.821,-6.171c-3.654,-4.112 -7.313,-11.196 -10.967,-21.25c-9.138,-28.333 -24.45,-55.525 -45.925,-81.571c-21.479,-26.046 -50.267,-47.525 -86.371,-64.433c-36.1,-16.908 -81.571,-25.363 -136.408,-25.363c-81.342,0 -147.375,22.163 -198.1,66.492c-50.725,44.325 -77.917,118.129 -81.571,221.404c-2.742,82.254 -2.742,164.513 0,246.767c3.654,102.363 30.846,175.938 81.571,220.721c50.725,44.783 116.758,67.175 198.1,67.175c53.925,0 102.362,-10.283 145.321,-30.846c42.954,-20.562 76.771,-52.096 101.45,-94.596c24.675,-42.5 37.017,-96.65 37.017,-162.454l0,-69.917l-238.542,0c-9.138,0 -16.45,-2.971 -21.933,-8.913c-5.483,-5.942 -8.225,-13.479 -8.225,-22.621l0,-19.192c0,-10.054 2.742,-17.821 8.225,-23.304c5.483,-5.483 12.796,-8.225 21.933,-8.225l293.379,0c10.054,0 17.821,2.742 23.304,8.225c5.483,5.483 8.225,13.254 8.225,23.304l0,120.642c0,73.117 -14.396,137.55 -43.183,193.3c-28.792,55.75 -70.833,99.163 -126.125,130.238c-55.296,31.075 -122.242,46.612 -200.842,46.612l-0.008,0Z" style="fill:#343952;fill-rule:nonzero;"/><path d="M7913.046,8057.833c-9.137,0 -16.45,-2.742 -21.933,-8.225c-5.483,-5.483 -8.225,-12.796 -8.225,-21.933l0,-897.962c0,-10.054 2.742,-17.821 8.225,-23.304c5.483,-5.483 12.796,-8.225 21.933,-8.225l534.667,0c10.054,0 17.821,2.742 23.304,8.225c5.483,5.483 8.225,13.254 8.225,23.304l0,20.562c0,9.138 -2.742,16.45 -8.225,21.933c-5.483,5.483 -13.254,8.225 -23.304,8.225l-478.458,0l0,349.587l448.296,0c10.054,0 17.821,2.742 23.304,8.225c5.483,5.483 8.225,13.254 8.225,23.304l0,20.562c0,9.138 -2.742,16.45 -8.225,21.933c-5.483,5.483 -13.254,8.225 -23.304,8.225l-448.296,0l0,363.3l489.425,0c10.054,0 17.821,2.742 23.304,8.225c5.483,5.483 8.225,13.254 8.225,23.304l0,20.562c0,9.138 -2.742,16.45 -8.225,21.933c-5.483,5.483 -13.254,8.225 -23.304,8.225l-545.633,0l-0,0.012Z" style="fill:#343952;fill-rule:nonzero;"/><path d="M8724.638,8057.833c-9.138,0 -16.45,-2.742 -21.933,-8.225c-5.483,-5.483 -8.225,-12.796 -8.225,-21.933l0,-897.962c0,-10.054 2.742,-17.821 8.225,-23.304c5.483,-5.483 12.796,-8.225 21.933,-8.225l28.792,0c9.138,0 15.996,2.283 20.562,6.854c4.571,4.571 7.312,7.767 8.225,9.596l505.875,773.208l0,-758.129c0,-10.054 2.742,-17.821 8.225,-23.304c5.483,-5.483 12.796,-8.225 21.933,-8.225l24.675,0c10.054,0 17.821,2.742 23.304,8.225c5.483,5.483 8.225,13.254 8.225,23.304l0,896.592c0,9.138 -2.742,16.679 -8.225,22.621c-5.483,5.942 -12.796,8.913 -21.933,8.913l-30.163,0c-9.138,0 -15.767,-2.283 -19.879,-6.854c-4.112,-4.571 -7.083,-7.767 -8.913,-9.596l-504.504,-770.467l0,756.758c0,9.138 -2.742,16.45 -8.225,21.933c-5.483,5.483 -13.254,8.225 -23.304,8.225l-24.675,0l0.004,-0.004Z" style="fill:#343952;fill-rule:nonzero;"/></g></svg>