<?xml version="1.0" encoding="UTF-8" standalone="no"?>
<!-- Created with Inkscape (http://www.inkscape.org/) -->

<svg
   version="1.1"
   id="svg1"
   width="735.09332"
   height="194.92"
   viewBox="0 0 735.09332 194.92"
   sodipodi:docname="solartech.eps"
   xmlns:inkscape="http://www.inkscape.org/namespaces/inkscape"
   xmlns:sodipodi="http://sodipodi.sourceforge.net/DTD/sodipodi-0.dtd"
   xmlns="http://www.w3.org/2000/svg"
   xmlns:svg="http://www.w3.org/2000/svg">
  <defs
     id="defs1" />
  <sodipodi:namedview
     id="namedview1"
     pagecolor="#ffffff"
     bordercolor="#000000"
     borderopacity="0.25"
     inkscape:showpageshadow="2"
     inkscape:pageopacity="0.0"
     inkscape:pagecheckerboard="0"
     inkscape:deskcolor="#d1d1d1">
    <inkscape:page
       x="0"
       y="0"
       inkscape:label="1"
       id="page1"
       width="735.09332"
       height="194.92"
       margin="0"
       bleed="0" />
  </sodipodi:namedview>
  <g
     id="g1"
     inkscape:groupmode="layer"
     inkscape:label="1">
    <g
       id="group-R5">
      <path
         id="path2"
         d="m 631.043,304.512 h 56.539 V 61.3906 h 82.387 V 7.46875 H 631.043 V 304.512"
         style="fill:#41c0d0;fill-opacity:1;fill-rule:nonzero;stroke:none"
         transform="matrix(0.13333333,0,0,-0.13333333,0,194.92)" />
      <path
         id="path3"
         d="m 911.121,181.941 c -17.031,0 -31.187,-6.031 -42.473,-18.082 -11.265,-12.05 -16.894,-27.488 -16.894,-46.339 0,-18.9809 5.742,-34.5903 17.207,-46.8403 11.465,-12.25 25.578,-18.3789 42.359,-18.3789 17.301,0 31.66,6.0078 43.082,18.0898 11.399,12.0196 17.098,27.8203 17.098,47.3394 0,19.11 -5.699,34.59 -17.098,46.442 -11.422,11.848 -25.828,17.769 -43.281,17.769 z m 57.953,45.231 H 1024.2 V 7.46875 H 969.074 V 30.6914 C 958.305,20.4609 947.535,13.082 936.699,8.58984 925.883,4.08203 914.148,1.82031 901.516,1.82031 c -28.383,0 -52.926,10.98829 -73.637,33.03129 -20.707,21.9804 -31.051,49.3593 -31.051,82.0704 0,33.918 10.004,61.719 30.043,83.398 20.035,21.668 44.379,32.512 73.031,32.512 13.168,0 25.532,-2.492 37.11,-7.473 11.554,-4.98 22.234,-12.461 32.062,-22.418 v 24.231"
         style="fill:#41c0d0;fill-opacity:1;fill-rule:nonzero;stroke:none"
         transform="matrix(0.13333333,0,0,-0.13333333,0,194.92)" />
      <path
         id="path4"
         d="m 1184.13,181.941 c -17.03,0 -31.19,-6.031 -42.47,-18.082 -11.26,-12.05 -16.9,-27.488 -16.9,-46.339 0,-18.9809 5.75,-34.5903 17.21,-46.8403 11.47,-12.25 25.58,-18.3789 42.36,-18.3789 17.3,0 31.66,6.0078 43.08,18.0898 11.4,12.0196 17.1,27.8203 17.1,47.3394 0,19.11 -5.7,34.59 -17.1,46.442 -11.42,11.848 -25.82,17.769 -43.28,17.769 z m 57.96,130.047 h 55.12 V 7.46875 h -55.12 V 30.6914 C 1231.32,20.4609 1220.55,13.082 1209.71,8.58984 1198.9,4.08203 1187.16,1.82031 1174.53,1.82031 c -28.38,0 -52.93,10.98829 -73.64,33.03129 -20.71,21.9804 -31.05,49.3593 -31.05,82.0704 0,33.918 10.01,61.719 30.04,83.398 20.04,21.668 44.38,32.512 73.03,32.512 13.17,0 25.54,-2.492 37.11,-7.473 11.56,-4.98 22.24,-12.461 32.07,-22.418 v 109.047"
         style="fill:#41c0d0;fill-opacity:1;fill-rule:nonzero;stroke:none"
         transform="matrix(0.13333333,0,0,-0.13333333,0,194.92)" />
      <path
         id="path5"
         d="m 1457.14,181.941 c -17.03,0 -31.18,-6.031 -42.47,-18.082 -11.26,-12.05 -16.89,-27.488 -16.89,-46.339 0,-18.9809 5.74,-34.5903 17.2,-46.8403 11.47,-12.25 25.58,-18.3789 42.37,-18.3789 17.29,0 31.65,6.0078 43.07,18.0898 11.4,12.0196 17.1,27.8203 17.1,47.3394 0,19.11 -5.7,34.59 -17.1,46.442 -11.42,11.848 -25.82,17.769 -43.28,17.769 z m 57.96,130.047 h 55.12 V 7.46875 H 1515.1 V 30.6914 c -10.77,-10.2305 -21.54,-17.6094 -32.38,-22.10156 -10.81,-4.50781 -22.55,-6.76953 -35.18,-6.76953 -28.38,0 -52.93,10.98829 -73.64,33.03129 -20.71,21.9804 -31.05,49.3593 -31.05,82.0704 0,33.918 10.01,61.719 30.04,83.398 20.04,21.668 44.38,32.512 73.03,32.512 13.18,0 25.54,-2.492 37.12,-7.473 11.55,-4.98 22.23,-12.461 32.06,-22.418 v 109.047"
         style="fill:#41c0d0;fill-opacity:1;fill-rule:nonzero;stroke:none"
         transform="matrix(0.13333333,0,0,-0.13333333,0,194.92)" />
      <path
         id="path6"
         d="m 1738.64,181.941 c -17.37,0 -31.77,-5.921 -43.22,-17.769 -11.44,-11.852 -17.16,-27.332 -17.16,-46.442 0,-19.5191 5.72,-35.3198 17.16,-47.3394 11.45,-12.082 25.85,-18.0898 43.22,-18.0898 16.82,0 31,6.1289 42.49,18.3789 11.53,12.25 17.28,27.8594 17.28,46.8403 0,18.851 -5.66,34.289 -16.96,46.339 -11.31,12.051 -25.58,18.082 -42.81,18.082 z m -57.96,130.047 V 202.941 c 9.96,9.957 20.73,17.438 32.31,22.418 11.58,4.981 23.96,7.473 37.16,7.473 28.67,0 53.04,-10.844 73.1,-32.512 20.05,-21.679 30.08,-49.48 30.08,-83.398 0,-32.7111 -10.36,-60.09 -31.09,-82.0704 -20.74,-22.043 -45.3,-33.03129 -73.71,-33.03129 -12.65,0 -24.43,2.26172 -35.34,6.76953 -10.9,4.49216 -21.74,11.87106 -32.51,22.10156 V 7.46875 h -54.72 V 311.988 h 54.72"
         style="fill:#41c0d0;fill-opacity:1;fill-rule:nonzero;stroke:none"
         transform="matrix(0.13333333,0,0,-0.13333333,0,194.92)" />
      <path
         id="path7"
         d="m 2003.08,180.93 c -17.15,0 -31.39,-5.942 -42.79,-17.879 -11.4,-11.891 -17.1,-27.153 -17.1,-45.731 0,-19.1091 5.63,-34.5895 16.9,-46.4411 11.26,-11.8476 25.51,-17.7695 42.76,-17.7695 17.28,0 31.64,5.9922 43.1,17.9726 11.45,11.9766 17.19,27.3985 17.19,46.238 0,18.852 -5.63,34.149 -16.89,45.95 -11.27,11.761 -25.65,17.66 -43.17,17.66 z m -0.92,51.902 c 20.73,0 40.2,-5.184 58.44,-15.551 18.25,-10.371 32.49,-24.429 42.72,-42.199 10.24,-17.773 15.35,-36.961 15.35,-57.562 0,-20.7309 -5.16,-40.1098 -15.44,-58.1489 C 2092.91,41.332 2078.89,27.2188 2061.12,17.082 2043.35,6.91016 2023.76,1.82031 2002.36,1.82031 c -31.5,0 -58.4,11.21879 -80.68,33.60939 -22.28,22.4414 -33.41,49.6523 -33.41,81.6913 0,34.328 12.58,62.938 37.76,85.82 22.08,19.93 47.45,29.891 76.13,29.891"
         style="fill:#41c0d0;fill-opacity:1;fill-rule:nonzero;stroke:none"
         transform="matrix(0.13333333,0,0,-0.13333333,0,194.92)" />
      <path
         id="path8"
         d="m 2143.91,227.172 h 64.01 l 43.42,-59.883 43.21,59.883 h 62.94 L 2282.91,123.781 2367.25,7.46875 h -64.01 L 2250.98,79.5391 2199,7.46875 h -62.96 l 83.4,115.57025 -75.53,104.133"
         style="fill:#41c0d0;fill-opacity:1;fill-rule:nonzero;stroke:none"
         transform="matrix(0.13333333,0,0,-0.13333333,0,194.92)" />
      <path
         id="path9"
         d="m 2499.53,181.941 c -17.05,0 -31.2,-6.031 -42.49,-18.082 -11.26,-12.05 -16.89,-27.488 -16.89,-46.339 0,-18.9809 5.74,-34.5903 17.21,-46.8403 11.46,-12.25 25.57,-18.3789 42.37,-18.3789 17.3,0 31.66,6.0078 43.08,18.0898 11.39,12.0196 17.09,27.8203 17.09,47.3394 0,19.11 -5.7,34.59 -17.09,46.442 -11.42,11.848 -25.83,17.769 -43.28,17.769 z m 57.95,45.231 h 55.13 V 7.46875 h -55.13 V 30.6914 C 2546.71,20.4609 2535.94,13.082 2525.1,8.58984 c -10.81,-4.50781 -22.55,-6.76953 -35.19,-6.76953 -28.38,0 -52.93,10.98829 -73.64,33.03129 -20.71,21.9804 -31.05,49.3593 -31.05,82.0704 0,33.918 10.01,61.719 30.04,83.398 20.04,21.668 44.38,32.512 73.04,32.512 13.18,0 25.54,-2.492 37.12,-7.473 11.55,-4.98 22.23,-12.461 32.06,-22.418 v 24.231"
         style="fill:#41c0d0;fill-opacity:1;fill-rule:nonzero;stroke:none"
         transform="matrix(0.13333333,0,0,-0.13333333,0,194.92)" />
      <path
         id="path10"
         d="m 2655.42,227.172 h 47.25 v -27.66 c 5.11,10.898 11.91,19.179 20.39,24.84 8.49,5.648 17.77,8.48 27.87,8.48 7.14,0 14.61,-1.891 22.41,-5.66 l -17.16,-47.453 c -6.46,3.23 -11.78,4.851 -15.95,4.851 -8.48,0 -15.66,-5.25 -21.5,-15.75 -5.87,-10.5 -8.79,-31.101 -8.79,-61.8 l 0.2,-10.6997 V 7.46875 h -54.72 V 227.172"
         style="fill:#41c0d0;fill-opacity:1;fill-rule:nonzero;stroke:none"
         transform="matrix(0.13333333,0,0,-0.13333333,0,194.92)" />
      <path
         id="path11"
         d="m 2923.99,142.559 h 102.58 V 91.2695 h -102.58 v 51.2895"
         style="fill:#41c0d0;fill-opacity:1;fill-rule:nonzero;stroke:none"
         transform="matrix(0.13333333,0,0,-0.13333333,0,194.92)" />
      <path
         id="path12"
         d="m 3367.63,264.129 -41.87,-36.957 c -14.72,20.469 -29.68,30.699 -44.92,30.699 -7.42,0 -13.48,-2 -18.19,-5.973 -4.74,-3.968 -7.09,-8.437 -7.09,-13.418 0,-4.98 1.68,-9.691 5.05,-14.128 4.6,-5.93 18.42,-18.653 41.48,-38.172 21.56,-18.039 34.64,-29.41 39.24,-34.121 11.45,-11.579 19.57,-22.668 24.37,-33.207 4.78,-10.59 7.18,-22.1215 7.18,-34.6411 0,-24.3711 -8.41,-44.5 -25.26,-60.3789 C 3330.77,7.94141 3308.8,0 3281.72,0 c -21.16,0 -39.6,5.17969 -55.31,15.5508 -15.68,10.3711 -29.12,26.6484 -40.32,48.8711 l 47.52,28.6679 c 14.3,-26.25 30.74,-39.3789 49.37,-39.3789 9.69,0 17.86,2.8282 24.45,8.4883 6.62,5.6524 9.92,12.1797 9.92,19.5821 0,6.7304 -2.49,13.4687 -7.5,20.1987 -4.98,6.731 -15.97,17.032 -32.95,30.891 -32.38,26.391 -53.27,46.738 -62.72,61.098 -9.44,14.312 -14.15,28.633 -14.15,42.902 0,20.59 7.85,38.27 23.56,52.988 15.7,14.77 35.06,22.129 58.11,22.129 14.83,0 28.94,-3.437 42.36,-10.297 13.41,-6.871 27.93,-19.39 43.57,-37.562"
         style="fill:#41c0d0;fill-opacity:1;fill-rule:nonzero;stroke:none"
         transform="matrix(0.13333333,0,0,-0.13333333,0,194.92)" />
      <path
         id="path13"
         d="m 3524.84,180.93 c -17.14,0 -31.38,-5.942 -42.78,-17.879 -11.4,-11.891 -17.1,-27.153 -17.1,-45.731 0,-19.1091 5.63,-34.5895 16.9,-46.4411 11.26,-11.8476 25.51,-17.7695 42.76,-17.7695 17.28,0 31.64,5.9922 43.1,17.9726 11.44,11.9766 17.19,27.3985 17.19,46.238 0,18.852 -5.63,34.149 -16.9,45.95 -11.26,11.761 -25.64,17.66 -43.17,17.66 z m -0.92,51.902 c 20.74,0 40.21,-5.184 58.45,-15.551 18.24,-10.371 32.49,-24.429 42.72,-42.199 10.23,-17.773 15.35,-36.961 15.35,-57.562 0,-20.7309 -5.16,-40.1098 -15.44,-58.1489 C 3614.68,41.332 3600.66,27.2188 3582.89,17.082 3565.12,6.91016 3545.53,1.82031 3524.13,1.82031 c -31.5,0 -58.41,11.21879 -80.69,33.60939 -22.28,22.4414 -33.4,49.6523 -33.4,81.6913 0,34.328 12.58,62.938 37.76,85.82 22.07,19.93 47.45,29.891 76.12,29.891"
         style="fill:#41c0d0;fill-opacity:1;fill-rule:nonzero;stroke:none"
         transform="matrix(0.13333333,0,0,-0.13333333,0,194.92)" />
      <path
         id="path14"
         d="m 3679.41,311.988 h 55.13 V 7.46875 h -55.13 V 311.988"
         style="fill:#41c0d0;fill-opacity:1;fill-rule:nonzero;stroke:none"
         transform="matrix(0.13333333,0,0,-0.13333333,0,194.92)" />
      <path
         id="path15"
         d="m 3999.68,182.75 -45.89,-25.238 c -8.64,9.019 -17.16,15.277 -25.58,18.777 -8.43,3.5 -18.3,5.25 -29.61,5.25 -20.62,0 -37.31,-6.148 -50.06,-18.449 -12.72,-12.289 -19.09,-28.059 -19.09,-47.27 0,-18.6911 6.12,-33.9489 18.4,-45.7692 12.27,-11.832 28.36,-17.75 48.32,-17.75 24.66,0 43.87,8.4101 57.62,25.2383 l 43.46,-29.7696 C 3973.69,17.1406 3940.44,1.82031 3897.5,1.82031 c -38.64,0 -68.91,11.44139 -90.76,34.32809 -21.9,22.8829 -32.82,49.6719 -32.82,80.3716 0,21.269 5.31,40.851 15.95,58.761 10.63,17.899 25.46,31.969 44.51,42.199 19.05,10.231 40.37,15.352 63.93,15.352 21.8,0 41.39,-4.352 58.76,-13.023 17.36,-8.7 31.57,-21.039 42.61,-37.059"
         style="fill:#41c0d0;fill-opacity:1;fill-rule:nonzero;stroke:none"
         transform="matrix(0.13333333,0,0,-0.13333333,0,194.92)" />
      <path
         id="path16"
         d="m 4214.33,144.789 c -3.64,12.25 -10.82,22.211 -21.54,29.883 -10.73,7.68 -23.15,11.508 -37.31,11.508 -15.39,0 -28.88,-4.309 -40.46,-12.918 -7.29,-5.391 -14.04,-14.883 -20.23,-28.473 z m 55.13,-43.418 h -177.1 c 2.56,-15.621 9.4,-28.0507 20.49,-37.2694 11.13,-9.2227 25.28,-13.8203 42.51,-13.8203 20.6,0 38.3,7.1992 53.11,21.6093 l 46.45,-21.8086 c -11.58,-16.4218 -25.45,-28.5625 -41.6,-36.4609 -16.16,-7.85157 -35.34,-11.80079 -57.55,-11.80079 -34.46,0 -62.53,10.85939 -84.21,32.62109 -21.67,21.7188 -32.51,48.957 -32.51,81.6676 0,33.52 10.79,61.34 32.42,83.512 21.59,22.117 48.69,33.211 81.27,33.211 34.6,0 62.73,-11.094 84.41,-33.211 21.67,-22.172 32.51,-51.402 32.51,-87.75 l -0.2,-10.5"
         style="fill:#41c0d0;fill-opacity:1;fill-rule:nonzero;stroke:none"
         transform="matrix(0.13333333,0,0,-0.13333333,0,194.92)" />
      <path
         id="path17"
         d="m 4308.03,311.988 h 55.12 V 7.46875 h -55.12 V 311.988"
         style="fill:#41c0d0;fill-opacity:1;fill-rule:nonzero;stroke:none"
         transform="matrix(0.13333333,0,0,-0.13333333,0,194.92)" />
      <path
         id="path18"
         d="m 4407.17,311.988 h 55.13 V 7.46875 h -55.13 V 311.988"
         style="fill:#41c0d0;fill-opacity:1;fill-rule:nonzero;stroke:none"
         transform="matrix(0.13333333,0,0,-0.13333333,0,194.92)" />
      <path
         id="path19"
         d="m 4677.36,144.789 c -3.64,12.25 -10.82,22.211 -21.54,29.883 -10.73,7.68 -23.16,11.508 -37.31,11.508 -15.4,0 -28.88,-4.309 -40.46,-12.918 -7.29,-5.391 -14.04,-14.883 -20.24,-28.473 z m 55.13,-43.418 h -177.1 c 2.56,-15.621 9.4,-28.0507 20.49,-37.2694 11.13,-9.2227 25.28,-13.8203 42.51,-13.8203 20.6,0 38.3,7.1992 53.11,21.6093 L 4717.95,50.082 C 4706.37,33.6602 4692.5,21.5195 4676.35,13.6211 4660.19,5.76953 4641.01,1.82031 4618.8,1.82031 c -34.46,0 -62.53,10.85939 -84.21,32.62109 -21.67,21.7188 -32.51,48.957 -32.51,81.6676 0,33.52 10.79,61.34 32.42,83.512 21.59,22.117 48.69,33.211 81.27,33.211 34.6,0 62.73,-11.094 84.41,-33.211 21.67,-22.172 32.51,-51.402 32.51,-87.75 l -0.2,-10.5"
         style="fill:#41c0d0;fill-opacity:1;fill-rule:nonzero;stroke:none"
         transform="matrix(0.13333333,0,0,-0.13333333,0,194.92)" />
      <path
         id="path20"
         d="m 4764.19,227.172 h 47.25 v -27.66 c 5.12,10.898 11.92,19.179 20.4,24.84 8.48,5.648 17.77,8.48 27.86,8.48 7.14,0 14.61,-1.891 22.42,-5.66 l -17.17,-47.453 c -6.46,3.23 -11.78,4.851 -15.95,4.851 -8.48,0 -15.66,-5.25 -21.49,-15.75 -5.88,-10.5 -8.8,-31.101 -8.8,-61.8 l 0.2,-10.6997 V 7.46875 h -54.72 V 227.172"
         style="fill:#41c0d0;fill-opacity:1;fill-rule:nonzero;stroke:none"
         transform="matrix(0.13333333,0,0,-0.13333333,0,194.92)" />
      <path
         id="path21"
         d="m 1007.82,1103.79 c -59.961,0 -110.359,-20.85 -151.215,-62.54 -40.859,-41.695 -61.277,-94.687 -61.277,-158.988 0,-71.641 25.719,-128.313 77.156,-169.996 39.965,-32.59 85.821,-48.887 137.536,-48.887 58.49,0 108.31,21.141 149.46,63.418 41.15,42.281 61.72,94.394 61.72,156.348 0,61.656 -20.72,113.843 -62.16,156.565 -41.45,42.72 -91.85,64.08 -151.22,64.08 z m 1.32,120.67 c 91.67,0 170.47,-33.18 236.43,-99.53 65.98,-66.36 98.95,-147.25 98.95,-242.668 0,-94.543 -32.53,-174.551 -97.61,-240.024 -65.1,-65.472 -144.05,-98.211 -236.89,-98.211 -97.243,0 -178.036,33.618 -242.379,100.852 -64.344,67.234 -96.504,147.098 -96.504,239.586 0,61.945 14.98,118.915 44.941,170.875 29.973,51.97 71.176,93.15 123.617,123.54 52.442,30.39 108.918,45.58 169.445,45.58"
         style="fill:#41c0d0;fill-opacity:1;fill-rule:nonzero;stroke:none"
         transform="matrix(0.13333333,0,0,-0.13333333,0,194.92)" />
      <path
         id="path22"
         d="m 1442.04,1208.17 h 123.31 V 677.91 h 179.69 V 560.32 h -303 v 647.85"
         style="fill:#41c0d0;fill-opacity:1;fill-rule:nonzero;stroke:none"
         transform="matrix(0.13333333,0,0,-0.13333333,0,194.92)" />
      <path
         id="path23"
         d="M 2137.28,1036.4 2050.36,814 h 173.33 z m -63.3,171.77 h 125.07 l 249.17,-647.85 h -128.17 l -50.69,133.446 h -264.34 l -52.7,-133.446 h -128.17 l 249.83,647.85"
         style="fill:#41c0d0;fill-opacity:1;fill-rule:nonzero;stroke:none"
         transform="matrix(0.13333333,0,0,-0.13333333,0,194.92)" />
      <path
         id="path24"
         d="m 2675.25,954.934 h 38.64 c 39.22,0 66.22,5.152 81,15.461 14.78,10.308 22.18,27.394 22.18,51.255 0,14.14 -3.67,26.44 -10.98,36.9 -7.32,10.46 -17.13,17.96 -29.42,22.53 -12.29,4.57 -34.83,6.86 -67.61,6.86 h -33.81 z m -123.32,253.236 h 130.66 c 71.55,0 122.5,-6.39 152.86,-19.16 30.35,-12.77 54.77,-33.99 73.24,-63.64 18.48,-29.66 27.72,-64.74 27.72,-105.26 0,-42.575 -10.2,-78.172 -30.6,-106.797 -20.41,-28.629 -51.16,-50.282 -92.25,-64.965 L 2967.02,560.32 h -134.8 l -145.68,274.379 h -11.29 V 560.32 h -123.32 v 647.85"
         style="fill:#41c0d0;fill-opacity:1;fill-rule:nonzero;stroke:none"
         transform="matrix(0.13333333,0,0,-0.13333333,0,194.92)" />
      <path
         id="path25"
         d="M 4752.25,1094.34 4666,1012.11 c -58.66,62.01 -124.67,93.02 -198,93.02 -61.91,0 -114.05,-21.16 -156.43,-63.48 -42.4,-42.322 -63.59,-94.494 -63.59,-156.505 0,-43.204 9.38,-81.559 28.16,-115.063 18.77,-33.508 45.32,-59.809 79.65,-78.91 34.32,-19.106 72.45,-28.652 114.41,-28.652 35.78,0 68.49,6.679 98.11,20.054 29.63,13.375 62.19,37.696 97.69,72.961 l 83.61,-87.238 c -47.86,-46.711 -93.08,-79.094 -135.65,-97.16 -42.58,-18.055 -91.16,-27.09 -145.78,-27.09 -100.7,0 -183.14,31.93 -247.28,95.789 -64.17,63.859 -96.23,145.699 -96.23,245.527 0,64.594 14.6,121.997 43.82,172.207 29.2,50.2 71.04,90.57 125.51,121.11 54.46,30.53 113.11,45.8 175.94,45.8 53.44,0 104.89,-11.28 154.37,-33.85 49.47,-22.58 92.11,-54.68 127.94,-96.29"
         style="fill:#41c0d0;fill-opacity:1;fill-rule:nonzero;stroke:none"
         transform="matrix(0.13333333,0,0,-0.13333333,0,194.92)" />
      <path
         id="path26"
         d="m 5340.92,1461.86 v -337.8 h -298.85 v 337.8 h -31.04 -141.81 -1852.6 v -167.98 h 158.85 V 566.547 h 172.86 V 1293.88 H 4869.22 V 566.547 h 172.85 v 392.578 h 298.85 V 566.547 h 172.24 v 895.313 h -172.24"
         style="fill:#41c0d0;fill-opacity:1;fill-rule:nonzero;stroke:none"
         transform="matrix(0.13333333,0,0,-0.13333333,0,194.92)" />
      <path
         id="path27"
         d="m 3717.63,1087.52 h 231.21 v 120.67 H 3595.2 V 560.344 h 353.64 v 121.113 h -231.21 v 155.391 h 231.21 V 957.52 h -231.21 v 12.843 117.157"
         style="fill:#41c0d0;fill-opacity:1;fill-rule:nonzero;stroke:none"
         transform="matrix(0.13333333,0,0,-0.13333333,0,194.92)" />
      <path
         id="path28"
         d="M 26.1875,1461.85 H 567.871 L 249.09,730.277 H 547.18 V 566.555 H 0 L 317.34,1293.27 H 26.1875 v 168.58"
         style="fill:#41c0d0;fill-opacity:1;fill-rule:nonzero;stroke:none"
         transform="matrix(0.13333333,0,0,-0.13333333,0,194.92)" />
    </g>
  </g>
</svg>
