<?xml version="1.0" encoding="UTF-8" standalone="no"?>
<!-- Created with Inkscape (http://www.inkscape.org/) -->

<svg
   version="1.1"
   id="svg1"
   width="441.33334"
   height="337.54666"
   viewBox="0 0 441.33334 337.54666"
   sodipodi:docname="wallbrix.eps"
   xmlns:inkscape="http://www.inkscape.org/namespaces/inkscape"
   xmlns:sodipodi="http://sodipodi.sourceforge.net/DTD/sodipodi-0.dtd"
   xmlns="http://www.w3.org/2000/svg"
   xmlns:svg="http://www.w3.org/2000/svg">
  <defs
     id="defs1" />
  <sodipodi:namedview
     id="namedview1"
     pagecolor="#ffffff"
     bordercolor="#000000"
     borderopacity="0.25"
     inkscape:showpageshadow="2"
     inkscape:pageopacity="0.0"
     inkscape:pagecheckerboard="0"
     inkscape:deskcolor="#d1d1d1">
    <inkscape:page
       x="0"
       y="0"
       inkscape:label="1"
       id="page1"
       width="441.33334"
       height="337.54666"
       margin="0"
       bleed="0" />
  </sodipodi:namedview>
  <g
     id="g1"
     inkscape:groupmode="layer"
     inkscape:label="1">
    <g
       id="group-R5">
      <path
         id="path2"
         d="M 339.141,252.949 270.789,0.628906 H 245.43 L 199.445,313.129 h 28.797 L 263.059,62.0898 330.969,313.129 H 348.16 L 415.223,62.5313 450.027,313.129 h 27.508 L 431.129,0.628906 H 406.191 L 339.141,252.949"
         style="fill:#f6d922;fill-opacity:1;fill-rule:nonzero;stroke:none"
         transform="matrix(0.13333333,0,0,-0.13333333,0,337.54667)" />
      <path
         id="path3"
         d="M 695.539,104.219 637.086,273.57 581.203,104.219 Z m 9.457,-27.5081 H 572.168 L 546.809,0.210938 H 513.715 L 622.469,316.988 h 30.082 L 766.461,0.210938 h -34.82 L 704.996,76.7109"
         style="fill:#f6d922;fill-opacity:1;fill-rule:nonzero;stroke:none"
         transform="matrix(0.13333333,0,0,-0.13333333,0,337.54667)" />
      <path
         id="path4"
         d="m 852.5,313.129 h 30.52 V 28.1406 h 160.32 V 0.210938 H 852.5 V 313.129"
         style="fill:#f6d922;fill-opacity:1;fill-rule:nonzero;stroke:none"
         transform="matrix(0.13333333,0,0,-0.13333333,0,337.54667)" />
      <path
         id="path5"
         d="m 1153.47,313.129 h 30.52 V 28.1406 h 160.32 V 0.210938 H 1153.47 V 313.129"
         style="fill:#f6d922;fill-opacity:1;fill-rule:nonzero;stroke:none"
         transform="matrix(0.13333333,0,0,-0.13333333,0,337.54667)" />
      <path
         id="path6"
         d="m 1535.23,26.8516 c 53.3,0 78.23,16.3398 78.23,59.7578 0,39.5386 -27.07,56.7306 -79.52,56.7306 h -52.87 V 26.8516 Z m -11.61,142.7074 c 50.72,0 74.8,17.191 74.8,59.32 0,40.402 -25.79,58.031 -75.65,58.031 h -41.7 V 169.559 Z M 1538.24,0.210938 h -88.12 V 313.129 h 79.52 c 63.19,0 99.3,-26.219 99.3,-79.09 0,-32.668 -10.75,-60.609 -52.45,-74.359 52.45,-9.039 69.21,-36.11 69.21,-73.9417 0,-61.457 -41.7,-85.527362 -107.46,-85.527362"
         style="fill:#f6d922;fill-opacity:1;fill-rule:nonzero;stroke:none"
         transform="matrix(0.13333333,0,0,-0.13333333,0,337.54667)" />
      <path
         id="path7"
         d="m 1822.42,124.422 c 58.47,0 86.83,30.957 86.83,78.668 0,50.719 -30.08,82.531 -86.83,82.531 h -39.11 V 124.422 Z M 1783.31,0.210938 H 1752.8 V 313.129 h 76.51 c 63.61,0 111.75,-38.688 111.75,-107.027 0,-44.274 -21.05,-79.954 -56.31,-97.582 L 1968.14,0.210938 h -39.11 L 1852.95,98.2109 c -6.87,-1.3007 -14.18,-1.7226 -21.93,-1.7226 h -47.71 V 0.210938"
         style="fill:#f6d922;fill-opacity:1;fill-rule:nonzero;stroke:none"
         transform="matrix(0.13333333,0,0,-0.13333333,0,337.54667)" />
      <path
         id="path8"
         d="M 2080.3,313.191 V 0 h -30.52 v 313.191 h 30.52"
         style="fill:#f6d922;fill-opacity:1;fill-rule:nonzero;stroke:none"
         transform="matrix(0.13333333,0,0,-0.13333333,0,337.54667)" />
      <path
         id="path9"
         d="M 2293.03,139.898 2204.06,0.210938 h -37.4 L 2271.53,158.82 2170.95,313.129 h 37.83 l 85.1,-133.688 85.12,133.688 h 36.96 L 2314.52,160.539 2419.4,0.210938 h -37.83 L 2293.03,139.898"
         style="fill:#f6d922;fill-opacity:1;fill-rule:nonzero;stroke:none"
         transform="matrix(0.13333333,0,0,-0.13333333,0,337.54667)" />
      <path
         id="path10"
         d="M 2948.25,104.219 2889.8,273.57 2833.92,104.219 Z m 9.46,-27.5081 H 2824.88 L 2799.52,0.210938 h -33.09 L 2875.18,316.988 h 30.08 L 3019.17,0.210938 h -34.81 L 2957.71,76.7109"
         style="fill:#f6d922;fill-opacity:1;fill-rule:nonzero;stroke:none"
         transform="matrix(0.13333333,0,0,-0.13333333,0,337.54667)" />
      <path
         id="path11"
         d="m 3186.02,26.8516 c 53.31,0 78.23,16.3398 78.23,59.7578 0,39.5386 -27.07,56.7306 -79.52,56.7306 h -52.87 V 26.8516 Z m -11.61,142.7074 c 50.72,0 74.8,17.191 74.8,59.32 0,40.402 -25.79,58.031 -75.65,58.031 h -41.7 V 169.559 Z M 3189.03,0.210938 h -88.11 V 313.129 h 79.51 c 63.19,0 99.3,-26.219 99.3,-79.09 0,-32.668 -10.75,-60.609 -52.45,-74.359 52.45,-9.039 69.21,-36.11 69.21,-73.9417 0,-61.457 -41.7,-85.527362 -107.46,-85.527362"
         style="fill:#f6d922;fill-opacity:1;fill-rule:nonzero;stroke:none"
         transform="matrix(0.13333333,0,0,-0.13333333,0,337.54667)" />
      <path
         id="path12"
         d="m 2891.37,854.262 c -92.41,-67.203 -223.59,-100.801 -393.44,-100.801 -87.77,0 -176.42,13.039 -266.02,39.199 v 744.88 h 266.02 c 173.62,0 305.66,-33.61 396.24,-100.83 90.53,-67.2 135.8,-164.28 135.8,-291.22 0,-126.97 -46.19,-224.01 -138.6,-291.228 z m 316.43,600.658 c -68.18,73.73 -188.1,124.6 -359.85,152.61 123.22,41.04 214.66,97.04 274.43,168.02 59.73,70.93 89.61,150.25 89.61,238.03 0,192.24 -75.17,322.01 -225.41,389.23 -133.31,59.6 -287.63,92.64 -462.75,99.38 l -33.62,-98.38 c 63.65,-4.36 126.44,-17.22 188.33,-38.81 77.44,-27.07 141.42,-69.08 191.82,-126.01 50.41,-56.97 75.62,-127.4 75.62,-211.42 0,-80.28 -21.49,-148.89 -64.42,-205.82 -42.96,-56.97 -98.49,-99.88 -166.61,-128.81 -68.17,-28.97 -140.5,-43.4 -217.02,-43.4 H 2232.41 L 1979.88,910.691 V 655.449 h 560.05 c 216.54,0 399.04,36.84 547.45,110.61 148.41,73.722 222.62,204.851 222.62,393.441 0,123.2 -34.08,221.65 -102.2,295.42"
         style="fill:#f6d922;fill-opacity:1;fill-rule:nonzero;stroke:none"
         transform="matrix(0.13333333,0,0,-0.13333333,0,337.54667)" />
      <path
         id="path13"
         d="m 1940.67,2379.01 c 26.14,-45.78 39.21,-116.21 39.21,-211.42 v -565.37 l 252.03,741.39 v 33.99 c 4.23,1.06 8.38,1.97 12.55,2.91 l 41.85,123.11 h -558.45 v -56.01 h 56 c 78.42,0 130.65,-22.89 156.81,-68.6"
         style="fill:#f6d922;fill-opacity:1;fill-rule:nonzero;stroke:none"
         transform="matrix(0.13333333,0,0,-0.13333333,0,337.54667)" />
      <path
         id="path14"
         d="m 1928.34,1405.02 -105.37,-309.94 -375.23,1080.9 c -50.4,143.74 -117.18,238.95 -200.22,285.63 -83.09,46.64 -175.98,70 -278.622,70 -18.687,0 -36.89,-0.95 -54.613,-2.8 -17.762,-1.88 -31.277,-2.8 -40.597,-2.8 v -56 c 83.996,-7.47 147.002,-31.28 189.012,-71.41 42,-40.16 81.65,-114.36 119.01,-222.62 l 67.21,-193.21 -299.635,-887.69 -375.234,1080.9 c -50.403,143.74 -117.164,238.95 -200.207,285.63 -83.09,46.64 -175.981,70 -278.637,70 -18.625,0 -36.8281,-0.95 -54.5937,-2.8 -17.7188,-1.88 -31.24611,-2.8 -40.6133,-2.8 v -56 c 84.0117,-7.47 147.02,-31.28 189.023,-71.41 42.008,-40.16 81.637,-114.36 119.012,-222.62 L 851.277,627.441 h 56.004 L 1310.52,1806.35 1724.97,627.441 h 56 l 147.37,431.169 v 346.41"
         style="fill:#f6d922;fill-opacity:1;fill-rule:nonzero;stroke:none"
         transform="matrix(0.13333333,0,0,-0.13333333,0,337.54667)" />
    </g>
  </g>
</svg>
